<?xml version="1.0" encoding="UTF-8" standalone="no"?>
<svg
   width="90.440674"
   height="35.847458"
   fill="none"
   version="1.1"
   id="svg138"
   xmlns="http://www.w3.org/2000/svg"
   xmlns:svg="http://www.w3.org/2000/svg">
  <defs
     id="defs142" />
  <rect
     width="90.440674"
     height="35.847458"
     rx="4.5220337"
     fill="#25d366"
     id="rect132"
     x="0"
     y="0"
     style="stroke-width:0.75024" />
  <path
     fill-rule="evenodd"
     clip-rule="evenodd"
     d="m 12.330872,8.9419423 c 2.4186,0.0117 4.7528,0.9614003 6.4988,2.6351007 1.7881,1.7142 2.8185,4.0127 2.9086,6.488 0.088,2.4173 -0.7559,4.7918 -2.3566,6.6052 -1.7555,1.9889 -4.1975,3.1312 -6.835,3.2069 a 9.4172,9.4172 0 0 1 -0.2709,0.0039 c -1.4211,0 -2.8291004,-0.3205 -4.1043004,-0.9341 l -4.9568,1.1024 a 0.0728,0.0728 0 0 1 -0.086,-0.0811 l 0.8373,-5.012 c -0.7146,-1.3057 -1.1135,-2.7768 -1.1565,-4.2731 -0.0724,-2.5285 0.844,-4.9337 2.5805,-6.7728 1.8005,-1.9069 4.2593,-2.9684007 6.8940004,-2.9684007 z m -0.0527,1.6431007 c -0.0757,0 -0.1513,0.0011 -0.2274,0.0033 -4.3138004,0.1237 -7.7226004,3.7339 -7.5988004,8.0476 0.0378,1.3172 0.4088,2.6102 1.0731,3.7391 l 0.1442,0.2447 -0.6204,3.401 3.3656,-0.7945 0.2541,0.1323 c 1.109,0.577 2.3515004,0.8794 3.6070004,0.8794 0.0746,0 0.1493,-0.001 0.2239,-0.0032 4.3138,-0.1237 7.7226,-3.7338 7.5989,-8.0476 -0.1216,-4.2376 -3.6078,-7.6021 -7.8202,-7.6021 z m -3.2738004,3.2521 c 0.1583,0.0048 0.3169,0.0093 0.4551,0.0195 0.1692,0.0121 0.3563,0.0258 0.5222,0.4273 0.1968004,0.4768 0.6224004,1.6671 0.6782004,1.7878 0.0557,0.1207 0.0911,0.2608 0.007,0.4172 -0.0841,0.1562 -0.1268,0.2541 -0.2496,0.3892 -0.123,0.1353 -0.2593,0.3023 -0.3692,0.4055 -0.1229004,0.115 -0.2506004,0.24 -0.1192004,0.4821 0.1313004,0.2423 0.5842004,1.0354 1.2712004,1.6875 0.883,0.838 1.5911,1.1145 1.8724,1.2457 0.1014,0.0474 0.1858,0.0698 0.2595,0.0698 0.1011,0 0.1821,-0.0423 0.2593,-0.1206 0.148,-0.15 0.5933,-0.6697 0.7808,-0.9087 0.0981,-0.1251 0.1869,-0.1694 0.2834,-0.1694 0.0772,0 0.1593,0.0284 0.255,0.0666 0.2154,0.086 1.3659,0.6972 1.5999,0.8235 0.234,0.1261 0.3905,0.1905 0.4469,0.2914 0.0564,0.1013 0.0416,0.5772 -0.1734,1.1264 -0.2151,0.5492 -1.2016,1.055 -1.6385,1.0812 -0.1279,0.0077 -0.2537,0.0256 -0.4176,0.0256 -0.3958,0 -1.0132,-0.1043 -2.4155,-0.7082 -2.3858004,-1.0274 -3.8347004,-3.552 -3.9487004,-3.7142 -0.1137,-0.1625 -0.9306,-1.3193 -0.8946,-2.4894 0.0359,-1.17 0.6675,-1.7265 0.8927,-1.9578 0.2158,-0.2218 0.4631,-0.2784 0.6228,-0.2784 z"
     fill="#ffffff"
     id="path134" />
  <path
     d="m 7.7364296,19.446373 c -47.5643996,-13.2693334 -23.7821996,-6.634667 0,0 z m 26.3211004,3.096 2.304,-8.568 h -1.848 l -1.404,5.904 h -0.024 l -1.464,-5.904 h -1.764 l -1.488,5.832 h -0.024 l -1.356,-5.832 h -1.884 l 2.268,8.568 h 1.908 l 1.428,-5.832 h 0.024 l 1.452,5.832 z m 2.9923,-8.568 v 8.568 h 1.704 v -3.252 c 0,-0.632 0.104,-1.084 0.312,-1.356 0.208,-0.28 0.544,-0.42 1.008,-0.42 0.408,0 0.692,0.128 0.852,0.384 0.16,0.248 0.24,0.628 0.24,1.14 v 3.504 h 1.704 v -3.816 c 0,-0.384 -0.036,-0.732 -0.108,-1.044 -0.064,-0.32 -0.18,-0.588 -0.348,-0.804 -0.168,-0.224 -0.4,-0.396 -0.696,-0.516 -0.288,-0.128 -0.66,-0.192 -1.116,-0.192 -0.32,0 -0.648,0.084 -0.984,0.252 -0.336,0.16 -0.612,0.42 -0.828,0.78 h -0.036 v -3.228 z m 7.041,4.272 c 0.024,-0.4 0.124,-0.732 0.3,-0.996 0.176,-0.264 0.4,-0.476 0.672,-0.636 0.272,-0.16 0.576,-0.272 0.912,-0.336 0.344,-0.072 0.688,-0.108 1.032,-0.108 0.312,0 0.628,0.024 0.948,0.072 0.32,0.04 0.612,0.124 0.876,0.252 0.264,0.128 0.48,0.308 0.648,0.54 0.168,0.224 0.252,0.524 0.252,0.9 v 3.228 c 0,0.28 0.016,0.548 0.048,0.804 0.032,0.256 0.088,0.448 0.168,0.576 h -1.728 c -0.032,-0.096 -0.06,-0.192 -0.084,-0.288 -0.0159,-0.103507 -0.028,-0.207582 -0.036,-0.312 -0.272,0.28 -0.592,0.476 -0.96,0.588 -0.368,0.112 -0.744,0.168 -1.128,0.168 -0.296,0 -0.572,-0.036 -0.828,-0.108 -0.256,-0.072 -0.48,-0.184 -0.672,-0.336 -0.192,-0.152 -0.344,-0.344 -0.456,-0.576 -0.104,-0.232 -0.156,-0.508 -0.156,-0.828 0,-0.352 0.06,-0.64 0.18,-0.864 0.128,-0.232 0.288,-0.416 0.48,-0.552 0.2,-0.136 0.424,-0.236 0.672,-0.3 0.256,-0.072 0.512,-0.128 0.768,-0.168 0.256,-0.04 0.508,-0.072 0.756,-0.096 0.248,-0.024 0.468,-0.06 0.66,-0.108 0.192,-0.048 0.344,-0.116 0.456,-0.204 0.112,-0.096 0.164,-0.232 0.156,-0.408 0,-0.184 -0.032,-0.328 -0.096,-0.432 -0.056,-0.112 -0.136,-0.196 -0.24,-0.252 -0.096,-0.064 -0.212,-0.104 -0.348,-0.12 -0.128,-0.024 -0.268,-0.036 -0.42,-0.036 -0.336,0 -0.6,0.072 -0.792,0.216 -0.192,0.144 -0.304,0.384 -0.336,0.72 z m 3.936,1.26 c -0.072,0.064 -0.164,0.116 -0.276,0.156 -0.104,0.032 -0.22,0.06 -0.348,0.084 -0.12,0.024 -0.248,0.044 -0.384,0.06 -0.136,0.016 -0.272,0.036 -0.408,0.06 -0.128,0.024 -0.256,0.056 -0.384,0.096 -0.12,0.04 -0.228,0.096 -0.324,0.168 -0.088,0.064 -0.16,0.148 -0.216,0.252 -0.056,0.104 -0.084,0.236 -0.084,0.396 0,0.152 0.028,0.28 0.084,0.384 0.0539,0.101646 0.13223,0.188257 0.228,0.252 0.096,0.056 0.208,0.096 0.336,0.12 0.128,0.024 0.26,0.036 0.396,0.036 0.336,0 0.596,-0.056 0.78,-0.168 0.184,-0.112 0.32,-0.244 0.408,-0.396 0.088,-0.16 0.14,-0.32 0.156,-0.48 0.024,-0.16 0.036,-0.288 0.036,-0.384 z m 5.187,-3.168 v -1.86 h -1.704 v 1.86 h -1.032 v 1.14 h 1.032 v 3.66 c 0,0.312 0.052,0.564 0.156,0.756 0.104,0.192 0.244,0.34 0.42,0.444 0.184,0.104 0.392,0.172 0.624,0.204 0.24,0.04 0.492,0.06 0.756,0.06 0.168,0 0.34,-0.004 0.516,-0.012 0.176,-0.008 0.336,-0.024 0.48,-0.048 v -1.32 c -0.08,0.016 -0.164,0.028 -0.252,0.036 -0.088,0.008 -0.18,0.012 -0.276,0.012 -0.288,0 -0.48,-0.048 -0.576,-0.144 -0.096,-0.096 -0.144,-0.288 -0.144,-0.576 v -3.072 h 1.248 v -1.14 z m 3.378,4.188 h -1.62 c 0.016,0.416 0.108,0.764 0.276,1.044 0.176,0.272 0.396,0.492 0.66,0.66 0.272,0.168 0.58,0.288 0.924,0.36 0.344,0.072 0.696,0.108 1.056,0.108 0.352,0 0.696,-0.036 1.032,-0.108 0.344,-0.064 0.648,-0.18 0.912,-0.348 0.264,-0.168 0.476,-0.388 0.636,-0.66 0.168,-0.28 0.252,-0.624 0.252,-1.032 0,-0.288 -0.056,-0.528 -0.168,-0.72 -0.112,-0.2 -0.26,-0.364 -0.444,-0.492 -0.184,-0.136 -0.396,-0.244 -0.636,-0.324 -0.232,-0.08 -0.472,-0.148 -0.72,-0.204 -0.24,-0.056 -0.476,-0.108 -0.708,-0.156 -0.232,-0.048 -0.44,-0.1 -0.624,-0.156 -0.176,-0.064 -0.32,-0.144 -0.432,-0.24 -0.112,-0.096 -0.168,-0.22 -0.168,-0.372 0,-0.128 0.032,-0.228 0.096,-0.3 0.064,-0.08 0.14,-0.14 0.228,-0.18 0.096,-0.04 0.2,-0.064 0.312,-0.072 0.112,-0.016 0.216,-0.024 0.312,-0.024 0.304,0 0.568,0.06 0.792,0.18 0.224,0.112 0.348,0.332 0.372,0.66 h 1.62 c -0.032,-0.384 -0.132,-0.7 -0.3,-0.948 -0.16,-0.256 -0.364,-0.46 -0.612,-0.612 -0.248,-0.152 -0.532,-0.26 -0.852,-0.324 -0.312,-0.064 -0.636,-0.096 -0.972,-0.096 -0.336,0 -0.664,0.032 -0.984,0.096 -0.32,0.056 -0.608,0.16 -0.864,0.312 -0.256,0.144 -0.464,0.344 -0.624,0.6 -0.152,0.256 -0.228,0.584 -0.228,0.984 0,0.272 0.056,0.504 0.168,0.696 0.112,0.184 0.26,0.34 0.444,0.468 0.184,0.12 0.392,0.22 0.624,0.3 0.24,0.072 0.484,0.136 0.732,0.192 0.608,0.128 1.08,0.256 1.416,0.384 0.344,0.128 0.516,0.32 0.516,0.576 0,0.152 -0.036,0.28 -0.108,0.384 -0.072,0.096 -0.164,0.176 -0.276,0.24 -0.104,0.056 -0.224,0.1 -0.36,0.132 -0.128,0.024 -0.252,0.036 -0.372,0.036 -0.168,0 -0.332,-0.02 -0.492,-0.06 -0.152,-0.04 -0.288,-0.1 -0.408,-0.18 -0.12,-0.088 -0.22,-0.196 -0.3,-0.324 -0.072,-0.136 -0.108,-0.296 -0.108,-0.48 z m 7.466,-1.296 1.116,-3.144 h 0.024 l 1.08,3.144 z m 0.18,-5.256 -3.24,8.568 h 1.896 l 0.672,-1.908 h 3.204 l 0.648,1.908 h 1.956001 l -3.204001,-8.568 z m 8.827,7.452 c -0.272,0 -0.504,-0.056 -0.695999,-0.168 -0.192,-0.112 -0.348,-0.256 -0.468,-0.432 -0.112,-0.184 -0.196,-0.396 -0.252,-0.636 -0.048,-0.24 -0.072,-0.484 -0.072,-0.732 0,-0.256 0.024,-0.504 0.072,-0.744 0.048,-0.24 0.128,-0.452 0.24,-0.636 0.12,-0.184 0.272,-0.332 0.456,-0.444 0.191999,-0.12 0.427999,-0.18 0.707999,-0.18 0.272,0 0.5,0.06 0.684,0.18 0.192,0.112 0.348,0.264 0.468,0.456 0.12,0.184 0.204,0.396 0.252,0.636 0.056,0.24 0.084,0.484 0.084,0.732 0,0.248 -0.024,0.492 -0.072,0.732 -0.048,0.24 -0.132,0.452 -0.252,0.636 -0.112,0.176 -0.264,0.32 -0.456,0.432 -0.184,0.112 -0.416,0.168 -0.696,0.168 z m -3.131999,-5.088 v 8.376 h 1.704 v -2.94 h 0.024 c 0.208,0.304 0.472,0.536 0.791999,0.696 0.328,0.152 0.684,0.228 1.068,0.228 0.456,0 0.852,-0.088 1.188,-0.264 0.344,-0.176 0.628,-0.412 0.852,-0.708 0.232,-0.296 0.404,-0.636 0.516,-1.02 0.112,-0.384 0.168,-0.784 0.168,-1.2 0,-0.44 -0.056,-0.86 -0.168,-1.26 -0.112,-0.408 -0.284,-0.764 -0.516,-1.068 -0.232,-0.304 -0.524,-0.548 -0.876,-0.732 -0.352,-0.184 -0.772,-0.276 -1.26,-0.276 -0.384,0 -0.736,0.076 -1.055999,0.228 -0.32,0.152 -0.584,0.396 -0.792,0.732 h -0.024 v -0.792 z m 10.466999,5.088 c -0.272,0 -0.504,-0.056 -0.696,-0.168 -0.192,-0.112 -0.348,-0.256 -0.468,-0.432 -0.112,-0.184 -0.196,-0.396 -0.252,-0.636 -0.048,-0.24 -0.072,-0.484 -0.072,-0.732 0,-0.256 0.024,-0.504 0.072,-0.744 0.048,-0.24 0.128,-0.452 0.24,-0.636 0.12,-0.184 0.272,-0.332 0.456,-0.444 0.192,-0.12 0.428,-0.18 0.708,-0.18 0.272,0 0.5,0.06 0.684,0.18 0.192,0.112 0.348,0.264 0.468,0.456 0.12,0.184 0.204,0.396 0.252,0.636 0.056,0.24 0.084,0.484 0.084,0.732 0,0.248 -0.024,0.492 -0.072,0.732 -0.048,0.24 -0.132,0.452 -0.252,0.636 -0.112,0.176 -0.264,0.32 -0.456,0.432 -0.184,0.112 -0.416,0.168 -0.696,0.168 z m -3.132,-5.088 v 8.376 h 1.704 v -2.94 h 0.024 c 0.208,0.304 0.472,0.536 0.792,0.696 0.328,0.152 0.684,0.228 1.068,0.228 0.456,0 0.852,-0.088 1.188,-0.264 0.344,-0.176 0.628,-0.412 0.852,-0.708 0.232,-0.296 0.404,-0.636 0.516,-1.02 0.112,-0.384 0.168,-0.784 0.168,-1.2 0,-0.44 -0.056,-0.86 -0.168,-1.26 -0.112,-0.408 -0.284,-0.764 -0.516,-1.068 -0.232,-0.304 -0.524,-0.548 -0.876,-0.732 -0.352,-0.184 -0.772,-0.276 -1.26,-0.276 -0.384,0 -0.736,0.076 -1.056,0.228 -0.32,0.152 -0.584,0.396 -0.792,0.732 h -0.024 v -0.792 z"
     fill="#ffffff"
     id="path136" />
</svg>
