<?xml version="1.0" encoding="UTF-8"?>
<svg version="1.1" viewBox="0 0 21.387 68.78" xmlns="http://www.w3.org/2000/svg">
 <g stroke-width=".26458">
  <path d="m18.825 68.78h-7.454v-0.28991c0-0.0253 0.0205-0.0459 0.0459-0.0459h7.3621c0.0254 0 0.0459 0.0206 0.0459 0.0459v0.28991" fill="#a38fa1"/>
  <path d="m16.295 68.78h-4.9244v-0.24567c0-0.0498 0.0403-0.0902 0.0901-0.0902h3.7099c0.29327 0.11835 0.5956 0.21514 0.90334 0.28991 0.073 0.0177 0.14747 0.0302 0.22112 0.0459" fill="#8b8494"/>
  <path d="m2.1892 68.78h7.454v-0.28991c0-0.0253-0.0205-0.0459-0.0459-0.0459h-7.3621c-0.0254 0-0.0459 0.0206-0.0459 0.0459v0.28991" fill="#a38fa1"/>
  <path d="m10.422 23.987c0-0.0065 0.45176-0.9418 1.378-1.3264 0.28375-0.11761 0.61716-0.09987 0.9542-0.08214 0.56536 0.02893 1.1411 0.05787 1.5101-0.54977 0.58906-0.97166 2.2741-0.70471 2.6543-2.1347 0.44756-1.6838-1.0068-2.7684-0.71797-3.9398 0.28889-1.1723 1.6018-1.1919 2.0743-2.9402 0.46091-1.7053-0.80421-2.438-0.80421-3.4508s0.9262-1.6773 0.79068-2.7619c-0.13553-1.0846-2.5076-3.0727-2.9445-3.8633-0.43673-0.79059-0.21085-1.8528-1.8903-2.6658-1.5742-0.76258-3.0049 0.31642-3.0049 0.31642s-1.4306-1.079-3.0048-0.31642c-1.6794 0.81298-1.4535 1.8752-1.8903 2.6658-0.43673 0.79058-2.8088 2.7787-2.9445 3.8633-0.13553 1.0846 0.79076 1.7492 0.79076 2.7619 0 1.0127-1.2652 1.7454-0.8043 3.4508 0.47258 1.7482 1.7855 1.7678 2.0743 2.9402 0.28879 1.1714-1.1655 2.256-0.71797 3.9398 0.38017 1.43 2.0653 1.163 2.6544 2.1347 0.36897 0.60764 0.94468 0.5787 1.51 0.54977 0.33704-0.01774 0.67045-0.03547 0.9542 0.08214 0.9263 0.38455 1.378 1.3198 1.378 1.3264h4.8e-4" fill="#181819"/>
  <path d="m6.614 22.082c-0.0117-0.0168-0.0232-0.03547-0.0344-0.0532-0.20469-0.33789-0.54173-0.52644-0.91042-0.68791 0.36869 0.16148 0.70573 0.35002 0.91042 0.68791 0.0113 0.01774 0.0228 0.0364 0.0344 0.0532m-3.5653-11.527s9e-5 -9.3e-4 9e-5 -9.3e-4c0.17315-0.32575 0.3196-0.6347 0.32417-0.97353-5e-3 0.33976-0.15074 0.64871-0.32426 0.97446m0.32426-0.97539c9e-5 -0.0028 9e-5 -0.0047 9e-5 -0.0075 0 0.0028 0 0.0047-9e-5 0.0075m9e-5 -0.0084c0-9.3e-4 0-0.0019 1e-4 -0.0028-1e-4 9.3e-4 -1e-4 0.0019-1e-4 0.0028m1e-4 -0.0037v-0.0037 0.0037m0-0.0037c0-0.06067-4e-3 -0.11947-0.01-0.17734 1e-4 0 3e-4 0 3.7e-4 -9.3e-4 6e-3 0.0588 0.01 0.11761 0.01 0.17828" fill="#7e8182"/>
  <path d="m10.422 23.987h-4.8e-4c0-0.0028-0.10257-0.21748-0.31025-0.48163h0.62098c-0.20768 0.26415-0.31026 0.47883-0.31026 0.48163m-3.8082-1.905c-0.0117-0.0168-0.0232-0.03547-0.0344-0.0532-0.20469-0.33789-0.54174-0.52644-0.91043-0.68791l-0.91715-2.6322c-0.34097 0.17921-0.62817 0.47322-0.89055 0.86712-0.0468-0.34629-0.0164-0.66644 0.0547-0.96793 0.52485-0.0756 1.0377-0.20441 1.5109-0.37149 0.57207-0.20255 1.1311-0.48163 1.5872-0.88766 0.4358-0.38642 0.91258-1.0333 0.75269-1.6512-0.0855-0.33135-0.39539-0.53016-0.65991-0.71311-0.36561-0.25295-0.69342-0.5423-0.99163-0.87272-0.31838-0.35188-0.58907-0.73084-0.84883-1.1275-0.20031-0.30522-0.42161-0.53297-0.74951-0.70005-0.32529-0.16521-0.67401-0.30802-0.95654-0.54416-0.3405-0.28469-0.52065-0.71405-0.51356-1.1565 1e-4 -0.0093 1e-3 -0.0196 2e-3 -0.02893 0.17351-0.32575 0.31968-0.6347 0.32426-0.97446v-9.2e-4c9e-5 -0.0028 9e-5 -0.0047 9e-5 -0.0075v-9.3e-4c0-9.2e-4 0-0.0019 9e-5 -0.0028v-9.2e-4 -0.0037c0-0.06067-3e-3 -0.11948-0.01-0.17828 0.0351-0.07467 0.0711-0.14841 0.10874-0.21842 0.0828-0.15587 0.19471-0.28935 0.31073-0.42002-7e-3 0.36215 0.0936 0.78311 0.28385 1.1919 0.32958 0.70937 0.76202 1.0417 1.1947 1.0417 0.0979 0 0.19582-0.0168 0.29262-0.0504 0.0239 0.09334 0.0469 0.17921 0.0685 0.25948 0.13245 0.48817 0.40145 0.92593 0.77761 1.2638 0.55938 0.50216 1.5175 1.2563 2.7108 1.8378v2.2429l-2.4972 1.2479v4.3001m7.7867-0.23708v-4.063l-2.4969-1.248v-2.2429c1.1931-0.5815 2.1511-1.3357 2.7105-1.8378 0.37616-0.33789 0.64507-0.77565 0.77752-1.2638 0.0217-0.08027 0.0446-0.16615 0.0685-0.25948 0.0968 0.0336 0.1948 0.0504 0.29271 0.0504 0.43272 0 0.86507-0.33229 1.1946-1.0417 0.2004-0.43029 0.30139-0.87459 0.28188-1.2489 0.28441 0.56657 0.14608 1.4916 0.0464 1.9975-0.0685 0.34722-0.15261 0.70844-0.30167 1.0314-0.12377 0.26882-0.32081 0.47603-0.56573 0.63751-0.18677 0.12321-0.42805 0.21281-0.59196 0.36589-0.15989 0.14934-0.25537 0.39202-0.37961 0.5703-0.18985 0.27162-0.398 0.53017-0.59849 0.79525-0.37597 0.49563-0.79245 1.0659-0.87235 1.7025-0.13459 1.0725 0.87525 1.9778 1.6776 2.5267 0.32547 0.22308 0.84621 0.55723 1.3489 0.67764 0.0177 0.18201 0.0172 0.37056-8e-3 0.56844-0.25995-0.38736-0.54463-0.67671-0.88187-0.85406l-0.91537 2.6266c-0.30037 0.1316-0.58048 0.27908-0.78629 0.50963m-10.037-14.048c0.0331-0.126 0.0567-0.25574 0.0776-0.38548 0.0469 0.12694 0.10015 0.24081 0.15466 0.34348-0.031 9.3e-4 -0.0623 0.0037-0.0942 0.0093h-4e-3c-0.0473 0.0084-0.0921 0.0196-0.1345 0.03267m11.875-0.0252c0.0632-0.11667 0.12508-0.25014 0.17791-0.39855 0.03 0.1288 0.0583 0.25854 0.085 0.38922-0.0361-0.0056-0.0714-0.0084-0.10631-0.0084h-1.9e-4 -1e-3c-0.0532 0-0.10491 0.0065-0.15513 0.01774" fill="#0f0f0f"/>
  <path d="m18.972 39.777s-0.20898 1.5056-0.23502 1.7902c-0.0259 0.28468-0.53857 1.3553-0.52849 1.6838 0.01 0.32761 0.24595 0.54043 0.39557 0.47509 0.14972-0.06627 0.51691-1.1182 0.67531-1.4552 0.15839-0.33695 0.34722-1.7081 0.34722-1.7081l-0.65459-0.78592" fill="#fddfc1"/>
  <path d="m18.546 43.737c-0.14571 0-0.32837-0.19881-0.33705-0.48629-9e-5 -0.0037-1.9e-4 -0.0065-1.9e-4 -0.01028 9e-5 -0.33882 0.50301-1.3917 0.52867-1.6736 0.0107-0.1176 0.0523-0.44056 0.0975-0.78031 0.0463 0.08587 0.083 0.15961 0.10566 0.20908 5e-3 0.01214 0.0105 0.02426 0.0159 0.03827-0.0207 0.46763-0.0476 1.1061-0.0476 1.2816 0 0.22494-0.25453 0.95765-0.34488 1.4206-6e-3 0.0011-0.012 0.0011-0.018 0.0011" fill="#f8bc8d"/>
  <path d="m18.98 40.511s-0.0715 1.5177-0.0715 1.8042c0 0.28561-0.41331 1.3992-0.37364 1.7249 0.0398 0.32575 0.29411 0.51617 0.4372 0.43683 0.14309-0.0793 0.41331-1.1602 0.54044-1.5102 0.12712-0.34909 0.19078-1.7324 0.19078-1.7324l-0.72328-0.72338" fill="#fddfc1"/>
  <path d="m18.9 44.495c-0.14347 0-0.33117-0.17921-0.36487-0.45457-2e-3 -0.0149-3e-3 -0.0308-3e-3 -0.0485-7.4e-4 -0.37616 0.37625-1.4029 0.37625-1.6764 0-0.17548 0.0269-0.81392 0.0476-1.2816 0.11891 0.30429 0.2858 1.1602 0.27815 1.289-6e-3 0.10921 0.034 0.83726 0.0917 1.2461-0.1234 0.41163-0.26387 0.85779-0.35385 0.90819-0.0219 0.0122-0.0464 0.0177-0.0723 0.0177" fill="#fbd1aa"/>
  <path d="m19.553 37.618s0.26975 1.542 0.33331 2.1309c0.0636 0.58804 0.0238 2.1692 0.0636 2.4156 0.0398 0.24641 0.0239 1.6138-0.0477 1.8444-0.0715 0.23055-0.45298 0.0392-0.5325-0.21468-0.0794-0.25481-0.143-1.3357-0.13516-1.471 8e-3 -0.1344-0.17473-1.065-0.29402-1.3273-0.11919-0.26135-0.62789-1.1835-0.86628-1.0566-0.23838 0.12695-0.32584 0.77098-0.38147 1.0015-0.0556 0.23055-0.44514 0.65151-0.70742 0.54791-0.26228-0.10268-0.0636-0.58804 0.0637-1.0174 0.12712-0.42843 0.0794-0.76258 0.15102-1.3422 0.0715-0.58057 0.65561-1.5112 0.65561-1.5112s-0.93106-3.5105-1.0531-4.6016c-0.12209-1.0911 0.0635-2.8767 0.0635-2.8767s-1.1299-5.3418-1.9995-7.8825l1.2362-3.5478c0.82437 0.43496 1.3346 1.5336 1.9379 3.1129 0.50897 1.3329 1.2646 5.6321 1.7496 7.988 0.0202 0.09801 0.0289 0.19601 0.026 0.29589-0.0222 0.77658-0.12947 4.4205-0.26313 7.5119" fill="#f8c9a3"/>
  <path d="m16.856 41.249c1.9e-4 -0.20534 0.11098-0.50309 0.19247-0.77845-0.0815 0.27535-0.19228 0.57311-0.19247 0.77845m0.19247-0.77845c0.12507-0.42189 0.0809-0.75231 0.14766-1.3161-0.0667 0.56377-0.0225 0.89419-0.14766 1.3161m2.4182-12.287c-0.44961-2.3055-1.0012-5.1971-1.4056-6.305 0.40434 1.1079 0.95598 3.9986 1.4056 6.305m-1.4058-6.306c-2e-3 -0.0047-4e-3 -0.01027-6e-3 -0.01587 2e-3 0.0056 4e-3 0.01027 6e-3 0.01587m-6e-3 -0.0168c-3.7e-4 -9.2e-4 -7.4e-4 -0.0019-1e-3 -0.0028 3.7e-4 9.3e-4 7.4e-4 0.0019 1e-3 0.0028m-1e-3 -0.0037c-3.7e-4 -9.2e-4 -7.4e-4 -0.0019-1e-3 -0.0028 3.7e-4 9.3e-4 7.4e-4 0.0019 1e-3 0.0028m-1e-3 -0.0037c-3.7e-4 -9.2e-4 -9.3e-4 -0.0028-1e-3 -0.0037 4.8e-4 9.3e-4 9.3e-4 0.0028 1e-3 0.0037m-1e-3 -0.0047c-4.8e-4 -9.2e-4 -8.5e-4 -0.0019-1e-3 -0.0028 3.7e-4 9.3e-4 7.4e-4 0.0019 1e-3 0.0028m-2e-3 -0.0037c-2.9e-4 -9.2e-4 -5.6e-4 -0.0019-8.5e-4 -0.0028 2.9e-4 9.3e-4 5.6e-4 0.0019 8.5e-4 0.0028m-1e-3 -0.0037c-1e-3 -0.0037-3e-3 -0.0075-4e-3 -0.0112 1e-3 0.0037 3e-3 0.0075 4e-3 0.0112m-4e-3 -0.01213c-4.8e-4 -9.2e-4 -8.5e-4 -0.0019-1e-3 -0.0028 3.7e-4 9.3e-4 7.4e-4 0.0019 1e-3 0.0028m-1e-3 -0.0037c-4.8e-4 -9.2e-4 -9.3e-4 -0.0028-1e-3 -0.0037 4.7e-4 9.3e-4 9.2e-4 0.0028 1e-3 0.0037" fill="#fce3ce"/>
  <path d="m17.072 41.504c-0.03 0-0.059-0.0047-0.0866-0.01587-9e-3 -0.0028-0.0178-0.0075-0.0259-0.01215-0.0748-0.042-0.10295-0.12227-0.10286-0.22681 1.9e-4 -0.20535 0.11098-0.5031 0.19247-0.77845 0.12517-0.4219 0.0809-0.75232 0.14766-1.3161 1e-3 -0.0084 2e-3 -0.01773 3e-3 -0.02614 0.0715-0.58057 0.65561-1.5112 0.65561-1.5112s-0.93105-3.5105-1.0531-4.6016c-0.0301-0.26882-0.0415-0.58151-0.0415-0.89792-1.9e-4 -0.96606 0.10501-1.9788 0.10501-1.9788s-1.1299-5.3418-1.9995-7.8825l1.2362-3.5478c0.82437 0.43496 1.3346 1.5336 1.9379 3.1129 4.7e-4 9.3e-4 9.2e-4 0.0028 1e-3 0.0037 9e-5 0 1.9e-4 0 2.9e-4 9.3e-4 3.7e-4 9.3e-4 7.4e-4 0.0019 1e-3 0.0028 0 0 9e-5 9.3e-4 1.8e-4 9.3e-4 1e-3 0.0037 3e-3 0.0075 4e-3 0.0112 1.9e-4 0 3.7e-4 9.2e-4 5.6e-4 9.2e-4 2.9e-4 9.3e-4 5.5e-4 0.0019 8.5e-4 0.0028 1.8e-4 0 2.9e-4 9.3e-4 4.7e-4 9.3e-4 3.7e-4 9.2e-4 7.4e-4 0.0019 1e-3 0.0028 0 9.2e-4 9e-5 9.2e-4 1.9e-4 9.2e-4 3.7e-4 9.3e-4 9.2e-4 0.0028 1e-3 0.0037 1.9e-4 0 2.9e-4 9.3e-4 3.7e-4 9.3e-4 3.7e-4 9.3e-4 7.4e-4 0.0019 1e-3 0.0028 1e-4 0 1.9e-4 9.3e-4 3.8e-4 9.3e-4 3.7e-4 9.2e-4 7.4e-4 0.0019 1e-3 0.0028 9e-5 9.2e-4 1.8e-4 9.2e-4 2.9e-4 9.2e-4 2e-3 0.0056 4e-3 0.0112 6e-3 0.01587 1e-4 0 1e-4 0 1.9e-4 9.3e-4 0.40435 1.1079 0.95598 3.9996 1.4056 6.3051-0.5732 0.34255-1.1367 0.70751-1.7916 0.87365-0.0183 0.0047-0.0352 0.02426-0.0336 0.04387 0.0865 1.0846 0.23549 2.1617 0.40444 3.2351 0.15326 0.9754 0.37643 1.9573 0.45969 2.9402 0.0716 0.84658-0.0606 1.6894-0.28253 2.5043-0.34107 1.2535-0.86638 2.4558-1.1389 3.7233h-0.0127" fill="#f5b587"/>
  <path d="m9.3777 68.261h-6.9904c-0.61044-1.0682 1.404-1.5135 2.2286-1.9838 0.5368-0.30615 2.4422-0.70965 2.4422-1.7088 0-0.83529-0.0805-1.8347-0.19722-2.9153h2.8698c-0.15093 0.99406-0.27451 1.9441-0.29178 2.9153-0.0493 2.7773-0.0611 3.6927-0.0611 3.6927" fill="#f8c9a3"/>
  <path d="m11.636 68.261h6.9904c0.61043-1.0682-1.404-1.5135-2.2286-1.9838-0.53679-0.30615-2.4422-0.70965-2.4422-1.7088 0-0.83529 0.0805-1.8347 0.19723-2.9153h-2.8698c0.15093 0.99406 0.27451 1.9441 0.29178 2.9153 0.0493 2.7773 0.0611 3.6927 0.0611 3.6927" fill="#f8c9a3"/>
  <path d="m7.0481 64.028c-3e-4 -9e-5 -4.8e-4 -2.6e-4 -7.4e-4 -2.6e-4 -0.0247-0.7077-0.0929-1.5047-0.18435-2.3539 0.0915 0.84864 0.16026 1.6469 0.18509 2.3543m-0.18509-2.3544c-6.6e-4 -7e-3 -1e-3 -0.0133-2e-3 -0.02 7.4e-4 7e-3 1e-3 0.0133 2e-3 0.02" fill="#fdeede"/>
  <path d="m7.7644 66.748c0.39184-0.71031 0.64637-1.4899 0.69799-2.3322 2e-3 -0.0249-0.0222-0.0455-0.0457-0.0457-0.47295-5e-3 -0.95617-0.10986-1.3685-0.34209-0.0248-0.70741-0.0936-1.5056-0.18509-2.3543v-9e-5c-6.6e-4 -7e-3 -1e-3 -0.0133-2e-3 -0.02h2.8698c-0.15092 0.99406-0.27451 1.9441-0.29177 2.9153-0.0147 0.82465-0.026 1.4852-0.0346 2.0063-1e-3 1.9e-4 -3e-3 2.6e-4 -4e-3 5.3e-4 -1e-3 9e-5 -2e-3 1.8e-4 -3e-3 2.6e-4 -2e-3 1.9e-4 -4e-3 5.3e-4 -6e-3 5.3e-4 -0.45372 0.0556-0.99052 0.13301-1.5541 0.1668 0 9e-5 -9e-5 1.8e-4 -9e-5 2.6e-4 -0.0242 1e-3 -0.0483 3e-3 -0.0725 4e-3" fill="#f8bf91"/>
  <path d="m13.967 64.002c0.0258-0.70667 0.0949-1.5028 0.18631-2.3487-0.0915 0.84631-0.15999 1.6415-0.18565 2.3484-1.9e-4 1e-4 -4.8e-4 1.9e-4 -6.7e-4 2.7e-4" fill="#fdeede"/>
  <path d="m13.235 66.747c-0.0639-3e-3 -0.1275-7e-3 -0.19069-0.012-1e-4 -1e-4 -1.9e-4 -2.7e-4 -3e-4 -5.3e-4 -0.52017-0.0374-1.0135-0.10809-1.4343-0.15942-9e-3 -0.52112-0.02-1.1817-0.0346-2.0063-0.0173-0.97119-0.14085-1.9212-0.29177-2.9153h2.8698c-0.0914 0.84593-0.16054 1.642-0.1863 2.3487-0.29477 0.14664-0.60661 0.26695-0.92518 0.26695-0.0723 0-0.14505-6e-3 -0.21785-0.0197-3e-3 -5.3e-4 -6e-3 -8e-4 -0.01-8e-4 -0.0203 0-0.0434 0.0105-0.0465 0.0329-0.11863 0.85928 0.0451 1.7284 0.46763 2.4656" fill="#f8bf91"/>
  <path d="m15.314 32.283s1.1141 3.686 1.2667 4.9675c0.15261 1.2816-0.51449 8.9746-0.97997 12.546 0 0-0.28673 5.8132-1.2177 13.551 0 0-0.48723 0.39688-1.343 0.39688-1.6637 0-1.8924-0.41209-1.8924-0.41209s-0.64078-7.0354-0.18295-13.535c0 0-0.20263-9.0362-0.45773-11.782-0.255 2.746-0.45783 11.782-0.45783 11.782 0.45783 6.5001-0.18294 13.535-0.18294 13.535s-0.22868 0.41209-1.8924 0.41209c-0.85573 0-1.343-0.39688-1.343-0.39688-0.93097-7.7375-1.2177-13.551-1.2177-13.551-0.46548-3.5712-1.1326-11.264-0.97996-12.546 0.15261-1.2815 1.2667-4.9675 1.2667-4.9675h9.614" color="192a48" fill="#192a48" name="pantalon"/>
  <path d="m2.281 68.444-0.0527-0.0922c-0.14178-0.24819-0.17427-0.4905-0.0964-0.72039 0.18864-0.55705 0.98594-0.89307 1.6895-1.1896 0.26779-0.11276 0.52083-0.21944 0.70369-0.3237 0.2003-0.11425 0.40826-0.24641 0.60875-0.38493 0.40883 0.0682 0.7693 0.19881 1.0086 0.30148 0.16838 0.0722 0.20665 0.2985 0.0673 0.41751-0.12638 0.1079-0.23521 0.16045-0.23521 0.16045 1.1866 0.29831 2.5272 0.07 3.4788-0.0441 0.0706-8e-3 0.13329 0.0497 0.13217 0.12069-0.0189 1.1337-0.0246 1.5678-0.0246 1.5741l-2e-3 0.1807h-7.2776" fill="#fff"/>
  <path d="m18.733 68.444 0.0527-0.0922c0.14179-0.24819 0.17427-0.4905 0.0964-0.72039-0.18863-0.55705-0.98594-0.89307-1.6895-1.1896-0.26779-0.11276-0.52083-0.21944-0.70368-0.3237-0.20031-0.11425-0.40827-0.24641-0.60876-0.38493-0.40883 0.0682-0.7693 0.19881-1.0086 0.30148-0.16839 0.0722-0.20666 0.2985-0.0673 0.41751 0.12638 0.1079 0.23522 0.16045 0.23522 0.16045-1.1866 0.29831-2.5272 0.07-3.4788-0.0441-0.0706-8e-3 -0.13329 0.0497-0.13207 0.12069 0.0189 1.1337 0.0245 1.5678 0.0246 1.5741l2e-3 0.1807h7.2776" fill="#fff"/>
  <path d="m9.5585 68.444 2e-3 -0.1807c1e-4 -6e-3 6e-3 -0.44038 0.0246-1.5741v-2e-3 2e-3c-0.0189 1.1337-0.0245 1.5679-0.0246 1.5741l-2e-3 0.1807" fill="#d6ece6"/>
  <path d="m7.8369 66.744c0-9e-5 1e-4 -1.9e-4 1e-4 -2.6e-4 0.56358-0.0338 1.1004-0.11117 1.5541-0.1668-0.45391 0.0556-0.99051 0.13329-1.5542 0.16708" fill="#d0b186"/>
  <path d="m9.5854 66.683c-2e-3 -0.0636-0.0556-0.11518-0.11836-0.11518 0.0627 0 0.11593 0.0516 0.11836 0.11518" fill="#d6ece6"/>
  <path d="m9.3968 66.576c9.2e-4 -1.9e-4 2e-3 -2.7e-4 3e-3 -2.7e-4 -1e-3 1e-4 -2e-3 1.9e-4 -3e-3 2.7e-4" fill="#d0b186"/>
 </g>
 <g fill="#d6ece6" stroke-width=".26458">
  <path d="m9.4424 66.57m0.0109-1e-3c1e-3 -1e-4 2e-3 -2.7e-4 3e-3 -2.7e-4 -1e-3 1e-4 -2e-3 2.7e-4 -3e-3 2.7e-4m3e-3 -2.7e-4c8.5e-4 -9e-5 2e-3 -9e-5 3e-3 -1.9e-4 -8.5e-4 1e-4 -2e-3 1e-4 -3e-3 1.9e-4m5e-3 -2.6e-4c4.8e-4 -9e-5 1e-3 -9e-5 2e-3 -9e-5 -5.6e-4 0-1e-3 0-2e-3 9e-5m2e-3 -9e-5h5.5e-4 -5.5e-4"/>
  <path d="m9.5585 68.444h-3.1065c0.14206-0.11611 0.28105-0.23642 0.41499-0.36346 0.39753-0.3769 0.79973-0.80645 0.96988-1.3374 0.56368-0.0338 1.1003-0.11145 1.5542-0.16708 2e-3 -1.9e-4 4e-3 -5.3e-4 6e-3 -5.3e-4 9.2e-4 -1.8e-4 2e-3 -2.6e-4 3e-3 -2.6e-4 0.0143-2e-3 0.0285-3e-3 0.0427-5e-3 4e-3 -5.3e-4 7e-3 -7.9e-4 0.0109-1e-3 1e-3 -1e-4 2e-3 -2.7e-4 3e-3 -2.7e-4h9e-5c8.5e-4 -9e-5 2e-3 -9e-5 3e-3 -1.9e-4 8.4e-4 0 2e-3 -9e-5 3e-3 -9e-5 4.8e-4 -9e-5 1e-3 -9e-5 2e-3 -9e-5h9e-5 5.6e-4c9.2e-4 -9e-5 2e-3 -9e-5 3e-3 -9e-5 0.0627 0 0.11592 0.0516 0.11835 0.11518 0 2e-3 9e-5 3e-3 9e-5 5e-3v2e-3c-0.0189 1.1337-0.0246 1.5678-0.0246 1.5741l-2e-3 0.1807"/>
  <path d="m11.456 68.444-2e-3 -0.1807c-9e-5 -6e-3 -6e-3 -0.44038-0.0246-1.5741v-2e-3 2e-3c0.0189 1.1337 0.0245 1.5678 0.0246 1.5741l2e-3 0.1807m0.15429-1.8695c-0.0139-2e-3 -0.0278-3e-3 -0.0416-5e-3 0.0138 2e-3 0.0276 3e-3 0.0416 5e-3"/>
 </g>
 <g stroke-width=".26458">
  <path d="m13.045 66.735c-0.52036-0.0374-1.0136-0.10855-1.4346-0.15989 0.42087 0.0513 0.91417 0.122 1.4343 0.15943 1e-4 1.8e-4 1.9e-4 2.6e-4 3e-4 5.3e-4" fill="#d0b186"/>
  <path d="m15.171 68.444h-3.7153l-2e-3 -0.1807c-9e-5 -6e-3 -6e-3 -0.44038-0.0246-1.5741v-2e-3c-2.9e-4 -0.0658 0.0541-0.12003 0.11836-0.12003 4e-3 0 9e-3 2.6e-4 0.0137 7.9e-4 3e-3 2.7e-4 5e-3 5.3e-4 7e-3 1e-3 0.0138 2e-3 0.0277 3e-3 0.0416 5e-3 0.42106 0.0513 0.91426 0.12246 1.4346 0.15989 0.30391 0.43777 0.63507 0.85107 1.084 1.1579 0.32631 0.22299 0.67717 0.40444 1.0423 0.55172" fill="#d6ece6"/>
  <path d="m14.401 17.782-2.4969-1.2479v-2.7703h-2.7926v2.7703l-2.4972 1.2479v5.7236h7.7867v-5.7236" fill="#f8c9a3"/>
  <path d="m11.004 19.285c9e-5 0 0.16278-0.14001 0.34815-0.30428 0.0734-0.06441 0.16446-0.10548 0.26163-0.11574 0.34806-0.03733 1.1816-0.13441 1.702-0.27629 0.0187-0.0056 0.0297-0.02427 0.0246-0.04294-5e-3 -0.01867-0.0244-0.02987-0.043-0.0252-0.51112 0.14001-1.3447 0.23802-1.6909 0.27442-0.11191 0.01213-0.21664 0.0588-0.30065 0.13348-0.0925 0.08214-0.1793 0.15774-0.24305 0.21281-0.0637 0.056-0.10417 0.09054-0.10436 0.09054-0.0146 0.01213-0.0163 0.03454-4e-3 0.04947 0.0126 0.014 0.0346 0.01587 0.0494 0.0037" fill="#e8bc95"/>
  <path d="m10.056 19.232c-9e-5 0-0.0405-0.03454-0.10426-0.09054-0.0638-0.05507-0.15056-0.13067-0.24305-0.21281-0.084-0.07467-0.18874-0.12134-0.30065-0.13348-0.34619-0.0364-1.1798-0.1344-1.6909-0.27441-0.0187-0.0047-0.0379 0.0065-0.043 0.0252-5e-3 0.01867 6e-3 0.03733 0.0245 0.04294 0.52046 0.14187 1.354 0.23894 1.702 0.27628 0.0972 0.01027 0.18826 0.05134 0.26163 0.11574 0.18537 0.16427 0.34806 0.30429 0.34815 0.30429 0.0147 0.01213 0.0368 0.01027 0.0494-0.0037 0.0126-0.01493 0.0109-0.03734-4e-3 -0.04947" fill="#e8bc95"/>
  <path d="m10.406 15.391c-0.14188 0-0.28329-0.01867-0.42162-0.06254-0.3111-0.09801-0.58197-0.28562-0.87365-0.42843v-0.60857c0.30372 0.14841 0.62276 0.28562 0.95421 0.40416 0.14252 0.05134 0.29224 0.07654 0.44196 0.07654 0.1498 0 0.29952-0.0252 0.44205-0.07654 0.33154-0.11854 0.65057-0.25575 0.95439-0.40416v0.66084c-0.17902 0.08214-0.35907 0.16054-0.54314 0.22961-0.30148 0.11201-0.62929 0.20908-0.9542 0.20908" fill="#f5b587"/>
  <path d="m1.8822 39.777s0.20908 1.5056 0.23503 1.7902c0.0259 0.28468 0.53857 1.3553 0.52858 1.6838-0.0101 0.32761-0.24595 0.54043-0.39567 0.47509-0.14971-0.06627-0.51691-1.1182-0.67531-1.4552-0.15839-0.33695-0.34722-1.7081-0.34722-1.7081l0.65459-0.78592" fill="#fddfc1"/>
  <path d="m2.3087 43.737c-6e-3 0-0.012 0-0.018-0.0011-0.0904-0.46296-0.34489-1.1957-0.34489-1.4206 0-0.17548-0.0269-0.81392-0.0477-1.2816 5e-3 -0.014 0.0107-0.02614 0.016-0.03827 0.0227-0.04947 0.0594-0.12321 0.10566-0.20908 0.0453 0.33976 0.0868 0.66271 0.0975 0.78032 0.0258 0.28188 0.52857 1.3348 0.52867 1.6736 0 0.0037 0 0.0065-1e-4 0.01027-9e-3 0.28749-0.19143 0.4863-0.33714 0.4863" fill="#f8bc8d"/>
  <path d="m1.8743 40.511s0.0715 1.5177 0.0715 1.8042c0 0.28561 0.41331 1.3992 0.37355 1.7249-0.0397 0.32575-0.29402 0.51617-0.43711 0.43683-0.143-0.0793-0.41321-1.1602-0.54043-1.5102-0.12713-0.34909-0.19069-1.7324-0.19069-1.7324l0.72319-0.72338" fill="#fddfc1"/>
  <path d="m1.9546 44.495c-0.026 0-0.0504-6e-3 -0.0723-0.0177-0.09-0.0504-0.23045-0.49657-0.35385-0.90819 0.0577-0.40883 0.098-1.1369 0.0916-1.2461-8e-3 -0.12881 0.15933-0.98473 0.27815-1.289 0.0208 0.46763 0.0477 1.1061 0.0477 1.2816 0 0.27255 0.37551 1.2965 0.37626 1.6736 9e-5 0.0187-8.4e-4 0.0355-3e-3 0.0513-0.0336 0.27535-0.22121 0.45457-0.36477 0.45457" fill="#fbd1aa"/>
  <path d="m1.3016 37.618s-0.26984 1.542-0.33341 2.1309c-0.0636 0.58804-0.0239 2.1692-0.0636 2.4156-0.0398 0.24641-0.0239 1.6138 0.0477 1.8444 0.0715 0.23055 0.45297 0.0392 0.5325-0.21468 0.0795-0.25481 0.14299-1.3357 0.13506-1.471-8e-3 -0.1344 0.17492-1.065 0.29411-1.3273 0.1192-0.26135 0.62789-1.1835 0.86628-1.0566 0.23848 0.12695 0.32585 0.77098 0.38148 1.0015 0.0557 0.23055 0.44513 0.65151 0.70741 0.54791 0.26229-0.10268 0.0636-0.58804-0.0636-1.0174-0.12722-0.42843-0.0795-0.76258-0.15112-1.3422-0.0715-0.58057-0.65561-1.5112-0.65561-1.5112s0.93106-3.5105 1.0531-4.6016c0.12209-1.0911-0.0635-2.8767-0.0635-2.8767s1.1299-5.3418 1.9995-7.8825l-1.2362-3.5478c-0.82437 0.43496-1.3346 1.5336-1.9379 3.1129-0.50898 1.3329-1.2646 5.6321-1.7496 7.988-0.0202 0.09801-0.0288 0.19601-0.0259 0.29589 0.0222 0.77658 0.12946 4.4205 0.26321 7.5119" fill="#f8c9a3"/>
  <path d="m3.998 41.249c-9e-5 -0.20534-0.11098-0.50309-0.19237-0.77845 0.0814 0.27535 0.19228 0.57311 0.19237 0.77845m-0.19237-0.77845c-0.1218-0.41069-0.0834-0.73364-0.14253-1.2694 0.0592 0.53577 0.0208 0.85872 0.14253 1.2694m-2.4183-12.287c0.2214-1.135 0.46753-2.4128 0.70863-3.5497-0.24109 1.1369-0.48723 2.4147-0.70863 3.5497m0.71031-3.5572c1e-3 -0.0047 2e-3 -0.0093 3e-3 -0.01493-1e-3 0.0056-2e-3 0.01027-3e-3 0.01493m3e-3 -0.01493c2e-3 -0.01027 4e-3 -0.02053 7e-3 -0.0308-2e-3 0.01027-4e-3 0.02053-7e-3 0.0308m0.0118-0.05507c1e-4 -9.3e-4 1e-4 -9.3e-4 1.9e-4 -9.3e-4 -9e-5 0-9e-5 0-1.9e-4 9.3e-4m9e-3 -0.04107c1e-4 -9.3e-4 1.9e-4 -9.3e-4 3.8e-4 -0.0019-1e-4 9.3e-4 -2.8e-4 0.0019-3.8e-4 0.0019m0.0434-0.20161c2.8e-4 -9.3e-4 4.6e-4 -0.0019 6.5e-4 -0.0028-1.9e-4 9.2e-4 -3.7e-4 0.0019-6.5e-4 0.0028m9e-3 -0.04294c1e-3 -0.0047 2e-3 -0.0093 3e-3 -0.014-1e-3 0.0047-2e-3 0.0093-3e-3 0.014m5e-3 -0.02147c5.6e-4 -0.0028 1e-3 -0.0047 2e-3 -0.0075-5.7e-4 0.0028-1e-3 0.0056-2e-3 0.0075m4e-3 -0.0168c0-9.3e-4 9e-5 -9.3e-4 9e-5 -9.3e-4s-9e-5 0-9e-5 9.3e-4m0.0115-0.0532c9e-5 0 1.9e-4 -9.3e-4 2.8e-4 -9.3e-4 -9e-5 0-1.9e-4 0-2.8e-4 9.3e-4m0.60456-2.3158c9e-5 -9.2e-4 9e-5 -9.2e-4 9e-5 -9.2e-4l-9e-5 9.2e-4m7e-3 -0.0196h9e-5 -9e-5m1e-3 -0.0037c8.5e-4 -0.0019 2e-3 -0.0037 3e-3 -0.0065-8.5e-4 0.0028-2e-3 0.0047-3e-3 0.0065m3e-3 -0.0084c2.9e-4 0 5.6e-4 -9.2e-4 7.4e-4 -0.0019-1.8e-4 9.3e-4 -4.7e-4 0.0019-7.4e-4 0.0019m1e-3 -0.0028c2.9e-4 -9.2e-4 6.6e-4 -0.0019 9.3e-4 -0.0028-2.9e-4 9.3e-4 -6.7e-4 0.0019-9.3e-4 0.0028m1e-3 -0.0037c4.8e-4 -9.2e-4 9.3e-4 -0.0028 1e-3 -0.0037-4.8e-4 9.3e-4 -8.5e-4 0.0028-1e-3 0.0037" fill="#fce3ce"/>
  <path d="m3.7827 41.504h-0.0128c-0.27264-1.2675-0.79777-2.4698-1.1389-3.7233-0.22196-0.81485-0.35413-1.6577-0.28254-2.5043 0.0833-0.98286 0.30643-1.9648 0.4597-2.9402 0.16894-1.0734 0.31791-2.1505 0.40444-3.2351 2e-3 -0.01961-0.0153-0.0392-0.0336-0.04387-0.65496-0.16615-1.2184-0.5311-1.7916-0.87366 0.2214-1.135 0.46753-2.4128 0.70863-3.5497 5.6e-4 -0.0019 1e-3 -0.0047 2e-3 -0.0075 1e-3 -0.0047 2e-3 -0.0093 3e-3 -0.01493h9e-5c2e-3 -0.01027 4e-3 -0.02053 7e-3 -0.0308 2e-3 -0.0084 3e-3 -0.0168 5e-3 -0.02427 1e-4 -9.2e-4 1e-4 -9.2e-4 1.9e-4 -9.2e-4 3e-3 -0.014 6e-3 -0.02707 8e-3 -0.04013 1e-4 0 2.8e-4 -9.3e-4 3.8e-4 -0.0019 0.0144-0.0672 0.0288-0.13441 0.043-0.19975 2.8e-4 -9.2e-4 4.6e-4 -0.0019 6.5e-4 -0.0028 3e-3 -0.014 6e-3 -0.02707 9e-3 -0.04013 1e-3 -0.0047 2e-3 -0.0093 3e-3 -0.014 4.7e-4 -0.0028 1e-3 -0.0047 1e-3 -0.0075 5.6e-4 -0.0019 1e-3 -0.0047 2e-3 -0.0075 6.6e-4 -0.0028 1e-3 -0.0065 2e-3 -0.0093 0-9.2e-4 9e-5 -9.2e-4 9e-5 -9.2e-4 4e-3 -0.01773 8e-3 -0.03454 0.0114-0.05227 9e-5 -9.3e-4 1.9e-4 -9.3e-4 2.8e-4 -9.3e-4 0.21617-0.98846 0.42497-1.8294 0.60428-2.3148l9e-5 -9.2e-4c2e-3 -0.0065 5e-3 -0.01213 7e-3 -0.01867h9e-5c3.7e-4 -0.0019 6.6e-4 -0.0019 1e-3 -0.0037 8.5e-4 -0.0019 2e-3 -0.0037 3e-3 -0.0065 1.9e-4 0 4.8e-4 -9.3e-4 6.6e-4 -0.0019 3e-4 0 5.6e-4 -9.3e-4 7.5e-4 -0.0019 2.9e-4 0 3.7e-4 -9.3e-4 5.5e-4 -9.3e-4 2.9e-4 -9.3e-4 6.6e-4 -0.0019 9.3e-4 -0.0028 9e-5 0 2.9e-4 -9.3e-4 4.7e-4 -9.3e-4 4.8e-4 -9.2e-4 8.5e-4 -0.0028 1e-3 -0.0037 0.60334-1.5793 1.1136-2.6779 1.9379-3.1129l1.2362 3.5478c-0.86964 2.5407-1.9995 7.8825-1.9995 7.8825s0.10491 1.0099 0.105 1.9751c1e-4 0.31828-0.0113 0.63097-0.0415 0.90165-0.12209 1.0911-1.0532 4.6016-1.0532 4.6016s0.58412 0.93059 0.65561 1.5112c3e-3 0.02426 6e-3 0.04854 9e-3 0.07281 0.0592 0.53576 0.0207 0.85872 0.14253 1.2694 0.0814 0.27535 0.19228 0.57311 0.19237 0.77845 9e-5 0.10454-0.0281 0.18481-0.10286 0.22682-8e-3 0.0047-0.0167 0.0093-0.0259 0.01214-0.0276 0.01119-0.0567 0.01588-0.0865 0.01588" fill="#f5b587"/>
  <path d="m15.254 8.7721s0.4989-1.1331 1.259-1.0071c0.83174 0.13721 0.89279 1.1901 0.43496 2.1739-0.45783 0.98473-1.1141 1.2442-1.6939 0.89325v-2.06" fill="#f8c9a3"/>
  <path d="m17.006 8.6508c-2e-3 -0.0056-0.0397-0.11948-0.1276-0.23895-0.0441-0.05974-0.10127-0.12134-0.17557-0.16988-0.0738-0.04854-0.16633-0.08214-0.27199-0.08214-0.0952 0-0.1989 0.02707-0.30857 0.08587-0.18229 0.09894-0.31446 0.26975-0.4149 0.46203-0.15027 0.29029-0.23148 0.63844-0.27759 0.91659-0.0458 0.27722-0.0553 0.4835-0.0554 0.4863-2e-3 0.05134 0.0375 0.0952 0.089 0.09707 0.0515 0.0028 0.0951-0.03733 0.0975-0.08867 0 0 1.9e-4 -0.0047 7.4e-4 -0.01493 4e-3 -0.07654 0.0305-0.43496 0.12723-0.80739 0.0482-0.18668 0.11415-0.37615 0.20133-0.53483 0.0871-0.15868 0.19461-0.28375 0.32052-0.35095 0.088-0.0476 0.16008-0.06441 0.2201-0.06441 0.0666 9.3e-4 0.12097 0.02053 0.17053 0.05227 0.074 0.0476 0.13347 0.12508 0.17193 0.19322 0.0194 0.0336 0.0337 0.06347 0.0428 0.08587 5e-3 0.01027 8e-3 0.01867 0.0101 0.02427l2e-3 0.0065 3.7e-4 9.2e-4 9e-3 -0.0028-9e-3 0.0028 9e-3 -0.0028-9e-3 0.0028c0.0163 0.04947 0.0692 0.0756 0.11807 0.0588 0.0489-0.01587 0.0754-0.06907 0.0591-0.1176" fill="#1d3137"/>
  <path d="m16.239 7.7725c0.0502-0.0112 0.10193-0.01774 0.15513-0.01774-0.0532 0-0.10491 0.0065-0.15513 0.01774m0.15662-0.01774h-1.8e-4 1.8e-4" fill="#0f0e0e"/>
  <path d="m15.751 10.98c-0.0972 0-0.19433-0.0168-0.29038-0.04947 0.13655-0.53203 0.30597-1.2797 0.47099-2.2392 0.0449-0.07094 0.0945-0.13347 0.14831-0.18481-4e-3 0.01587-8e-3 0.03173-0.0116 0.0476-0.0595 0.29215-0.0434 0.60671-0.0752 0.90259-0.0359 0.33416-0.12928 0.65711-0.16092 0.99033-0.0154 0.16334-0.012 0.34815 0.0201 0.52643-0.0338 0.0037-0.0675 0.0065-0.10127 0.0065m0.23997-2.6434c0.0123-0.07654 0.0246-0.15494 0.037-0.23335 0.0642-0.0868 0.13842-0.19694 0.21094-0.33042 0.0502-0.0112 0.10193-0.01773 0.15513-0.01773h1e-3 1.9e-4c0.0384 0 0.0776 0.0037 0.11733 0.01027 0.033 0.0047 0.0627 0.014 0.0932 0.0224-0.10295 0.14094-0.23829 0.26415-0.34909 0.40043-0.0438 0.014-0.0889 0.0336-0.13487 0.05787-0.047 0.02614-0.0905 0.056-0.13114 0.09054" fill="#f5b587"/>
  <path d="m15.931 8.6909c0.0199-0.1148 0.0397-0.23334 0.0594-0.35469 0.0406-0.03454 0.0842-0.0644 0.13114-0.09054 0.046-0.02427 0.0911-0.04387 0.13488-0.05787-0.0776 0.09614-0.14309 0.19882-0.17707 0.31829-0.0538 0.05134-0.10342 0.11387-0.14831 0.18481" fill="#1b2c2f"/>
  <path d="m5.7609 8.7721s-0.4989-1.1331-1.259-1.0071c-0.83165 0.13721-0.89279 1.1901-0.43496 2.1739 0.45782 0.98473 1.1141 1.2442 1.694 0.89325v-2.06" fill="#f8c9a3"/>
  <path d="m4.186 8.7096h9e-5c2e-3 -0.0075 0.0381-0.10641 0.10725-0.19601 0.0344-0.04574 0.0766-0.08774 0.12479-0.11761 0.0484-0.0308 0.10146-0.04947 0.16586-0.04947 0.06 0 0.13217 0.0168 0.22019 0.0644 0.13422 0.07094 0.24772 0.20908 0.33761 0.38363 0.13534 0.25948 0.21533 0.59364 0.25911 0.85965 0.0221 0.13347 0.0354 0.25015 0.0432 0.33415 4e-3 0.04107 6e-3 0.07374 8e-3 0.09707 8.5e-4 0.0112 1e-3 0.0196 2e-3 0.0252l4.8e-4 0.0084c2e-3 0.05134 0.046 0.09147 0.0974 0.08867 0.0515-0.0019 0.0914-0.04574 0.0891-0.09707-2.9e-4 -0.0037-0.0167-0.36962-0.11444-0.78311-0.0491-0.20628-0.11816-0.42563-0.2186-0.61977-0.10043-0.19228-0.2325-0.36309-0.41479-0.46203-0.10977-0.0588-0.21347-0.08587-0.30868-0.08587-0.10556 0-0.19806 0.0336-0.27199 0.08214-0.11126 0.07281-0.18444 0.17454-0.23222 0.25668-0.0476 0.08307-0.0695 0.14841-0.0708 0.15214-0.0163 0.04854 0.0101 0.10174 0.059 0.11761 0.0489 0.0168 0.10174-0.0093 0.11808-0.0588" fill="#1d3137"/>
  <path d="m4.4983 7.765h4e-3 -4e-3" fill="#0f0e0e"/>
  <path d="m5.2617 10.979h-7.4e-4c-0.13339-0.46483-0.21357-0.94833-0.27694-1.4244-0.0442-0.33229-0.0731-0.70284-0.23111-1.0043-0.0384-0.07374-0.089-0.13814-0.14094-0.20161 0.0541 0.0037 0.11742 0.0224 0.19228 0.06254 0.1065 0.05694 0.19993 0.15494 0.2789 0.28002 0.16502 0.95952 0.33443 1.7072 0.47099 2.2383-0.0967 0.0336-0.19462 0.04947-0.29244 0.04947m-0.27423-2.6714c-0.03-0.0224-0.0615-0.04294-0.0947-0.0616-0.10958-0.0588-0.21319-0.08587-0.3083-0.08587h-3.7e-4 -1e-3c-0.0375 0-0.0734 0.0047-0.10725 0.01213-0.0216-0.03173-0.0411-0.06534-0.0576-0.10081-0.0386-0.08307-0.0655-0.17081-0.0939-0.25668 0.0541-0.02147 0.11117-0.03827 0.17408-0.04947h4e-3c0.0319-0.0056 0.0632-0.0084 0.0942-0.0093 0.16558 0.30895 0.34264 0.50123 0.39137 0.55164" fill="#f5b587"/>
  <path d="m5.0831 8.6909c-0.079-0.12507-0.1724-0.22308-0.2789-0.28001-0.0749-0.04014-0.13814-0.0588-0.19228-0.06254-0.047-0.05787-0.0951-0.11481-0.13618-0.17641 0.0339-0.0075 0.0697-0.01213 0.10725-0.01213h1e-3 3.7e-4c0.0951 0 0.19872 0.02706 0.3083 0.08587 0.0332 0.01867 0.0648 0.03919 0.0947 0.0616 8e-3 0.00839 0.0131 0.01306 0.0131 0.01306 9e-5 0 1.9e-4 0 2.9e-4 -9.2e-4 0.0111 0.07 0.0223 0.13814 0.0335 0.20628 7e-3 -0.0037 0.0125-0.0084 0.0187-0.01213 0.0101 0.05974 0.0201 0.11948 0.0301 0.17734" fill="#1b2c2f"/>
  <path d="m10.949 14.695c-0.28515 0.10174-0.59886 0.10174-0.88401 0-1.6337-0.58524-2.9632-1.612-3.665-2.242-0.37615-0.33788-0.64516-0.77564-0.7776-1.2638-0.23064-0.84938-0.59784-2.4464-0.86134-4.7734 0-3.1735 2.5726-5.746 5.7459-5.746 3.1733 0 5.7459 2.5724 5.7459 5.746-0.26349 2.327-0.63078 3.924-0.86143 4.7734-0.13244 0.48817-0.40135 0.92593-0.77751 1.2638-0.70182 0.63004-2.0312 1.6568-3.6649 2.242" fill="#f8c9a3"/>
  <path d="m12.59 6.7308-0.0207-0.01867 0.0205 0.01867h1.9e-4l-0.0207-0.01867 0.0205 0.01867c2e-3 -0.0019 0.0935-0.09894 0.25445-0.19508 0.16119-0.0952 0.38987-0.18854 0.66924-0.18854 0.28394 9.2e-4 0.62378 0.09427 1.0113 0.39389 0.0407 0.03173 0.0994 0.02427 0.13095-0.01587 0.0316-0.04107 0.0241-0.09987-0.0167-0.13161-0.41377-0.32109-0.79888-0.43309-1.1256-0.43309s-0.59131 0.11107-0.77322 0.22028c-0.18211 0.11014-0.28329 0.21934-0.28749 0.22401-0.035 0.03734-0.0326 0.09614 5e-3 0.13161 0.038 0.03454 0.097 0.03267 0.13198-0.0056" fill="#1d3137"/>
  <path d="m8.5616 6.6048c-4e-3 -0.0047-0.10538-0.11387-0.28758-0.22401-0.18192-0.10921-0.44644-0.22028-0.77322-0.22028-0.32669 0-0.7118 0.112-1.1256 0.43309-0.0407 0.03173-0.0482 0.09054-0.0166 0.13161 0.0315 0.04013 0.0902 0.0476 0.13096 0.01587 0.38745-0.29962 0.72739-0.39296 1.0112-0.39389 0.28385 0 0.51533 0.09614 0.67689 0.19321 0.0806 0.04854 0.14337 0.09707 0.18547 0.13348 0.021 0.01774 0.0369 0.03267 0.0471 0.04294l0.0113 0.0112 2e-3 0.0028h4.8e-4l0.0204-0.01867-0.0204 0.01867h9e-5l0.0204-0.01867-0.0204 0.01867c0.0349 0.03827 0.094 0.04013 0.13188 0.0056 0.0379-0.03547 0.0402-0.09427 5e-3 -0.13161" fill="#1d3137"/>
  <path d="m15.392 9.9986c0 0.43029-0.34862 0.77844-0.77864 0.77844-0.43001 0-0.77863-0.34815-0.77863-0.77844 0-0.4303 0.34862-0.77846 0.77863-0.77846 0.43002 0 0.77864 0.34816 0.77864 0.77846" fill="#eaada9"/>
  <path d="m14.071 8.1748c0 0.45083-0.23241 0.81672-0.51906 0.81672-0.28673 0-0.51915-0.36589-0.51915-0.81672s0.23242-0.81672 0.51915-0.81672c0.28665 0 0.51906 0.36589 0.51906 0.81672" fill="#1d3137"/>
  <path d="m13.864 7.8173 0.48835-0.41163c0.0197-0.0168 0.0222-0.04667 6e-3 -0.06627-0.0166-0.0196-0.0461-0.0224-0.0658-0.0056l-0.48835 0.41256c-0.0197 0.01587-0.0222 0.04574-6e-3 0.06534 0.0166 0.0196 0.046 0.0224 0.0657 0.0056" fill="#1d3137"/>
  <path d="m5.623 9.9986c0 0.43029 0.34862 0.77844 0.77873 0.77844 0.43001 0 0.77863-0.34815 0.77863-0.77844 0-0.4303-0.34862-0.77846-0.77863-0.77846-0.43011 0-0.77873 0.34816-0.77873 0.77846" fill="#eaada9"/>
 </g>
 <g fill="#1d3137" stroke-width=".26458">
  <path d="m6.9435 8.1748c0 0.45083 0.23242 0.81672 0.51916 0.81672 0.28664 0 0.51906-0.36589 0.51906-0.81672s-0.23242-0.81672-0.51906-0.81672c-0.28674 0-0.51916 0.36589-0.51916 0.81672"/>
  <path d="m6.6618 7.4056 0.48835 0.41163c0.0198 0.0168 0.0492 0.014 0.0658-0.0056s0.0142-0.04947-6e-3 -0.06534l-0.48835-0.41256c-0.0197-0.0168-0.0491-0.014-0.0657 0.0056s-0.0142 0.04947 5e-3 0.06627"/>
  <path d="m8.8908 11.502c4e-3 0.0037 0.16549 0.13534 0.447 0.26695 0.28142 0.13161 0.68399 0.26228 1.1696 0.26321 0.48555-9.2e-4 0.88812-0.13161 1.1695-0.26321 0.28151-0.13161 0.44242-0.26322 0.4469-0.26695 0.0399-0.03267 0.0457-0.09054 0.0131-0.13068-0.0327-0.04014-0.0915-0.04574-0.13133-0.01307l-9.2e-4 9.3e-4c-0.0141 0.0112-0.17007 0.13347-0.4316 0.25202-0.26173 0.11854-0.62827 0.23428-1.0656 0.23428-0.45149 0-0.82755-0.12321-1.0906-0.24549-0.13152-0.06159-0.23448-0.1232-0.30411-0.16893-0.0348-0.0224-0.0612-0.04107-0.0787-0.05414-9e-3 -0.0065-0.0153-0.0112-0.0194-0.01493l-4e-3 -0.0028-9.2e-4 -9.3e-4c-0.04-0.03267-0.0987-0.02707-0.13142 0.01307-0.0327 0.04013-0.0268 0.09801 0.0131 0.13067"/>
  <path d="m10.415 7.7828 0.43879 2.5118h-0.34685c-0.0515 0-0.0933 0.042-0.0933 0.09334 0 0.05227 0.0418 0.09334 0.0933 0.09334h0.45782c0.0277 0 0.0537-0.01213 0.0715-0.03267 0.0178-0.02147 0.0253-0.04947 0.0205-0.07654l-0.45783-2.6219c-9e-3 -0.0504-0.0573-0.084-0.10809-0.0756-0.0508 0.0093-0.0847 0.05694-0.0759 0.10827"/>
 </g>
 <g stroke-width=".26458">
  <path d="m15.321 32.283h-1.2047l2.4655 4.9544c-0.22402-1.289-0.22765-1.3114-0.61221-2.7488-0.20507-0.76632-0.42274-1.5018-0.64852-2.2056" fill="#408a93"/>
  <path d="m5.7001 32.283h1.1765l-2.4417 4.9544c0.22411-1.289 0.20395-1.3114 0.58841-2.7488 0.20507-0.76632 0.45092-1.5018 0.67671-2.2056" fill="#408a93"/>
  <path d="m5.0238 8.3353c-7e-3 -0.0056-0.0138-0.0112-0.0209-0.0168 6e-3 -0.0028 0.0113-0.0056 0.0168-0.0084 1e-3 0.0084 3e-3 0.0168 4e-3 0.0252" fill="#f4a473"/>
  <path d="m5.0343 8.5257c-0.0112-0.06814-0.0224-0.13627-0.0335-0.20628 7.4e-4 0 1e-3 0 2e-3 -9.2e-4 7e-3 0.0056 0.014 0.0112 0.0209 0.0168 0.01 0.06067 0.0194 0.11947 0.0291 0.17828-6e-3 0.0037-0.012 0.0084-0.0187 0.01213" fill="#1a2827"/>
  <path d="m5.053 8.5136c-0.01-0.0588-0.0194-0.11761-0.0291-0.17828-1e-3 -0.0084-3e-3 -0.0168-4e-3 -0.0252 1.1904-0.59457 0.86777-2.48 2.1188-2.705 1.2578-0.22588 1.2273-1.3273 1.4985-1.9601 0.14822-0.34535 0.4722-0.47696 0.76864-0.47696 0.24549 0 0.4722 0.09054 0.56442 0.22308 0.20339 0.29402 0.45167 0.40696 0.45167 0.40696s0.24875-0.11294 0.45223-0.40696c0.0922-0.13254 0.31885-0.22308 0.56442-0.22308 0.29636 0 0.62033 0.13161 0.76865 0.47696 0.27106 0.63284 0.24063 1.7342 1.4984 1.9601 1.2576 0.22588 0.92509 2.13 2.1378 2.7143-3e-3 0.01959-6e-3 0.03919-9e-3 0.0588h-2e-3c-0.0809 0.02053-0.15709 0.0308-0.22896 0.0308-0.51747 0-0.8114-0.5059-1.0437-0.95113-0.1261-0.24082-0.24324-0.49003-0.39958-0.71405-0.1065-0.15307-0.22971-0.26694-0.37196-0.36682 0.22084 0.04667 0.46763 0.15588 0.73757 0.36402 0.017 0.014 0.037 0.0196 0.057 0.0196 0.0279 0 0.0555-0.01213 0.0739-0.03547 0.0316-0.04107 0.0241-0.09987-0.0167-0.13161-0.41302-0.32015-0.79748-0.43309-1.1238-0.43309h-2e-3c-0.0268 0-0.0531 9.3e-4 -0.0791 0.0019-0.27488-0.15028-0.5577-0.28842-0.79273-0.5003-0.25752-0.23148-0.39081-0.4975-0.51131-0.81392-0.12134-0.31735-0.29318-1.0603-0.73766-1.0603h-0.0134c-0.26564 0.0093-0.45045 0.26135-0.66345 0.38456-0.0735 0.042-0.14188 0.05974-0.20637 0.05974-0.23541 0-0.41984-0.23615-0.6209-0.38176-0.0982-0.07094-0.2144-0.13254-0.3292-0.13254-0.0654 0-0.13031 0.0196-0.19116 0.07-0.17809 0.14654-0.23849 0.44243-0.29682 0.65151-0.0929 0.33228-0.1976 0.61044-0.43664 0.87272-0.24772 0.27255-0.56648 0.45736-0.87375 0.65337-0.10034 0.06347-0.1976 0.12694-0.28954 0.19508-0.32043 0.0065-0.6949 0.12134-1.0965 0.43309-0.0407 0.03173-0.0482 0.09054-0.0166 0.13161 0.0184 0.02333 0.046 0.03547 0.0738 0.03547 0.02 0 0.0401-0.0056 0.0571-0.0196 0.26723-0.20628 0.51178-0.31548 0.73094-0.36309-0.0623 0.06441-0.12013 0.13534-0.17221 0.21375-0.18799 0.28562-0.30233 0.61137-0.48789 0.89792-0.35739 0.55164-0.95364 0.71591-1.4968 1.0174-4e-3 0.0019-7e-3 0.0047-0.0106 0.0065" fill="#f5b587"/>
  <path d="m14.582 6.7607c-0.02 0-0.04-0.0056-0.057-0.0196-0.26994-0.20814-0.51673-0.31735-0.73757-0.36402-0.0636-0.04574-0.13114-0.08774-0.20254-0.12974-0.0497-0.02893-0.0998-0.05694-0.15028-0.08494 0.0259-9.3e-4 0.0523-0.0019 0.0791-0.0019h2e-3c0.32631 0 0.71078 0.11294 1.1238 0.43309 0.0408 0.03173 0.0483 0.09054 0.0167 0.13161-0.0184 0.02333-0.046 0.03547-0.0739 0.03547" fill="#1b2c2f"/>
  <path d="m6.4324 6.7607c-0.0278 0-0.0554-0.01213-0.0738-0.03547-0.0316-0.04107-0.0241-0.09987 0.0166-0.13161 0.40164-0.31175 0.77612-0.42656 1.0966-0.43309-0.0894 0.06627-0.17389 0.13721-0.25127 0.21748-0.21916 0.0476-0.46371 0.15681-0.73094 0.36309-0.017 0.014-0.0372 0.0196-0.0571 0.0196" fill="#1b2c2f"/>
  <path d="m10.422 1.3e-4c3.3953 0 6.1478 3.0905 6.1478 6.4861 0 1.1369-0.72637 1.8341-0.72637 1.8341-1.213-0.58524-0.88037-2.4894-2.1381-2.7152-1.2577-0.22588-1.2273-1.3273-1.4984-1.9601-0.27115-0.6319-1.1296-0.5479-1.3331-0.25388s-0.45222 0.40696-0.45222 0.40696-0.24829-0.11294-0.45167-0.40696c-0.20348-0.29402-1.062-0.37802-1.3331 0.25388-0.27115 0.63284-0.24072 1.7342-1.4985 1.9601-1.2577 0.22588-0.92499 2.13-2.138 2.7152 0 0-0.72646-0.69724-0.72646-1.8341 0-3.3957 2.7528-6.4861 6.1481-6.4861" fill="#181819"/>
  <path d="m14.117 0.6955c-0.0804-0.06347-0.1682-0.126-0.26471-0.18761-0.0253-0.0364-0.0567-0.0672-0.0944-0.09241-8e-3 -0.0065-2e-3 -0.01867 6e-3 -0.02147 0.0231-0.0093 0.0455-0.01307 0.0671-0.01307 0.1346 0 0.23634 0.15775 0.28618 0.31456" fill="#fff"/>
  <path d="m13.938 1.2154c-0.0776-0.0588-0.15681-0.11574-0.23689-0.17081 0.0111 9.4e-4 0.0217 0.0019 0.032 0.0019 0.15448 0 0.20899-0.15121 0.16344-0.45269-0.0117-0.03173-0.0264-0.05974-0.0442-0.08587 0.0965 0.0616 0.18435 0.12414 0.26471 0.18761 0.0263 0.08214 0.0382 0.16521 0.0329 0.22401-0.0158 0.17642-0.1065 0.19975-0.21198 0.29589" fill="#232425"/>
  <path d="m13.019 3.2194c-0.0207 0-0.0422-9.2e-4 -0.0642-0.0028-0.13935-0.014-0.11938-0.19974 7e-3 -0.19974 6e-3 0 0.013 9.3e-4 0.0199 0.0019 0.0396 0.0056 0.0752 0.0084 0.10744 0.0084 0.57431 0 0.0483-0.85499 0.18322-1.0762 0.16577-0.27162 0.24296 0.15121 0.24688-0.5115 7.4e-4 -0.12321-0.10164-0.24268 0.0123-0.35189 0.0319-0.02987 0.0936-0.02893 0.12303-0.05227 0.0163 0.0037 0.0318 0.0075 0.0466 0.0093 0.0801 0.05507 0.15933 0.11201 0.2369 0.17081-4.8e-4 9.4e-4 -1e-3 9.4e-4 -1e-3 0.0019-0.03 0.02707-0.0567 0.0364-0.0802 0.0364-0.0252 0-0.0467-0.01027-0.0644-0.02147-0.0178-0.01027-0.0318-0.02147-0.042-0.02147-0.0223 0-0.0266 0.05134-0.0124 0.26322 4e-3 0.05694 0.0529 0.11014 0.0524 0.16988-1e-3 0.14934-0.0153 0.23708-0.12433 0.34815-0.0293 0.02987-0.10836 0.02333-0.13095 0.04853-0.13021 0.14188-0.0226 0.23242 6e-3 0.40323 0.0637 0.37989-0.1149 0.77564-0.52158 0.77564" fill="#232425"/>
  <path d="m6.6132 0.78978c5e-3 -0.01774 0.01-0.0364 0.0156-0.05507 0.0207-0.06907 0.076-0.09801 0.1318-0.09801 0.0127 0 0.0254 9.3e-4 0.0378 0.0047-0.0665 0.04854-0.12797 0.09894-0.18519 0.14841" fill="#fff"/>
  <path d="m6.6724 1.4021c-0.0894-0.19228-0.11835-0.37802-0.0592-0.6123 0.0572-0.04947 0.11872-0.09987 0.18518-0.14841 0.0703 0.0168 0.12853 0.07934 0.10043 0.16707-0.0514 0.16148-0.0433 0.29496-5e-3 0.4163-0.0752 0.05787-0.14916 0.11667-0.22187 0.17734" fill="#232425"/>
  <path d="m8.0607 3.1718c-0.10146 0-0.19368-0.0532-0.27544-0.15494-0.0983-0.12134-0.0898-0.25295-0.143-0.39202-0.0905-0.23615-0.20721-0.21935-0.38372-0.33323-0.24081-0.15587-0.3138-0.43402-0.46203-0.66737-0.0488-0.07654-0.0907-0.14934-0.12414-0.22215 0.0727-0.06067 0.14664-0.11947 0.22187-0.17734 0.055 0.17361 0.17156 0.32482 0.26695 0.5059 0.0439 0.084 0.0833 0.23521 0.16325 0.29401 0.0685 0.04947 0.1093 0.05694 0.1444 0.05694h0.0221c7e-3 -9.3e-4 0.0144-9.3e-4 0.0218-9.3e-4 0.0236 0 0.049 0.0037 0.0834 0.02147 0.36244 0.19415 0.15429 0.96139 0.62621 0.97633 0.0229 9.2e-4 0.034 0.0336 0.0121 0.0448-0.0606 0.03267-0.11864 0.04854-0.1738 0.04854" fill="#232425"/>
  <path d="m12.915 16.965 4.116 1.5513 4.3566 8.0225c-1.4601 0.6123-2.3299 0.86712-5.3896 1.6269-0.33546-0.50683-0.76052-3.237-1.2141-6.123-0.0582 0.09987 1.7581 12.063 1.601 12.324l-8e-3 1.9844c-4.4279-0.03173-4.0974 0.12228-11.688-0.04107l-8e-3 -1.7296c-0.15699-0.25575 1.6572-12.446 1.6006-12.538-0.46091 2.8748-0.85312 5.5836-1.2256 6.123-3.4022-0.79245-5.0557-1.2554-5.0557-1.2554s0.5227-1.43 1.3016-3.265c0.58738-1.1798 2.3847-4.7538 3.2782-5.3474l3.5705-1.3329 2.382 3.7392 2.3817-3.7392" color="152b42" fill="#152b42" name="chaqueta"/>
 </g>
 <g fill="#408a93" stroke-width=".26458">
  <path d="m5.3031 27.546-5.0591-1.2862 0.0542-0.1372 5.0454 1.2787-0.0405 0.14468" color="408a93" name="vivo"/>
  <path d="m15.802 27.683 5.3226-1.5933-0.0558-0.10267-5.3049 1.556 0.0382 0.14001" color="408a93" name="vivos"/>
  <path d="m12.939 16.965-0.35889-0.14001-1.9787 3.3882 0.1864 0.30429 2.1174-3.4993" color="408a93" name="vivos"/>
  <path d="m8.1749 16.965 0.35824-0.1232 2.397 3.9081-0.29962 0.21188-2.4556-3.9968" color="408a93" name="vivo"/>
 </g>
 <path d="m9.115 34.028h-3.1853v-3.742h3.1853v3.742" fill="#192a48" stroke-width=".26458"/>
 <path d="m14.946 34.028h-3.1853v-3.742h3.1853v3.742" fill="#192a48" stroke-width=".26458"/>
 <g fill="#408a93" stroke-width=".26458">
  <path d="m9.115 30.953h-3.1853v-0.10454h3.1853v0.10454" color="408a93" name="vivos"/>
  <path d="m14.946 30.953h-3.1853v-0.10454h3.1853v0.10454" color="408a93" name="vivos"/>
  <path d="m13.984 22.038h-2.4939v-0.19228h2.4939v0.19228" name="vivos"/>
 </g>
 <path d="m13.984 24.336v-0.03547h-2.4589v-2.859h2.4239v2.8944h0.035v-0.03547 0.03547h0.035v-2.9644h-2.5639v2.999h2.5639v-0.03454h-0.035" fill="#171717" stroke-width=".26458"/>
 <path d="m13.984 21.846v-0.03454h-2.4589v-0.37056h2.4239v0.40509h0.035v-0.03454 0.03454h0.035v-0.47509h-2.5639v0.51056h2.5639v-0.03547h-0.035" fill="#171717" stroke-width=".26458"/>
</svg>
