<?xml version="1.0" encoding="UTF-8" standalone="no"?>
<!-- Created with Inkscape (http://www.inkscape.org/) -->

<svg
   width="74.99971mm"
   height="258.5141mm"
   viewBox="0 0 74.99971 258.5141"
   version="1.1"
   id="svg25455"
   xml:space="preserve"
   xmlns="http://www.w3.org/2000/svg"
   xmlns:svg="http://www.w3.org/2000/svg"><g
     id="layer1"
     transform="translate(-74.504381,-20.501413)"><g
       id="g43415"
       transform="matrix(0.26458333,0,0,0.26458333,74.504389,20.501394)"><title
         id="title43361">Layer 1</title><path
         stroke-width="0.1"
         fill-rule="nonzero"
         fill="#ffffff"
         id="path119"
         d="m 104.95333,40.54006 c -5.82,0 -8.372,-5.65333 -7.44533,-11.076 0.44267,-2.59733 1.95867,-3.8 0.08667,-5.768 -0.36933,-0.388 -1.55333,-0.292 -2.00933,-0.79067 -1.45067,-1.58533 -1.62933,-2.84533 -1.63867,-4.87733 -0.004,-0.852 0.696,-1.62533 0.748,-2.42133 0.2,-3.09067 -0.052,-3.44267 -0.812,-3.44267 -0.11333,0 -0.236,0.008 -0.37067,0.016 -0.13467,0.008 -0.28133,0.01467 -0.43867,0.01467 -0.528,0 -1.18667,-0.08667 -1.98,-0.55333 -1.44267,-0.848 -2.11333,-2.324 -2.29067,-3.96 -0.26133,-2.4 1.644,-7.68133 4.57467,-7.68133 0.304,0 0.61867,0.056 0.94133,0.17867 0.11867,0.044 0.204,0.216 0.084,0.31333 -0.916,0.616 -1.576,1.46 -1.98,2.536 -0.65067,4.312 0.128,6.468 2.33467,6.468 0.34,0 0.71467,-0.05067 1.124,-0.15333 0.492,0.392 1.35067,0.26667 1.89067,0.85467 1.46133,1.588 0.03067,3.23067 0.04133,4.92 0.032,5.36133 0.60267,5.9 1.38133,5.9 0.09867,0 0.2,-0.008 0.30267,-0.01733 0.104,-0.008 0.21067,-0.016 0.32,-0.016 0.58133,0 1.22,0.24533 1.81333,2.05867 0.97333,2.97467 -5.604,14.74267 2.37733,14.74267 0.448,0 0.94133,-0.036 1.484,-0.11467 0.10133,-0.01333 0.19867,-0.02133 0.29067,-0.02133 1.82267,0 2.052,2.656 0.092,2.84533 -0.316,0.03067 -0.62267,0.04533 -0.92133,0.04533" /><path
         stroke-width="0.1"
         fill-rule="nonzero"
         fill="#ffffff"
         id="path121"
         d="m 175.76,39.8534 c -0.78267,0 -1.60267,-0.22267 -2.45867,-0.68133 -0.31333,-0.168 -0.15467,-0.63067 0.17333,-0.64133 6.51867,-0.212 3.91333,-11.18667 8.94533,-13.944 1.12133,-0.61467 2.82933,-0.32133 3.88,-1.11333 1.23067,-0.928 1.95333,-3.552 2.65733,-4.912 2.27333,-4.392 5.22267,-6.80667 3.424,-12.45467 -0.47333,-1.484 0.75867,-2.46 1.972,-2.46 0.79867,0 1.58933,0.42 1.884,1.396 1.66267,5.48267 -0.0267,8.78933 -2.84667,13.39733 -1.956,3.196 -2.89067,6.72667 -6.14933,8.84933 -2.492,1.624 -4.276,1.53867 -5.48,4.76133 -0.76933,2.05333 -0.65467,4.004 -2.15067,5.73733 -1.164,1.35067 -2.448,2.06533 -3.85067,2.06533" /><path
         stroke-width="0.1"
         fill-rule="nonzero"
         fill="#fddfc1"
         id="path755"
         d="m 18.37067,573.24803 c 0,0 1.02133,21.68 1.02133,25.77333 0,4.09333 5.904,19.98667 5.336,24.64 -0.56667,4.65333 -4.2,7.37333 -6.244,6.24 -2.044,-1.13333 -5.904,-16.57333 -7.72,-21.57333 -1.816,-4.98667 -2.72533,-24.74667 -2.72533,-24.74667 l 10.332,-10.33333" /><path
         stroke-width="0.1"
         fill-rule="nonzero"
         fill="#fbd1aa"
         id="path757"
         d="m 19.51601,630.15469 c -0.36933,0 -0.71867,-0.08 -1.032,-0.25333 -1.28667,-0.72 -3.292,-7.09333 -5.05467,-12.97333 0.824,-5.84 1.4,-16.24 1.308,-17.8 -0.02667,-0.44 0.09467,-1.50667 0.31733,-2.92 0.37067,-1.30667 0.74133,-2.70667 1.09867,-4.25333 0.27733,-1.18667 0.44267,-2.54667 0.52267,-3.97333 0.66267,-2.89333 1.39733,-5.64 2.036,-7.26667 0.296,6.68 0.68,15.8 0.68,18.30667 0,3.89333 5.364,18.52 5.37467,23.90667 0.0013,0.26667 -0.012,0.50667 -0.03867,0.73333 -0.48,3.93333 -3.16133,6.49333 -5.212,6.49333" /><path
         stroke-width="0.1"
         fill-rule="nonzero"
         fill="#f8c9a3"
         id="path759"
         d="m 10.18934,531.9147 c 0,0 -3.85333,22.02667 -4.76133,30.44 -0.908,8.4 -0.34,30.98666 -0.908,34.50666 -0.568,3.52 -0.34133,23.05333 0.68,26.34667 1.02267,3.29333 6.472,0.56 7.608,-3.06667 1.13467,-3.64 2.04267,-19.08 1.92933,-21.01333 -0.11333,-1.92 2.49733,-15.21333 4.20133,-18.96 1.70267,-3.74667 8.96933,-16.90667 12.37467,-15.09333 3.40533,1.81333 4.65467,11.01333 5.44933,14.30667 0.79467,3.29333 6.35733,9.30667 10.104,7.82667 3.748,-1.46667 0.90933,-8.4 -0.908,-14.53333 -1.816,-6.12 -1.13467,-10.89333 -2.15733,-19.18667 -1.02133,-8.28 -9.36533,-21.57333 -9.36533,-21.57333 0,0 13.3,-50.14666 15.044,-65.73333 1.744,-15.58667 -0.90667,-41.09333 -0.90667,-41.09333 0,0 16.14,-76.30666 28.56266,-112.59999 l -17.65867,-50.68 c -11.776,6.21333 -19.064,21.90667 -27.68267,44.46666 -7.27067,19.04 -18.064,80.45333 -24.99333,114.10666 -0.288,1.41333 -0.41333,2.8 -0.372,4.22667 0.31867,11.09333 1.85067,63.14666 3.76,107.30666" /><path
         stroke-width="0.1"
         fill-rule="nonzero"
         fill="#fce3ce"
         id="path761"
         d="m 7.38801,624.68803 c -0.02933,0 -0.05867,0 -0.088,0 0.40933,-0.0133 0.84933,-0.10667 1.29733,-0.28 -0.33467,0.17333 -0.71067,0.26667 -1.13467,0.28 -0.02533,0 -0.04933,0 -0.07467,0 m -1.20667,-0.24 c -0.04267,-0.0133 -0.084,-0.0267 -0.12667,-0.04 -0.00133,-0.0133 -0.004,-0.0267 -0.00667,-0.0267 0.044,0.0267 0.088,0.0533 0.13333,0.0667 m -1.96533,-18.84 c -0.19333,-8.30667 0.05333,-18.01333 0.656,-27.72 -0.076,8.41333 -0.02133,16.93333 -0.352,18.97333 -0.20933,1.29333 -0.31067,4.74667 -0.304,8.74667" /><path
         stroke-width="0.1"
         fill-rule="nonzero"
         fill="#f8bc8d"
         id="path763"
         d="m 15.05467,596.20803 c 0.34933,-2.21333 0.94933,-5.30667 1.62133,-8.22667 -0.08,1.42667 -0.24533,2.78667 -0.52267,3.97333 -0.35733,1.54667 -0.728,2.94667 -1.09867,4.25333" /><path
         stroke-width="0.1"
         fill-rule="nonzero"
         fill="#fce3ce"
         id="path765"
         d="m 20.26534,352.52804 c 1.536,-11.10667 2.80933,-22.10667 3.468,-31.70666 l 5.5,-6.66667 c -2.76667,9.6 -5.86,23.37333 -8.968,38.37333" /><path
         stroke-width="0.1"
         fill-rule="nonzero"
         fill="#f5b587"
         id="path767"
         d="m 7.30001,624.68803 c -0.38267,-0.0133 -0.756,-0.0933 -1.11867,-0.24 -0.04533,-0.0133 -0.08933,-0.04 -0.13333,-0.0667 -1.06,-4.16 -1.648,-10.82667 -1.832,-18.77333 -0.00667,-4 0.09467,-7.45333 0.304,-8.74667 0.33067,-2.04 0.276,-10.56 0.352,-18.97333 1.04133,-16.74667 3.144,-33.49333 5.88133,-43.02666 L 8.72667,419.70138 c 0,0 6.948,-34.01333 11.53867,-67.17333 3.108,-15 6.20133,-28.77333 8.968,-38.37333 l 28.044,-33.96 c 8.44267,10.29333 9.07333,27.58667 8.26533,51.72 -0.544,16.25333 -33.97333,71.24 -40.95333,104.67999 l -9.828,131.87999 c 0,0 2.384,11.17333 1.91467,19.50667 -0.672,2.92 -1.272,6.01333 -1.62133,8.22667 -1.58133,5.57333 -3.136,9.34667 -3.45867,14.50667 -0.35467,5.72 -0.16133,12.30667 -2.99867,13.69333 -0.448,0.17333 -0.888,0.26667 -1.29733,0.28" /><path
         stroke-width="0.1"
         fill-rule="nonzero"
         fill="#fddfc1"
         id="path769"
         d="m 262.69866,573.24803 c 0,0 -1.02133,21.68 -1.02133,25.77333 0,4.09333 -5.904,19.98667 -5.336,24.64 0.56667,4.65333 4.2,7.37333 6.244,6.24 2.044,-1.13333 5.904,-16.57333 7.72,-21.57333 1.816,-4.98667 2.72533,-24.74667 2.72533,-24.74667 l -10.332,-10.33333" /><path
         stroke-width="0.1"
         fill-rule="nonzero"
         fill="#fbd1aa"
         id="path771"
         d="m 261.55332,630.15469 c -2.05067,0 -4.732,-2.56 -5.212,-6.49333 -0.0267,-0.21333 -0.0387,-0.44 -0.0387,-0.69333 -0.0107,-5.37333 5.37467,-20.04 5.37467,-23.94667 0,-2.50667 0.384,-11.62667 0.68133,-18.30667 0.63733,1.62667 1.372,4.37333 2.03467,7.25333 0.08,1.44 0.24533,2.8 0.52267,3.98667 0.35733,1.54667 0.72933,2.94667 1.09867,4.25333 0.22267,1.41333 0.344,2.48 0.31733,2.92 -0.092,1.56 0.484,11.96 1.308,17.8 -1.76267,5.88 -3.768,12.25333 -5.05467,12.97333 -0.312,0.17333 -0.66133,0.25333 -1.032,0.25333" /><path
         stroke-width="0.1"
         fill-rule="nonzero"
         fill="#f8c9a3"
         id="path773"
         d="m 270.87999,531.9147 c 0,0 3.85333,22.02667 4.76133,30.44 0.908,8.4 0.34133,30.98666 0.908,34.50666 0.568,3.52 0.34133,23.05333 -0.68,26.34667 -1.02267,3.29333 -6.472,0.56 -7.60667,-3.06667 -1.136,-3.64 -2.044,-19.08 -1.93067,-21.01333 0.11333,-1.92 -2.49733,-15.21333 -4.2,-18.96 -1.704,-3.74667 -8.97067,-16.90667 -12.376,-15.09333 -3.40533,1.81333 -4.65467,11.01333 -5.44933,14.30667 -0.79467,3.29333 -6.35733,9.30667 -10.104,7.82667 -3.748,-1.46667 -0.90933,-8.4 0.908,-14.53333 1.816,-6.12 1.13467,-10.89333 2.15733,-19.18667 1.02133,-8.28 9.36533,-21.57333 9.36533,-21.57333 0,0 -13.3,-50.14666 -15.044,-65.73333 -1.744,-15.58667 0.90667,-41.09333 0.90667,-41.09333 0,0 -16.14,-76.30666 -28.56133,-112.59999 l 17.65733,-50.68 c 11.776,6.21333 19.064,21.90667 27.68267,44.46666 7.27067,19.04 18.06533,80.45333 24.99333,114.10666 0.288,1.41333 0.41333,2.8 0.372,4.22667 -0.31867,11.09333 -1.84933,63.14666 -3.76,107.30666" /><path
         stroke-width="0.1"
         fill-rule="nonzero"
         fill="#fce3ce"
         id="path775"
         d="m 273.68132,624.68803 c -0.0253,0 -0.0493,0 -0.0747,0 -0.424,-0.0133 -0.8,-0.10667 -1.13333,-0.26667 0.44667,0.16 0.88667,0.25333 1.296,0.26667 -0.0293,0 -0.0587,0 -0.088,0 m 1.20667,-0.24 c 0.0453,-0.0133 0.0893,-0.04 0.13333,-0.0667 -0.003,0 -0.004,0.0133 -0.007,0.0267 -0.0427,0.0133 -0.084,0.0267 -0.12667,0.04 m 1.96533,-18.84 c 0.007,-4.01333 -0.0947,-7.45333 -0.304,-8.74667 -0.32933,-2.04 -0.276,-10.56 -0.352,-18.97333 0.60267,9.70667 0.84933,19.41333 0.656,27.72 M 260.80398,352.51471 c -3.108,-14.98667 -6.20133,-28.76 -8.968,-38.36 l 5.5,6.66667 c 0.65867,9.6 1.93067,20.6 3.468,31.69333" /><path
         stroke-width="0.1"
         fill-rule="nonzero"
         fill="#f8bc8d"
         id="path777"
         d="m 266.01466,596.20803 c -0.36933,-1.30667 -0.74133,-2.70667 -1.09867,-4.25333 -0.27733,-1.18667 -0.44267,-2.54667 -0.52267,-3.98667 0.67333,2.93333 1.272,6.02667 1.62133,8.24" /><path
         stroke-width="0.1"
         fill-rule="nonzero"
         fill="#f5b587"
         id="path779"
         d="m 273.76932,624.68803 c -0.40933,-0.0133 -0.84933,-0.10667 -1.296,-0.26667 -2.83867,-1.4 -2.644,-7.98667 -3,-13.70667 -0.32267,-5.16 -1.87733,-8.93333 -3.45867,-14.50667 -0.34933,-2.21333 -0.948,-5.30667 -1.62133,-8.24 -0.468,-8.33333 1.91467,-19.49333 1.91467,-19.49333 l -9.828,-131.87999 c -6.98,-33.44 -40.40933,-88.42666 -40.95333,-104.67999 -0.808,-24.13333 -0.17733,-41.42666 8.26533,-51.72 l 28.044,33.96 c 2.76667,9.6 5.86,23.37333 8.968,38.36 4.59067,33.16 11.54,67.18666 11.54,67.18666 l -2.028,115.15999 c 2.73733,9.53333 4.84133,26.28 5.88133,43.02666 0.076,8.41333 0.0227,16.93333 0.352,18.97333 0.20933,1.29333 0.31067,4.73333 0.304,8.74667 -0.184,7.94667 -0.77067,14.61333 -1.832,18.77333 -0.044,0.0267 -0.088,0.0533 -0.13333,0.0667 -0.36267,0.14667 -0.736,0.22667 -1.11867,0.24" /><path
         stroke-width="0.1"
         fill-rule="nonzero"
         fill="#f8c9a3"
         id="path781"
         d="m 154.77066,969.64779 h 99.85866 c 8.72,-15.25312 -20.05733,-21.61299 -31.83466,-28.33338 -7.66933,-4.37333 -34.888,-10.13333 -34.888,-24.41293 0,-11.93387 1.14933,-26.2 2.81733,-41.64013 h -40.99466 c 2.15733,14.2 3.92133,27.77347 4.168,41.64013 0.70533,39.6796 0.87333,52.74632 0.87333,52.74632" /><path
         stroke-width="0.1"
         fill-rule="nonzero"
         fill="#f8c9a3"
         id="path783"
         d="M 122.50533,969.64779 H 22.648 c -8.72,-15.25312 20.05733,-21.61299 31.83466,-28.33338 7.668,-4.37333 34.88666,-10.13333 34.88666,-24.41293 0,-11.93387 -1.14933,-26.2 -2.81733,-41.64013 h 40.996 c -2.15733,14.2 -3.92133,27.77347 -4.168,41.64013 -0.70533,39.6796 -0.87467,52.74632 -0.87467,52.74632" /><path
         stroke-width="0.1"
         fill-rule="nonzero"
         fill="#fdeede"
         id="path785"
         d="m 188.05066,909.18108 c 0.35333,-10.10667 1.336,-21.50667 2.64267,-33.62653 -1.30667,12.11987 -2.28,23.5068 -2.63333,33.6136 -0.003,0 -0.007,0.0129 -0.009,0.0129 m 2.64267,-33.64 c 0.0107,-0.0933 0.0213,-0.18653 0.0307,-0.27973 v 0 c -0.009,0.0932 -0.02,0.1864 -0.0307,0.27973" /><path
         stroke-width="0.1"
         fill-rule="nonzero"
         fill="#f8bf91"
         id="path787"
         d="m 177.81733,948.03481 c -0.34533,-0.0271 -0.692,-0.0401 -1.036,-0.0672 0,0 0,0 -0.001,0 -7.71467,-0.46613 -15.076,-1.4932 -21.38133,-2.27973 -0.33867,-0.0401 -0.67333,-0.0801 -1.00533,-0.11973 -0.12533,-7.45373 -0.28667,-16.88027 -0.496,-28.66666 -0.24667,-13.86667 -2.01067,-27.44013 -4.168,-41.64013 H 190.724 c -0.009,0.0932 -0.02,0.1864 -0.0307,0.27973 0,0 0,0 0,0.0135 -1.30667,12.11987 -2.28933,23.51987 -2.64267,33.62653 -5.892,3.3068 -12.79467,4.8 -19.55067,4.88027 -0.336,0 -0.67467,0.3068 -0.65333,0.65307 0.73733,12.04013 4.37333,23.17347 9.97067,33.3204" /><path
         stroke-width="0.1"
         fill-rule="nonzero"
         fill="#fdeede"
         id="path789"
         d="m 89.21333,908.80774 c -0.0027,0 -0.0053,0 -0.008,0 -0.35333,-9.7068 -1.27067,-20.57293 -2.50133,-32.13333 1.23067,11.5604 2.156,22.44 2.50933,32.13333 M 86.704,876.66134 c -0.008,-0.0667 -0.01467,-0.13333 -0.02267,-0.2 0.008,0.0667 0.01467,0.13333 0.02267,0.2 m -0.07067,-0.6536 c -0.0027,-0.0267 -0.0053,-0.0532 -0.008,-0.0797 0.0027,0.0265 0.0053,0.0531 0.008,0.0797 M 86.6,875.70147 c -0.004,-0.0401 -0.0067,-0.0672 -0.01067,-0.0937 0.004,0.0265 0.0067,0.0667 0.01067,0.0937 m -0.02267,-0.2136 C 86.56933,875.40774 86.56,875.328 86.552,875.26134 v 0 c 0.008,0.0667 0.01733,0.1464 0.02533,0.22653" /><path
         stroke-width="0.1"
         fill-rule="nonzero"
         fill="#f8bf91"
         id="path791"
         d="m 99.668,948.02121 c 6.036,-10.53333 8.37333,-22.9468 6.67867,-35.22653 -0.044,-0.32027 -0.37467,-0.46667 -0.664,-0.46667 -0.048,0 -0.096,0.0131 -0.14,0.0131 -1.04133,0.2 -2.08,0.28013 -3.112,0.28013 -4.552,0 -9.00533,-1.71973 -13.21733,-3.81347 -0.35333,-9.69333 -1.27867,-20.57293 -2.50933,-32.13333 0,0 0,0 0,-0.0131 -0.008,-0.0667 -0.01467,-0.13333 -0.02267,-0.2 -0.016,-0.14693 -0.032,-0.2932 -0.048,-0.4536 -0.0027,-0.0267 -0.0053,-0.0532 -0.008,-0.0797 -0.0093,-0.0803 -0.01733,-0.14693 -0.02533,-0.22653 -0.004,-0.0271 -0.0067,-0.0672 -0.01067,-0.0937 -0.004,-0.0396 -0.008,-0.0797 -0.012,-0.11987 -0.008,-0.0801 -0.01733,-0.15987 -0.02533,-0.22653 h 40.996 c -2.15733,14.2 -3.92133,27.77347 -4.168,41.64013 -0.20933,11.7864 -0.372,21.21293 -0.496,28.66666 -6.012,0.7328 -13.05867,1.7328 -20.48933,2.26667 -10e-4,0.0129 -0.003,0.0129 -0.004,0.0129 -0.90267,0.0667 -1.81067,0.11987 -2.72267,0.17347" /><path
         stroke-width="0.1"
         fill-rule="nonzero"
         fill="#2d2e30"
         id="path793"
         d="m 69.97067,455.7147 c 0,0 -15.91467,52.65333 -18.09467,70.96 -2.17867,18.30667 7.34933,128.19999 13.99867,179.21332 0,0 4.096,83.04 17.39467,193.57332 0,0 6.96,5.66667 19.184,5.66667 23.76533,0 27.03333,-5.8932 27.03333,-5.8932 0,0 9.15333,-100.49346 2.61333,-193.34679 0,0 2.89333,-129.07999 6.53733,-168.30666 3.644,39.22666 6.54,168.30666 6.54,168.30666 -6.54,92.85333 2.61333,193.34679 2.61333,193.34679 0,0 3.268,5.8932 27.032,5.8932 12.224,0 19.184,-5.66667 19.184,-5.66667 C 207.30533,788.92801 211.40133,705.88802 211.40133,705.88802 218.05066,654.87469 227.58,544.98136 225.4,526.6747 c -2.18,-18.30667 -18.09467,-70.96 -18.09467,-70.96 H 69.97067"
         name="pantalon"
         color="2d2e30" /><path
         stroke-width="0.1"
         fill-rule="nonzero"
         fill="#a38fa1"
         id="path795"
         d="M 257.45732,977.06134 H 150.97866 v -4.13333 c 0,-0.35989 0.29333,-0.65364 0.656,-0.65364 h 105.16666 c 0.36267,0 0.656,0.29375 0.656,0.65364 v 4.13333" /><path
         stroke-width="0.1"
         fill-rule="nonzero"
         fill="#ffffff"
         id="path797"
         d="m 256.14666,972.27437 0.75333,-1.3198 c 2.02533,-3.54687 2.48933,-7.01353 1.37733,-10.29323 -2.69333,-7.95987 -14.084,-12.75987 -24.13333,-16.98693 -3.82667,-1.61307 -7.44,-3.1464 -10.05333,-4.62667 -2.86133,-1.64 -5.83067,-3.51973 -8.696,-5.50667 -5.84,0.97333 -10.98933,2.84 -14.40667,4.30667 -2.40667,1.04013 -2.95333,4.26667 -0.96133,5.97347 1.804,1.53333 3.35867,2.27973 3.35867,2.27973 -16.95067,4.2672 -36.09866,1 -49.69466,-0.62653 -1.008,-0.11987 -1.904,0.70667 -1.88667,1.73333 0.26933,16.18693 0.35067,22.38693 0.35067,22.48016 l 0.0333,2.58647 h 2.58267 99.85866 1.51733" /><path
         stroke-width="0.1"
         fill-rule="nonzero"
         fill="#a38fa1"
         id="path799"
         d="m 19.81867,977.06134 h 106.47866 v -4.13333 c 0,-0.35989 -0.29333,-0.65364 -0.656,-0.65364 H 20.47467 c -0.36267,0 -0.656,0.29375 -0.656,0.65364 v 4.13333" /><path
         stroke-width="0.1"
         fill-rule="nonzero"
         fill="#ffffff"
         id="path801"
         d="m 21.12934,972.27437 -0.75333,-1.3198 c -2.02533,-3.54687 -2.48933,-7.01353 -1.37733,-10.29323 2.69467,-7.95987 14.08533,-12.75987 24.13467,-16.98693 3.82533,-1.61307 7.44,-3.1464 10.05333,-4.62667 2.86,-1.64 5.83067,-3.51973 8.69467,-5.50667 5.84,0.97333 10.98933,2.84 14.408,4.30667 2.40533,1.04013 2.952,4.26667 0.96133,5.97347 -1.804,1.53333 -3.35867,2.27973 -3.35867,2.27973 16.94933,4.2672 36.09866,1 49.69466,-0.62653 1.008,-0.11987 1.90267,0.70667 1.88533,1.73333 -0.268,16.18693 -0.34933,22.38693 -0.35067,22.48016 l -0.0333,2.58647 H 122.50533 22.648 21.12933" /><path
         stroke-width="0.1"
         fill-rule="nonzero"
         fill="#8b8494"
         id="path803"
         d="m 202.94533,977.06134 h -51.96666 v -3.50677 c 0,-0.70677 0.57733,-1.2802 1.28667,-1.2802 H 196.564 v 0 0 c 2.06267,1.6802 4.19733,3.26667 6.38133,4.78697" /><path
         stroke-width="0.1"
         fill-rule="nonzero"
         fill="#d6ece6"
         id="path805"
         d="m 152.188,972.27437 v 0 l -0.0333,-2.58647 c 0,-0.0932 -0.0813,-6.29323 -0.35067,-22.48016 0,-0.0131 0,-0.0131 0,-0.0267 0,0.0136 0,0.0136 0,0.0267 0.26933,16.18693 0.35067,22.38693 0.35067,22.48016 l 0.0333,2.58647 m -0.384,-25.13329 c 0.0213,-0.91987 0.788,-1.67973 1.69067,-1.67973 0,0 0,0 10e-4,0 -0.904,0 -1.67067,0.75987 -1.692,1.67973" /><path
         stroke-width="0.1"
         fill-rule="nonzero"
         fill="#d0b186"
         id="path807"
         d="m 176.78133,947.96761 c -7.71467,-0.4532 -15.07733,-1.4932 -21.38267,-2.27973 6.30533,0.78653 13.66667,1.8136 21.38133,2.27973 0.001,0 0.001,0 0.001,0" /><path
         stroke-width="0.1"
         fill-rule="nonzero"
         fill="#d6ece6"
         id="path809"
         d="m 196.56399,972.27437 h -44.376 l -0.0333,-2.58647 c 0,-0.0932 -0.0813,-6.29323 -0.35067,-22.48016 0,-0.0131 0,-0.0131 0,-0.0267 0,-0.0129 0,-0.0265 0,-0.04 0.0213,-0.91987 0.788,-1.67973 1.692,-1.67973 0.064,0 0.12933,0.0131 0.19467,0.0131 0.56,0.0667 1.12933,0.1468 1.708,0.21347 6.30533,0.78653 13.668,1.82653 21.38267,2.27973 2.43067,7.58693 8.176,13.72027 13.85467,19.10676 1.91333,1.81353 3.9,3.53333 5.928,5.2" /><path
         stroke-width="0.1"
         fill-rule="nonzero"
         fill="#8b8494"
         id="path811"
         d="m 126.29733,977.06134 h -70.344 c 1.052,-0.21355 2.116,-0.4 3.16,-0.65364 4.39467,-1.06667 8.71333,-2.45313 12.904,-4.13333 v 0 0 h 52.99333 c 0.71067,0 1.28667,0.57343 1.28667,1.2802 v 3.50677" /><path
         stroke-width="0.1"
         fill-rule="nonzero"
         fill="#d6ece6"
         id="path813"
         d="m 122.884,945.56814 v 0 c 0.0533,-0.0136 0.108,-0.0136 0.16133,-0.0271 -0.0533,0.0135 -0.108,0.0135 -0.16133,0.0271 m 0.23467,-0.0401 c 0.016,0 0.032,0 0.048,0 -0.016,0 -0.032,0 -0.048,0 m 0.176,-0.0136 c 0.003,0 0.004,0 0.005,0 -0.001,0 -0.003,0 -0.005,0 m 0.136,-0.0129 c 0.005,0 0.012,0 0.0187,-0.0136 -0.007,0.0136 -0.012,0.0136 -0.0187,0.0136" /><path
         stroke-width="0.1"
         fill-rule="nonzero"
         fill="#d0b186"
         id="path815"
         d="m 102.39067,947.84774 c 0.001,0 0.003,0 0.004,-0.0129 7.43067,-0.53387 14.47733,-1.53387 20.48933,-2.26667 v 0 c -6.01467,0.7328 -13.06,1.74627 -20.49333,2.2796" /><path
         stroke-width="0.1"
         fill-rule="nonzero"
         fill="#d6ece6"
         id="path817"
         d="M 125.088,972.27437 H 72.01734 c 5.216,-2.10625 10.228,-4.70625 14.888,-7.89324 6.41467,-4.37339 11.144,-10.28019 15.48533,-16.53339 7.43333,-0.53333 14.47867,-1.5468 20.49333,-2.2796 v 0 c 0.0533,-0.0136 0.108,-0.0136 0.16133,-0.0271 0.0253,0 0.0493,0 0.0733,-0.0131 0.016,0 0.032,0 0.048,0 0.044,0 0.0853,-0.0136 0.128,-0.0136 0.003,0 0.004,0 0.005,0 0.044,-0.0129 0.0867,-0.0129 0.13067,-0.0129 0.007,0 0.012,0 0.0187,-0.0136 0.0453,0 0.0907,0 0.13733,-0.0135 0.0653,0 0.13067,-0.0131 0.19467,-0.0131 0.91867,0 1.69467,0.7864 1.692,1.71973 0,0.0136 -0.001,0.0136 -0.001,0.0267 -0.268,16.18693 -0.34933,22.38693 -0.35067,22.48016 l -0.0333,2.58647" /><path
         stroke-width="0.1"
         fill-rule="nonzero"
         fill="#f8c9a3"
         id="path819"
         d="M 83.01867,248.56805 118.688,230.74138 v -39.57333 h 39.89066 v 39.57333 l 35.672,17.82667 v 81.76 H 83.01867 v -81.76" /><path
         stroke-width="0.1"
         fill-rule="nonzero"
         fill="#e8bc95"
         id="path821"
         d="m 132.19067,269.27472 c -0.001,0 -0.58,-0.49333 -1.49067,-1.29333 -0.90933,-0.78667 -2.15067,-1.86667 -3.47067,-3.04 -1.2,-1.06667 -2.69733,-1.73333 -4.296,-1.90667 -4.94533,-0.52 -16.85333,-1.92 -24.15467,-3.92 -0.26667,-0.0667 -0.54133,0.0933 -0.61467,0.36 -0.072,0.26667 0.084,0.53333 0.35067,0.61333 7.43467,2.02667 19.34267,3.41333 24.31333,3.94667 1.38933,0.14667 2.68933,0.72 3.73733,1.65333 2.648,2.34667 4.97333,4.34667 4.97467,4.34667 0.20933,0.17333 0.52533,0.14667 0.704,-0.0533 0.18,-0.21333 0.156,-0.53333 -0.0533,-0.70667" /><path
         stroke-width="0.1"
         fill-rule="nonzero"
         fill="#e8bc95"
         id="path823"
         d="m 145.72933,270.03472 c 0.001,0 2.32667,-2 4.97467,-4.34667 1.04667,-0.93333 2.348,-1.50667 3.736,-1.65333 4.972,-0.53333 16.88,-1.92 24.31333,-3.94667 0.26667,-0.08 0.424,-0.34667 0.35067,-0.61333 -0.072,-0.26667 -0.348,-0.42667 -0.61333,-0.36 -7.30267,2 -19.21067,3.4 -24.156,3.92 -1.59733,0.17333 -3.09467,0.84 -4.29467,1.90667 -1.32,1.17333 -2.56133,2.25333 -3.472,3.04 -0.90933,0.8 -1.488,1.29333 -1.48933,1.29333 -0.20933,0.17333 -0.23333,0.49333 -0.0547,0.70667 0.18,0.2 0.496,0.22667 0.70533,0.0533" /><path
         stroke-width="0.1"
         fill-rule="nonzero"
         fill="#f8c9a3"
         id="path825"
         d="m 70.83467,119.85739 c 0,0 -7.128,-16.18133 -17.98533,-14.388 -11.88133,1.96133 -12.75333,17.004 -6.21333,31.06533 6.54,14.06 15.91467,17.76667 24.19867,12.752 v -29.42933" /><path
         stroke-width="0.1"
         fill-rule="nonzero"
         fill="#fce3ce"
         id="path827"
         d="m 70.61734,149.41606 c 0.072,-0.0427 0.144,-0.0853 0.21733,-0.12933 v -29.42933 0 29.42933 c -0.07333,0.044 -0.14533,0.0867 -0.21733,0.12933 m 0.204,-29.58666 c -0.31467,-0.7 -6.63733,-14.49867 -16.29333,-14.49867 -0.24,0 -0.48133,0.008 -0.72667,0.0253 0.244,-0.0173 0.488,-0.0253 0.728,-0.0253 9.656,0 15.97733,13.79867 16.292,14.49867 m -17.972,-14.36 c 0.07333,-0.012 0.148,-0.024 0.22133,-0.0347 -0.07333,0.0107 -0.148,0.0227 -0.22133,0.0347" /><path
         stroke-width="0.1"
         fill-rule="nonzero"
         fill="#f5b587"
         id="path829"
         d="m 63.73334,151.38806 c -0.48267,0 -0.96533,-0.028 -1.44667,-0.0853 0.45733,-2.55067 0.50533,-5.18533 0.28533,-7.51467 -0.452,-4.76267 -1.78533,-9.38533 -2.29733,-14.14667 -0.456,-4.23067 -0.22533,-8.72933 -1.076,-12.89733 -0.932,-4.564 -5.048,-7.33733 -7.68133,-10.94667 0.43733,-0.11867 0.86133,-0.25067 1.332,-0.328 v 0 c 0.07333,-0.012 0.148,-0.024 0.22133,-0.0347 0.24533,-0.0347 0.48933,-0.0613 0.73067,-0.0787 0.24533,-0.0173 0.48667,-0.0253 0.72667,-0.0253 9.656,0 15.97867,13.79867 16.29333,14.49867 0.0093,0.0187 0.01333,0.028 0.01333,0.028 v 29.42933 c -0.07333,0.044 -0.14533,0.0867 -0.21733,0.12933 -2.244,1.31333 -4.564,1.972 -6.884,1.972" /><path
         stroke-width="0.1"
         fill-rule="nonzero"
         fill="#f8c9a3"
         id="path831"
         d="m 206.43599,119.85739 c 0,0 7.128,-16.18133 17.98533,-14.388 11.88133,1.96133 12.75333,17.004 6.21333,31.06533 -6.54,14.06 -15.91467,17.76667 -24.19867,12.752 v -29.42933" /><path
         stroke-width="0.1"
         fill-rule="nonzero"
         fill="#fce3ce"
         id="path833"
         d="m 206.45333,119.82006 c 0.36133,-0.80267 6.672,-14.48933 16.28933,-14.48933 0.54933,0 1.108,0.044 1.67867,0.13867 -0.57067,-0.0947 -1.12933,-0.13867 -1.67867,-0.13867 -9.616,0 -15.928,13.68667 -16.28933,14.48933 M 224.472,105.47739 c -0.0173,-0.003 -0.0333,-0.005 -0.0507,-0.008 0.0173,0.003 0.0347,0.005 0.0507,0.008" /><path
         stroke-width="0.1"
         fill-rule="nonzero"
         fill="#f5b587"
         id="path835"
         d="m 213.56799,151.38539 c -2.40533,0 -4.81067,-0.69333 -7.132,-2.09867 v 0 -29.42933 c 0,0 0.007,-0.0133 0.0173,-0.0373 0.36133,-0.80267 6.67333,-14.48933 16.28933,-14.48933 0.54933,0 1.108,0.044 1.67867,0.13867 v 0 0 c 0.0173,0.003 0.0333,0.005 0.0507,0.008 0.89867,0.152 1.71333,0.40267 2.48667,0.7 -0.40533,1.23467 -0.79067,2.47733 -1.34,3.664 -1.18667,2.56 -3.48,4.35333 -4.78267,6.84133 -2.256,4.31333 -2.66933,9.60267 -3.30133,14.35067 -0.90533,6.796 -2.05067,13.704 -3.95467,20.352 -0.004,0 -0.008,0 -0.012,0" /><path
         stroke-width="0.1"
         fill-rule="nonzero"
         fill="#494b51"
         id="path837"
         d="m 153.50266,251.88805 c 14.6,-4.65333 15.32133,-9.61333 20.21333,-13.6 l 57.696,27.09333 51.16133,108.07999 c -20.75867,10.88 -21.48667,12.77333 -65.91733,22.22667 -4.792,-8.30667 -10.864,-25.22667 -17.34267,-72.52 -0.832,1.64 26.404,201.61332 26.13067,207.39999 -0.0747,1.57333 0.30133,34.61333 0.27333,34.66666 -31.58,68.30666 -153.86399,51.08 -174.15732,-6.29333 l 0.18667,-30.84 C 49.50534,523.91469 78.676,324.68804 77.86934,323.16804 c -6.58533,47.12 -8.62667,63.17333 -13.948,72 C 15.46801,382.23471 0.55201,371.71471 0.55201,371.71471 c 0,0 3.32667,-13.13333 6.18267,-22.28 6.308,-20.24 34.06533,-77.90666 46.82933,-87.63999 l 53,-24.76 c 2.468,3.12 4.70133,9.72 18.916,14.65333 6.61867,2.29333 21.348,2.33333 28.02266,0.2"
         name="chaqueta"
         color="494b51" /><path
         stroke-width="0.1"
         fill-rule="nonzero"
         fill="#ed138a"
         id="path839"
         d="m 0.06001,374.08804 c -0.91467,-6.28 8.92667,-31.10666 8.92667,-31.10666 0,0 47.44533,19.81333 63.55733,18.30667 1.06,-0.0933 -2.15467,13.52 -4.55333,23.74667 -1.584,6.74667 -4.56267,11.42667 -4.56267,11.42667 0,0 -61.82,-11.73333 -63.368,-22.37333"
         name="vivo"
         color="ed138a" /><path
         stroke-width="0.1"
         fill-rule="nonzero"
         fill="#ed138a"
         id="path841"
         d="m 283.40666,373.86138 c -2.89733,-5.44 -13.58533,-27.34667 -13.58533,-27.34667 0,0 -47.36266,18.45333 -63.47466,16.94667 -1.06,-0.0933 1.16,6.76 4.19733,16.81333 4.23467,14.01333 7.336,17.65333 7.232,17.36 0,0 16.12667,-2.42667 31.932,-6.92 17.50933,-4.98667 34.87733,-14.62667 33.69866,-16.85333"
         name="vivo"
         color="ed138a" /><path
         stroke-width="0.1"
         fill-rule="nonzero"
         fill="#ef289e"
         id="path843"
         d="m 132.69067,411.72804 c 0.11333,-2.01333 3.44267,5.70667 3.20267,7.70667 -4.13467,34.41333 -5.60533,106.18666 -5.60533,106.18666 l -3.732,-3.4 c 0,0 4.81067,-87.03999 6.13467,-110.49333"
         name="vivo"
         color="ed138a" /><path
         stroke-width="0.1"
         fill-rule="nonzero"
         fill="#796980"
         id="path845"
         d="m 68.612,406.26137 -0.008,0.50667 63.79466,0.96 -0.73067,8.48 -63.62133,-2.09333 1.06,-7.78667 -0.49467,-0.0667 -0.008,0.50667 0.008,-0.50667 -0.496,-0.0667 -1.20933,8.89333 65.676,2.14667 0.904,-10.49333 -65.31066,-0.98667 -0.06,0.44 0.496,0.0667" /><path
         stroke-width="0.1"
         fill-rule="nonzero"
         fill="#ef289e"
         id="path847"
         d="m 141.51066,411.72804 c -0.11333,-2.01333 -3.444,5.70667 -3.204,7.70667 4.13467,34.41333 5.60533,106.18666 5.60533,106.18666 l 3.732,-3.4 c 0,0 -4.81067,-87.03999 -6.13333,-110.49333"
         name="vivo"
         color="ed138a" /><path
         stroke-width="0.1"
         fill-rule="nonzero"
         fill="#796980"
         id="path849"
         d="m 207.37999,406.43471 -0.005,-0.50667 -64.66133,0.81333 0.904,10.49333 65.464,-2.14667 -1.26667,-9.16 h -0.44 l 0.005,0.50667 -0.49467,0.0667 1.05333,7.62667 -63.40533,2.08 -0.73067,-8.48 63.584,-0.8 -0.007,-0.49333 -0.49467,0.0667 0.49467,-0.0667" /><path
         stroke-width="0.1"
         fill-rule="nonzero"
         fill="#2d2e30"
         id="path851"
         d="m 205.19733,506.52804 -23.168,5.53333 -19.71733,-5.53333 v -50.37333 h 42.88533 v 50.37333"
         name="chaqueta"
         color="2d2e30" /><path
         stroke-width="0.1"
         fill-rule="nonzero"
         fill="#181819"
         id="path853"
         d="m 141.728,344.44804 c 0,-0.0933 -6.452,-13.45333 -19.684,-18.94667 -10.85333,-4.49333 -26.78667,4.84 -35.20133,-9.04 -8.41467,-13.86667 -32.48666,-10.05333 -37.91733,-30.48 -6.39333,-24.05333 14.38267,-39.54666 10.256,-56.29333 -4.12533,-16.73333 -22.88,-17.01333 -29.63066,-41.98666 -6.58267,-24.35867 11.48933,-34.82666 11.48933,-49.296 0,-14.468 -13.232,-23.96133 -11.296,-39.452 1.93733,-15.49067 35.82266,-43.89066 42.06133,-55.18533 6.24,-11.29467 3.012,-26.46267 27.00267,-38.08133 22.48667,-10.88933 42.924,4.51867 42.924,4.51867 0,0 20.436,-15.408 42.92266,-4.51867 23.99067,11.61867 20.764,26.78667 27.00267,38.08133 6.24,11.29467 40.12533,39.69466 42.06133,55.18533 1.936,15.49067 -11.29467,24.984 -11.29467,39.452 0,14.46933 18.072,24.93733 11.488,49.296 -6.74933,24.97333 -25.504,25.25333 -29.63066,41.98666 -4.12533,16.74667 16.64933,32.24 10.256,56.29333 -5.43067,20.42667 -29.50266,16.61333 -37.916,30.48 -8.41467,13.88 -24.34933,4.54667 -35.20133,9.04 -13.232,5.49333 -19.68533,18.85333 -19.68533,18.94667" /></g></g><defs
     id="defs25452" /></svg>
