<?xml version="1.0" encoding="UTF-8" standalone="no"?>
<!-- Created with Inkscape (http://www.inkscape.org/) -->

<svg
   width="74.999809mm"
   height="259.95483mm"
   viewBox="0 0 74.999809 259.95483"
   version="1.1"
   id="svg17852"
   xml:space="preserve"
   xmlns="http://www.w3.org/2000/svg"
   xmlns:svg="http://www.w3.org/2000/svg"><defs
     id="defs17849" /><g
     id="layer1"
     transform="translate(-39.267045,-34.882735)"><g
       id="g20605"
       transform="matrix(0.26458333,0,0,0.26458333,39.267046,34.882724)"><title
         id="title20514">Layer 1</title><path
         stroke-width="0.1"
         fill-rule="nonzero"
         fill="#ffffff"
         id="path123"
         d="m 195.28294,12.23471 c -0.81733,-0.77467 -1.704,-1.54267 -2.66667,-2.30267 -0.56533,-1.77333 -1.59467,-3.55733 -2.95467,-4.22 0.0253,-0.04 0.064,-0.072 0.10533,-0.088 0.332,-0.12533 0.652,-0.18267 0.96,-0.18267 2.61467,0 4.35867,4.16267 4.556,6.79333" /><path
         stroke-width="0.1"
         fill-rule="nonzero"
         fill="#181819"
         id="path855"
         d="m 139.83895,342.65336 c 0,-0.0933 6.452,-13.45333 19.684,-18.94667 4.05333,-1.68 8.816,-1.42667 13.62933,-1.17333 8.076,0.41333 16.3,0.82667 21.572,-7.86667 8.41467,-13.86667 32.48666,-10.05333 37.91733,-30.48 6.39333,-24.05333 -14.38133,-39.54666 -10.256,-56.28 4.12533,-16.74667 22.88,-17.02667 29.63066,-42 6.584,-24.35733 -11.48933,-34.82533 -11.48933,-49.29466 0,-14.468 13.232,-23.96133 11.296,-39.452 -1.93733,-15.49067 -35.82266,-43.89066 -42.06133,-55.18533 -6.24,-11.29467 -3.012,-26.46267 -27.00267,-38.08 -22.48667,-10.89067 -42.924,4.51733 -42.924,4.51733 0,0 -20.436,-15.408 -42.92293,-4.51733 -23.99067,11.61733 -20.76347,26.78533 -27.00253,38.08 -6.2396,11.29467 -40.12506,39.69466 -42.06146,55.18533 -1.93653,15.49067 11.29533,24.984 11.29533,39.452 0,14.46933 -18.0724,24.93733 -11.48867,49.29466 6.75,24.97333 25.5048,25.25333 29.6308,42 4.12547,16.73333 -16.64947,32.22666 -10.25573,56.28 5.42973,20.42667 29.50213,16.61333 37.91613,30.48 5.27133,8.69333 13.4948,8.28 21.57173,7.86667 4.81467,-0.25333 9.576,-0.50667 13.63067,1.17333 13.23067,5.49333 19.684,18.85333 19.684,18.94667 h 0.007" /><path
         stroke-width="0.1"
         fill-rule="nonzero"
         fill="#7e8182"
         id="path857"
         d="m 85.43855,315.45336 c -0.01347,-0.0267 -0.02707,-0.0533 -0.04053,-0.0667 0.01347,0.0133 0.02707,0.04 0.04053,0.0667 v 0 m -0.0744,-0.12 c -0.04173,-0.0667 -0.0828,-0.12 -0.124,-0.18667 0.0412,0.0667 0.08227,0.12 0.124,0.18667 m -0.2292,-0.36 c -0.026,-0.04 -0.05107,-0.08 -0.07653,-0.12 0.02547,0.04 0.05053,0.08 0.07653,0.12 M 34.50949,150.77204 c 0,-0.004 5.3e-4,-0.008 5.3e-4,-0.0133 2.4744,-4.64533 4.5656,-9.06 4.63173,-13.90933 -0.06667,4.85467 -2.15373,9.27067 -4.63227,13.92267 m 4.63227,-13.93467 c 5.3e-4,-0.0347 0.0011,-0.0693 0.0011,-0.10533 0,0.036 -5.3e-4,0.0707 -0.0011,0.10533 m 0.0011,-0.11733 c 0,-0.0147 5.3e-4,-0.028 5.3e-4,-0.0413 0,0.0133 -5.3e-4,0.0267 -5.3e-4,0.0413 m 5.3e-4,-0.0547 c 0,-0.0187 0,-0.036 0,-0.0533 0,0.0187 0,0.0347 0,0.0533 m 0,-0.0533 c 0,-0.86 -0.05267,-1.70133 -0.1412,-2.528 0.0021,-0.004 0.0036,-0.008 0.0057,-0.012 0.088,0.83067 0.13547,1.67733 0.13547,2.54 v 0" /><path
         stroke-width="0.1"
         fill-rule="nonzero"
         fill="#0f0f0f"
         id="path859"
         d="m 139.83895,342.65336 h -0.007 c 0,-0.04 -1.46533,-3.10667 -4.432,-6.88 h 8.86933 c -2.96533,3.77333 -4.43067,6.84 -4.43067,6.88 m -54.4004,-27.2 c -0.01347,-0.0267 -0.02707,-0.0533 -0.04053,-0.0667 -0.01147,-0.0133 -0.02293,-0.04 -0.03387,-0.0533 -0.04173,-0.0667 -0.0828,-0.12 -0.124,-0.18667 -0.03547,-0.0533 -0.07027,-0.10667 -0.1052,-0.17333 -0.026,-0.04 -0.05107,-0.08 -0.07653,-0.12 -0.03747,-0.0533 -0.0756,-0.12 -0.11253,-0.18667 v 0 c -2.924,-4.81333 -7.73853,-7.50667 -13.00413,-9.81333 l -13.10213,-37.6 c -4.87027,2.56 -8.974,6.76 -12.7208,12.38667 -0.66827,-4.94667 -0.2344,-9.52 0.78067,-13.82667 7.49747,-1.08 14.824,-2.92 21.58333,-5.30667 8.17093,-2.89333 16.1568,-6.88 22.6724,-12.68 6.2256,-5.52 13.03707,-14.76 10.75267,-23.58667 -1.22133,-4.73333 -5.64747,-7.57333 -9.42707,-10.18667 -5.22187,-3.61333 -9.90467,-7.74667 -14.1652,-12.46667 -4.5484,-5.02667 -8.414,-10.44 -12.1244,-16.10667 -2.86307,-4.36 -6.024,-7.61467 -10.70787,-9.99733 -4.64627,-2.36267 -9.62813,-4.40133 -13.66347,-7.776 -4.86413,-4.06667 -7.4376,-10.2 -7.33653,-16.51867 0.0021,-0.13733 0.02093,-0.27733 0.02613,-0.416 2.47853,-4.652 4.5656,-9.068 4.63227,-13.92267 0,-0.004 0,-0.008 0,-0.012 5.3e-4,-0.0347 0.0011,-0.0693 0.0011,-0.10533 0,-0.004 0,-0.008 0,-0.012 0,-0.0147 5.3e-4,-0.028 5.3e-4,-0.0413 0,-0.005 0,-0.009 0,-0.0133 0,-0.0187 0,-0.0347 0,-0.0533 v 0 0 0 c 0,-0.86267 -0.04747,-1.70933 -0.13547,-2.54 0.50107,-1.072 1.01613,-2.12533 1.55307,-3.13067 1.18333,-2.21733 2.7808,-4.12667 4.43853,-5.99067 -0.10053,5.17333 1.3376,11.18533 4.0552,17.02933 4.70787,10.12133 10.88493,14.87733 17.06573,14.87733 1.39893,0 2.7984,-0.244 4.18067,-0.724 0.34173,1.33067 0.6688,2.56667 0.97867,3.708 1.89267,6.96933 5.7344,13.22133 11.10787,18.04667 7.99,7.17867 21.678,17.952 38.72333,26.25867 v 32.04 l -35.6724,17.82667 v 61.44 m 111.23239,-3.4 v -58.04 l -35.66933,-17.82667 v -22.6 0 -9.44 c 17.044,-8.30667 30.72933,-19.08 38.72,-26.25867 5.37333,-4.82533 9.21467,-11.07733 11.10667,-18.04667 0.30933,-1.14133 0.63733,-2.37733 0.97867,-3.708 1.38267,0.48 2.78133,0.724 4.18133,0.724 6.18,0 12.35733,-4.756 17.06533,-14.87733 2.86133,-6.15467 4.304,-12.496 4.02533,-17.848 4.064,8.096 2.08667,21.30933 0.66267,28.53333 -0.97733,4.96133 -2.17867,10.12533 -4.308,14.73867 -1.76933,3.836 -4.584,6.79867 -8.08267,9.104 -2.668,1.75867 -6.11467,3.04267 -8.456,5.224 -2.28267,2.128 -3.648,5.60133 -5.42267,8.148 -2.71067,3.88 -5.68533,7.57333 -8.548,11.36 -5.372,7.08 -11.32133,15.22667 -12.46133,24.32 -1.92267,15.32 12.50267,28.24 23.964,36.09333 4.64933,3.18667 12.08667,7.96 19.26933,9.68 0.252,2.6 0.24533,5.29333 -0.12,8.12 -3.71467,-5.53333 -7.78,-9.66667 -12.59867,-12.2 l -13.07467,37.52 c -4.29067,1.88 -8.292,3.98667 -11.232,7.28 M 53.29587,111.38935 c 0.47293,-1.80667 0.80987,-3.66133 1.10733,-5.508 0.67187,1.808 1.43173,3.444 2.2104,4.9 -0.44173,0.0147 -0.89013,0.0573 -1.34533,0.13333 v 0 0 c -0.0172,0.003 -0.0344,0.005 -0.0516,0.008 -0.67493,0.11467 -1.31613,0.27067 -1.9208,0.46667 m 169.63106,-0.36667 c 0.90267,-1.66 1.78533,-3.56267 2.54,-5.692 0.42933,1.84533 0.83467,3.69733 1.216,5.55867 -0.0213,-0.003 -0.0427,-0.007 -0.0627,-0.009 -0.24667,-0.0347 -0.48933,-0.0613 -0.732,-0.0787 -0.244,-0.0173 -0.48667,-0.0253 -0.72667,-0.0253 -0.76667,0 -1.512,0.0867 -2.23467,0.24667" /><path
         stroke-width="0.1"
         fill-rule="nonzero"
         fill="#fddfc1"
         id="path861"
         d="m 261.97227,568.20001 c 0,0 -2.98667,21.50667 -3.35733,25.57333 -0.37067,4.06667 -7.69333,19.36 -7.55067,24.05333 0.14267,4.68 3.51333,7.72 5.652,6.78667 2.13867,-0.94667 7.384,-15.97333 9.64667,-20.78667 2.26267,-4.81333 4.96,-24.4 4.96,-24.4 L 261.97227,568.2" /><path
         stroke-width="0.1"
         fill-rule="nonzero"
         fill="#f8bc8d"
         id="path863"
         d="m 255.88027,624.77334 c -2.08267,0 -4.69067,-2.84 -4.816,-6.94667 -0.001,-0.0533 -0.001,-0.0933 -0.001,-0.14667 0.001,-4.84 7.184,-19.88 7.552,-23.90667 0.152,-1.68 0.74533,-6.29333 1.39333,-11.14667 0.66,1.22667 1.18533,2.28 1.50933,2.98667 0.0733,0.17333 0.14933,0.34667 0.22667,0.54667 -0.29733,6.68 -0.68133,15.8 -0.68133,18.30667 0,3.21333 -3.636,13.68 -4.92667,20.29333 -0.084,0.0133 -0.16933,0.0133 -0.256,0.0133" /><path
         stroke-width="0.1"
         fill-rule="nonzero"
         fill="#fddfc1"
         id="path865"
         d="m 262.0856,578.69334 c 0,0 -1.02267,21.68 -1.02267,25.77333 0,4.09333 -5.904,19.98667 -5.336,24.64 0.568,4.65333 4.20133,7.37333 6.244,6.24 2.044,-1.13333 5.904,-16.57333 7.72133,-21.57333 1.816,-4.98667 2.724,-24.74667 2.724,-24.74667 l -10.33067,-10.33333" /><path
         stroke-width="0.1"
         fill-rule="nonzero"
         fill="#fbd1aa"
         id="path867"
         d="m 260.93894,635.60001 c -2.05067,0 -4.73067,-2.56 -5.212,-6.49333 -0.0253,-0.21333 -0.0373,-0.44 -0.0387,-0.69333 -0.0107,-5.37333 5.37467,-20.04 5.37467,-23.94667 0,-2.50667 0.384,-11.62667 0.68133,-18.30667 1.69733,4.34667 4.08267,16.57333 3.97333,18.41333 -0.092,1.56 0.48533,11.96 1.30933,17.8 -1.764,5.88 -3.76933,12.25333 -5.056,12.97333 -0.312,0.17333 -0.66133,0.25333 -1.032,0.25333" /><path
         stroke-width="0.1"
         fill-rule="nonzero"
         fill="#f8c9a3"
         id="path869"
         d="m 270.2656,537.36001 c 0,0 3.85333,22.02667 4.76267,30.44 0.908,8.4 0.34,30.98666 0.908,34.50666 0.568,3.52 0.34,23.05333 -0.68133,26.34667 -1.02133,3.29333 -6.472,0.56 -7.60667,-3.06667 -1.136,-3.64 -2.044,-19.08 -1.93067,-21.01333 0.11333,-1.92 -2.49733,-15.21333 -4.2,-18.96 -1.70267,-3.74667 -8.96933,-16.90667 -12.37467,-15.09333 -3.40667,1.81333 -4.656,11.01333 -5.45067,14.30667 -0.79467,3.29333 -6.35733,9.30667 -10.104,7.82667 -3.74667,-1.46667 -0.908,-8.4 0.908,-14.53333 1.81733,-6.12 1.136,-10.89333 2.15733,-19.18667 1.02267,-8.28 9.36667,-21.57333 9.36667,-21.57333 0,0 -13.3,-50.14666 -15.044,-65.73333 -1.744,-15.58667 0.90667,-41.09333 0.90667,-41.09333 0,0 -16.14,-76.30666 -28.56266,-112.59999 l 17.65733,-50.68 c 11.776,6.21333 19.06533,21.90667 27.684,44.46666 7.26933,19.04 18.064,80.45333 24.992,114.10666 0.28933,1.41333 0.41333,2.8 0.372,4.22667 -0.31867,11.09333 -1.84933,63.14666 -3.76,107.30666" /><path
         stroke-width="0.1"
         fill-rule="nonzero"
         fill="#fce3ce"
         id="path871"
         d="m 234.49627,578.12001 c 1.788,-6.02667 1.156,-10.74667 2.11067,-18.8 -0.95467,8.05333 -0.32267,12.77333 -2.11067,18.8 M 230.3816,458.74668 c 0.001,-11.49333 1.044,-23.42667 1.39067,-27.08 -0.34667,3.65333 -1.38933,15.58667 -1.39067,27.08 m 38.65866,-56.14666 c -6.42133,-32.93333 -14.30267,-74.24 -20.07867,-90.06666 5.77733,15.82667 13.65733,57.12 20.08,90.06666 v 0 m -20.08133,-90.07999 c -0.028,-0.0667 -0.056,-0.14667 -0.0827,-0.22667 0.0267,0.08 0.0547,0.14667 0.0827,0.22667 m -0.088,-0.24 c -0.005,-0.0133 -0.0107,-0.0267 -0.016,-0.04 0.005,0.0133 0.0107,0.0267 0.016,0.04 m -0.0213,-0.0533 c -0.004,-0.0133 -0.009,-0.0267 -0.0147,-0.04 0.005,0.0133 0.009,0.0267 0.0147,0.04 m -0.02,-0.0533 c -0.007,-0.0133 -0.0133,-0.04 -0.02,-0.0533 0.007,0.0133 0.0133,0.04 0.02,0.0533 m -0.0227,-0.0667 c -0.005,-0.0133 -0.0107,-0.0267 -0.016,-0.04 0.005,0.0133 0.0107,0.0267 0.016,0.04 m -0.0227,-0.0533 c -0.004,-0.0133 -0.009,-0.0267 -0.0133,-0.04 0.005,0.0133 0.009,0.0267 0.0133,0.04 m -0.02,-0.0533 c -0.02,-0.0533 -0.0413,-0.10667 -0.0613,-0.16 0.0213,0.0533 0.0413,0.10667 0.0613,0.16 m -0.064,-0.17333 c -0.005,-0.0133 -0.0107,-0.0267 -0.016,-0.04 0.005,0.0133 0.0107,0.0267 0.016,0.04 m -0.02,-0.0533 c -0.007,-0.0133 -0.0133,-0.04 -0.02,-0.0533 0.007,0.0133 0.012,0.04 0.02,0.0533" /><path
         stroke-width="0.1"
         fill-rule="nonzero"
         fill="#f5b587"
         id="path873"
         d="m 234.82694,592.88001 c -0.428,0 -0.844,-0.0667 -1.23867,-0.22667 v 0 c -1.34667,-0.52 -1.84267,-1.76 -1.84133,-3.41333 0.003,-2.93333 1.58667,-7.18667 2.74933,-11.12 v 0 c 1.788,-6.02667 1.156,-10.74667 2.11067,-18.8 0.0147,-0.12 0.0307,-0.25333 0.0467,-0.38667 1.02267,-8.28 9.36667,-21.57333 9.36667,-21.57333 v 0 0 c 0,0 -0.112,-0.42667 -0.31733,-1.2 -2.028,-7.72 -13.14267,-50.37333 -14.72667,-64.53333 -0.43333,-3.86667 -0.59467,-8.33333 -0.59467,-12.88 0.001,-11.49333 1.044,-23.42667 1.39067,-27.08 0.068,-0.73333 0.11067,-1.13333 0.11067,-1.13333 v 0 0 c 0,0 -16.14,-76.30666 -28.56266,-112.59999 l 17.65733,-50.68 c 11.776,6.21333 19.06533,21.90667 27.684,44.46666 v 0 c 0.007,0.0133 0.0133,0.04 0.02,0.0533 0.001,0 0.001,0.0133 0.004,0.0133 0.005,0.0133 0.0107,0.0267 0.016,0.04 0.001,0 0.003,0.0133 0.003,0.0133 0.02,0.0533 0.0413,0.10667 0.0613,0.16 0.003,0 0.004,0.0133 0.007,0.0133 0.004,0.0133 0.009,0.0267 0.0133,0.04 0.001,0 0.004,0.0133 0.007,0.0133 0.005,0.0133 0.0107,0.0267 0.016,0.04 0.001,0.0133 0.003,0.0133 0.003,0.0133 0.007,0.0133 0.0133,0.04 0.02,0.0533 0.001,0 0.004,0.0133 0.005,0.0133 0.005,0.0133 0.0107,0.0267 0.0147,0.04 0.003,0 0.004,0.0133 0.005,0.0133 0.005,0.0133 0.0107,0.0267 0.016,0.04 0.001,0.0133 0.004,0.0133 0.005,0.0133 0.0267,0.08 0.0547,0.16 0.0827,0.22667 l 0.001,0.0133 c 5.776,15.82667 13.65733,57.13333 20.07867,90.06666 -8.18667,4.89333 -16.236,10.10667 -25.592,12.48 -0.26267,0.0667 -0.50267,0.34667 -0.48,0.62667 1.23467,15.49333 3.364,30.88 5.776,46.21333 2.19067,13.93333 5.37867,27.96 6.56667,42 1.024,12.09333 -0.864,24.13333 -4.03467,35.77333 -4.87333,17.90667 -12.376,35.08 -16.26933,53.18666 -0.06,0 -0.12,0 -0.18,0" /><path
         stroke-width="0.1"
         fill-rule="nonzero"
         fill="#f8c9a3"
         id="path875"
         d="M 124.91895,975.09311 H 25.06042 c -8.71973,-15.25312 20.0568,-21.61299 31.83493,-28.33338 7.6688,-4.37333 34.88693,-10.13333 34.88693,-24.41293 0,-11.93387 -1.14947,-26.2 -2.81707,-41.64013 h 40.99506 c -2.15733,14.2 -3.92133,27.77347 -4.168,41.64013 -0.70533,39.6796 -0.87333,52.74632 -0.87333,52.74632" /><path
         stroke-width="0.1"
         fill-rule="nonzero"
         fill="#f8c9a3"
         id="path877"
         d="m 157.18294,975.09311 h 99.85866 c 8.72,-15.25312 -20.05733,-21.61299 -31.83466,-28.33338 -7.66933,-4.37333 -34.88666,-10.13333 -34.88666,-24.41293 0,-11.93387 1.14933,-26.2 2.816,-41.64013 h -40.99466 c 2.15733,14.2 3.92267,27.77347 4.168,41.64013 0.70533,39.6796 0.87333,52.74632 0.87333,52.74632" /><path
         stroke-width="0.1"
         fill-rule="nonzero"
         fill="#fdeede"
         id="path879"
         d="m 91.63908,914.62639 c -0.0031,0 -0.0068,-0.0129 -0.0099,-0.0129 -0.3536,-10.1068 -1.32653,-21.49373 -2.63227,-33.6136 1.3052,12.11987 2.28853,23.51987 2.64213,33.62653 m -2.64373,-33.64 c -0.0099,-0.0933 -0.01973,-0.18653 -0.03013,-0.27973 v 0 c 0.0104,0.0932 0.02027,0.1864 0.03013,0.27973"
         style="fill:#ff00ff" /><path
         stroke-width="0.1"
         fill-rule="nonzero"
         fill="#f8bf91"
         id="path881"
         d="m 101.87241,953.48012 c 5.5972,-10.14693 9.2332,-21.28027 9.97053,-33.3204 0.0213,-0.34627 -0.31733,-0.65307 -0.65467,-0.65307 -6.75467,-0.0803 -13.65747,-1.55987 -19.5492,-4.88027 -0.3536,-10.10667 -1.33693,-21.50667 -2.64213,-33.62653 -5.3e-4,-0.0135 -0.0011,-0.0135 -0.0016,-0.0135 -0.0099,-0.0933 -0.01973,-0.18653 -0.03013,-0.27973 h 40.99506 c -2.15733,14.2 -3.92133,27.77347 -4.168,41.64013 -0.20933,11.7864 -0.372,21.21293 -0.496,28.66666 -0.33333,0.0396 -0.668,0.0796 -1.008,0.11973 -6.304,0.78653 -13.66533,1.8136 -21.37867,2.27973 -10e-4,0 -10e-4,0 -10e-4,0 -0.344,0.0271 -0.69067,0.0401 -1.03587,0.0672" /><path
         stroke-width="0.1"
         fill-rule="nonzero"
         fill="#fdeede"
         id="path883"
         d="m 190.47628,914.25306 c 0.36667,-10.09333 1.35467,-21.46667 2.66,-33.5464 v 0 c -1.30533,12.0932 -2.284,23.45307 -2.652,33.5464 -0.003,0 -0.005,0 -0.008,0" /><path
         stroke-width="0.1"
         fill-rule="nonzero"
         fill="#f8bf91"
         id="path885"
         d="m 180.02161,953.46652 c -0.912,-0.0536 -1.82,-0.1068 -2.72267,-0.17347 -10e-4,0 -0.003,0 -0.004,-0.0129 -7.43067,-0.53387 -14.47867,-1.53387 -20.48933,-2.26667 -0.124,-7.45373 -0.28667,-16.88027 -0.496,-28.66666 -0.24533,-13.86667 -2.01067,-27.44013 -4.168,-41.64013 h 40.99466 c -1.30533,12.07973 -2.29333,23.45307 -2.66,33.5464 -4.212,2.09373 -8.66533,3.81347 -13.21733,3.81347 -1.03333,0 -2.07067,-0.0801 -3.112,-0.28013 -0.044,0 -0.092,-0.0131 -0.14,-0.0131 -0.29067,0 -0.62,0.1464 -0.664,0.46667 -1.69467,12.27973 0.64267,24.6932 6.67867,35.22653" /><path
         stroke-width="0.1"
         fill-rule="nonzero"
         fill="#2d2e30"
         id="path887"
         d="m 208.33227,461.16002 c 0,0 15.91467,52.65333 18.09467,70.96 2.18,18.30667 -7.34933,128.19999 -13.99867,179.21332 0,0 -4.096,83.04 -17.39467,193.57332 0,0 -6.96,5.66667 -19.184,5.66667 -23.76533,0 -27.032,-5.8932 -27.032,-5.8932 0,0 -9.15333,-100.49346 -2.61333,-193.34679 0,0 -2.89467,-129.07999 -6.53867,-168.30666 -3.64267,39.22666 -6.54,168.30666 -6.54,168.30666 6.54,92.85333 -2.61333,193.34679 -2.61333,193.34679 0,0 -3.26667,5.8932 -27.032,5.8932 -12.22453,0 -19.18387,-5.66667 -19.18387,-5.66667 C 70.99747,794.37333 66.9016,711.33334 66.9016,711.33334 60.25213,660.32001 50.72293,550.42668 52.9032,532.12002 c 2.18013,-18.30667 18.09427,-70.96 18.09427,-70.96 h 137.33479"
         name="pantalon"
         color="2d2e30" /><path
         stroke-width="0.1"
         fill-rule="nonzero"
         fill="#a38fa1"
         id="path889"
         d="m 22.23189,982.50665 h 106.47773 v -4.13333 c 0,-0.35989 -0.29333,-0.65364 -0.65467,-0.65364 H 22.88762 c -0.36253,0 -0.65573,0.29375 -0.65573,0.65364 v 4.13333" /><path
         stroke-width="0.1"
         fill-rule="nonzero"
         fill="#ffffff"
         id="path891"
         d="m 23.54282,977.71968 -0.75373,-1.3198 c -2.02547,-3.54687 -2.48853,-7.01353 -1.37707,-10.29323 2.69373,-7.95987 14.0844,-12.75987 24.13387,-16.98693 3.826,-1.61307 7.44067,-3.1464 10.05307,-4.62667 2.86107,-1.64 5.83133,-3.51973 8.69533,-5.50667 5.84067,0.97333 10.98907,2.84 14.40787,4.30667 2.40573,1.04013 2.95213,4.26667 0.96093,5.97347 -1.80413,1.53333 -3.3588,2.27973 -3.3588,2.27973 16.95,4.2672 36.09866,1 49.69333,-0.62653 1.00933,-0.11987 1.90533,0.70667 1.888,1.73333 -0.26933,16.18693 -0.35067,22.38693 -0.352,22.48016 l -0.032,2.58647 h -2.58267 -99.85853 -1.5176" /><path
         stroke-width="0.1"
         fill-rule="nonzero"
         fill="#a38fa1"
         id="path893"
         d="M 259.87094,982.50665 H 153.39228 v -4.13333 c 0,-0.35989 0.29333,-0.65364 0.656,-0.65364 h 105.16666 c 0.36133,0 0.656,0.29375 0.656,0.65364 v 4.13333" /><path
         stroke-width="0.1"
         fill-rule="nonzero"
         fill="#ffffff"
         id="path895"
         d="m 258.56027,977.71968 0.752,-1.3198 c 2.02667,-3.54687 2.48933,-7.01353 1.37733,-10.29323 -2.69333,-7.95987 -14.084,-12.75987 -24.13333,-16.98693 -3.82533,-1.61307 -7.44,-3.1464 -10.05333,-4.62667 -2.86133,-1.64 -5.83067,-3.51973 -8.69467,-5.50667 -5.84133,0.97333 -10.98933,2.84 -14.408,4.30667 -2.40533,1.04013 -2.952,4.26667 -0.96133,5.97347 1.804,1.53333 3.35867,2.27973 3.35867,2.27973 -16.94933,4.2672 -36.09866,1 -49.69333,-0.62653 -1.00933,-0.11987 -1.904,0.70667 -1.888,1.73333 0.26933,16.18693 0.35067,22.38693 0.352,22.48016 l 0.0333,2.58647 h 2.58133 99.85866 1.51867" /><path
         stroke-width="0.1"
         fill-rule="nonzero"
         fill="#8b8494"
         id="path897"
         d="M 128.70961,982.50665 H 76.74428 c 2.18387,-1.52031 4.31933,-3.10677 6.38133,-4.78697 v 0 0 h 44.29866 c 0.71067,0 1.28533,0.57343 1.28533,1.2802 v 3.50677" /><path
         stroke-width="0.1"
         fill-rule="nonzero"
         fill="#d0b186"
         id="path899"
         d="m 102.90828,953.41292 c 0,0 0,0 10e-4,0 7.71333,-0.46613 15.07467,-1.4932 21.37867,-2.27973 -6.30533,0.78653 -13.66667,1.82653 -21.38,2.27973" /><path
         stroke-width="0.1"
         fill-rule="nonzero"
         fill="#d6ece6"
         id="path901"
         d="m 127.88561,952.58639 c -0.0213,-0.91987 -0.788,-1.67973 -1.692,-1.67973 v 0 c 0.904,0 1.67067,0.75987 1.692,1.67973" /><path
         stroke-width="0.1"
         fill-rule="nonzero"
         fill="#d6ece6"
         id="path903"
         d="m 127.50161,977.71968 h -44.376 c 2.02813,-1.66667 4.014,-3.38647 5.92707,-5.2 5.6792,-5.38649 11.4244,-11.51983 13.8556,-19.10676 7.71333,-0.4532 15.07467,-1.4932 21.38,-2.27973 0.58,-0.0667 1.14933,-0.1468 1.71067,-0.21347 0.0653,0 0.13067,-0.0131 0.19467,-0.0131 0.904,0 1.67067,0.75987 1.692,1.67973 0,0.0135 0,0.0271 0,0.04 0,0.0136 0,0.0136 0,0.0267 -0.26933,16.18693 -0.35067,22.38693 -0.352,22.48016 l -0.032,2.58647" /><path
         stroke-width="0.1"
         fill-rule="nonzero"
         fill="#8b8494"
         id="path905"
         d="m 223.73627,982.50665 h -70.344 v -3.50677 c 0,-0.70677 0.576,-1.2802 1.28667,-1.2802 h 52.99333 v 0 c 4.18933,1.6802 8.50933,3.06667 12.904,4.13333 1.044,0.25364 2.108,0.44009 3.16,0.65364" /><path
         stroke-width="0.1"
         fill-rule="nonzero"
         fill="#d6ece6"
         id="path907"
         d="m 156.80561,951.01345 c -0.02,-0.0136 -0.0413,-0.0136 -0.0613,-0.0136 0.02,0 0.0413,0 0.0613,0.0136 v 0 m -0.104,-0.0136 c -0.012,0 -0.0213,-0.0135 -0.0333,-0.0135 0.0107,0 0.0213,0.0135 0.0333,0.0135 m -0.16,-0.0265 c -0.001,0 -0.003,0 -0.004,0 0.001,0 0.003,0 0.004,0 m -0.288,-0.0265 c -0.003,0 -0.007,0 -0.009,0 0.003,0 0.007,0 0.009,0" /><path
         stroke-width="0.1"
         fill-rule="nonzero"
         fill="#d0b186"
         id="path909"
         d="m 177.29894,953.29305 c -7.43467,-0.53333 -14.48,-1.5468 -20.49333,-2.2796 v 0 c 6.01067,0.7328 13.05867,1.7328 20.48933,2.26667 0.001,0.0129 0.003,0.0129 0.004,0.0129" /><path
         stroke-width="0.1"
         fill-rule="nonzero"
         fill="#d6ece6"
         id="path911"
         d="m 207.67227,977.71968 h -53.07066 l -0.0333,-2.58647 c -0.001,-0.0932 -0.0827,-6.29323 -0.352,-22.48016 0,-0.0131 0,-0.0131 0,-0.0267 -0.003,-0.93333 0.77333,-1.71973 1.692,-1.71973 0.064,0 0.12933,0.0131 0.196,0.0131 0.0467,0.0135 0.0933,0.0135 0.14,0.0271 0.003,0 0.007,0 0.009,0 0.0947,0 0.188,0.0129 0.284,0.0265 0.001,0 0.003,0 0.004,0 0.0427,0.0131 0.0853,0.0131 0.12667,0.0131 0.012,0 0.0213,0.0135 0.0333,0.0135 0.0147,0 0.028,0 0.0427,0 0.02,0 0.0413,0 0.0613,0.0136 v 0 c 6.01333,0.7328 13.05867,1.74627 20.49333,2.2796 4.34133,6.2532 9.07067,12.16 15.48533,16.53339 4.66,3.18699 9.672,5.78699 14.888,7.89324" /><path
         stroke-width="0.1"
         fill-rule="nonzero"
         fill="#f8c9a3"
         id="path913"
         d="m 196.67094,254.01336 -35.66933,-17.82667 v -39.57333 h -39.89066 v 39.57333 l -35.6724,17.82667 v 81.76 h 111.23239 v -81.76" /><path
         stroke-width="0.1"
         fill-rule="nonzero"
         fill="#e8bc95"
         id="path915"
         d="m 148.14961,275.48003 c 0.001,0 2.32667,-2 4.97467,-4.34667 1.04667,-0.93333 2.348,-1.50667 3.736,-1.65333 4.972,-0.53333 16.88,-1.92 24.31467,-3.94667 0.26533,-0.08 0.42267,-0.34667 0.34933,-0.61333 -0.072,-0.26667 -0.34667,-0.42667 -0.61333,-0.36 -7.30267,2 -19.20933,3.4 -24.15467,3.92 -1.59867,0.17333 -3.096,0.84 -4.296,1.90667 -1.32,1.17333 -2.56133,2.25333 -3.472,3.04 -0.90933,0.8 -1.488,1.29333 -1.48933,1.29333 -0.20933,0.17333 -0.23333,0.49333 -0.0547,0.70667 0.18,0.2 0.496,0.22667 0.70533,0.0533" /><path
         stroke-width="0.1"
         fill-rule="nonzero"
         fill="#e8bc95"
         id="path917"
         d="m 134.61095,274.72003 c -0.001,0 -0.58,-0.49333 -1.49067,-1.29333 -0.90933,-0.78667 -2.15067,-1.86667 -3.47067,-3.04 -1.2,-1.06667 -2.69733,-1.73333 -4.296,-1.90667 -4.94533,-0.52 -16.85333,-1.92 -24.15467,-3.92 -0.26613,-0.0667 -0.54107,0.0933 -0.614,0.36 -0.0729,0.26667 0.0844,0.53333 0.35053,0.61333 7.43413,2.02667 19.34213,3.41333 24.31413,3.94667 1.388,0.14667 2.68933,0.72 3.736,1.65333 2.648,2.34667 4.97333,4.34667 4.97467,4.34667 0.20933,0.17333 0.52533,0.14667 0.704,-0.0533 0.18,-0.21333 0.156,-0.53333 -0.0533,-0.70667" /><path
         stroke-width="0.1"
         fill-rule="nonzero"
         fill="#f5b587"
         id="path919"
         d="m 139.61361,219.85336 c -2.02667,0 -4.04667,-0.26667 -6.02267,-0.89333 -4.44533,-1.4 -8.31467,-4.08 -12.48,-6.12 v -8.69333 c 4.33867,2.12 8.89467,4.08 13.62933,5.77333 2.03733,0.73333 4.176,1.09333 6.31467,1.09333 2.13867,0 4.27733,-0.36 6.31467,-1.09333 4.736,-1.69333 9.29333,-3.65333 13.632,-5.77333 v 9.44 c -2.556,1.17333 -5.128,2.29333 -7.75733,3.28 -4.30667,1.6 -8.98933,2.98667 -13.63067,2.98667" /><path
         stroke-width="0.1"
         fill-rule="nonzero"
         fill="#fddfc1"
         id="path921"
         d="m 17.84695,568.20001 c 0,0 2.98533,21.50667 3.35627,25.57333 0.37133,4.06667 7.6932,19.36 7.55107,24.05333 -0.14333,4.68 -3.5136,7.72 -5.65213,6.78667 -2.13853,-0.94667 -7.3844,-15.97333 -9.6464,-20.78667 -2.2624,-4.81333 -4.9604,-24.4 -4.9604,-24.4 L 17.84696,568.2" /><path
         stroke-width="0.1"
         fill-rule="nonzero"
         fill="#f8bc8d"
         id="path923"
         d="m 23.93802,624.77334 c -0.0864,0 -0.17187,0 -0.25613,-0.0133 -1.29067,-6.61333 -4.9272,-17.08 -4.9272,-20.29333 0,-2.50667 -0.38373,-11.62667 -0.68067,-18.30667 0.07707,-0.2 0.15267,-0.37333 0.22653,-0.54667 0.324,-0.70667 0.84893,-1.76 1.50987,-2.98667 0.64693,4.85333 1.24067,9.46667 1.3928,11.14667 0.3672,4.02667 7.55107,19.06667 7.55253,23.90667 5.3e-4,0.0533 -5.3e-4,0.0933 -0.0015,0.14667 -0.1256,4.10667 -2.73387,6.94667 -4.81627,6.94667" /><path
         stroke-width="0.1"
         fill-rule="nonzero"
         fill="#fddfc1"
         id="path925"
         d="m 17.73282,578.69334 c 0,0 1.02187,21.68 1.02187,25.77333 0,4.09333 5.90427,19.98667 5.33653,24.64 -0.56827,4.65333 -4.20107,7.37333 -6.24427,6.24 -2.04373,-1.13333 -5.90413,-16.57333 -7.7208,-21.57333 -1.81613,-4.98667 -2.72453,-24.74667 -2.72453,-24.74667 l 10.3312,-10.33333" /><path
         stroke-width="0.1"
         fill-rule="nonzero"
         fill="#fbd1aa"
         id="path927"
         d="m 18.87869,635.60001 c -0.37027,0 -0.71973,-0.08 -1.03173,-0.25333 -1.28653,-0.72 -3.29227,-7.09333 -5.0552,-12.97333 0.82387,-5.84 1.4,-16.24 1.3088,-17.8 -0.1088,-1.84 2.2756,-14.06667 3.97347,-18.41333 0.29693,6.68 0.68067,15.8 0.68067,18.30667 0,3.89333 5.3636,18.52 5.37453,23.90667 0.0011,0.26667 -0.01147,0.50667 -0.038,0.73333 -0.4812,3.93333 -3.162,6.49333 -5.21253,6.49333" /><path
         stroke-width="0.1"
         fill-rule="nonzero"
         fill="#f8c9a3"
         id="path929"
         d="m 9.55215,537.36001 c 0,0 -3.8536,22.02667 -4.762,30.44 -0.90827,8.4 -0.34067,30.98666 -0.90827,34.50666 -0.56773,3.52 -0.34013,23.05333 0.68173,26.34667 1.02133,3.29333 6.4708,0.56 7.6068,-3.06667 1.1348,-3.64 2.0432,-19.08 1.93013,-21.01333 -0.114,-1.92 2.49747,-15.21333 4.2,-18.96 1.7032,-3.74667 8.96933,-16.90667 12.37507,-15.09333 3.40627,1.81333 4.6552,11.01333 5.45,14.30667 0.79427,3.29333 6.35773,9.30667 10.10413,7.82667 3.74693,-1.46667 0.9088,-8.4 -0.9084,-14.53333 -1.81613,-6.12 -1.1348,-10.89333 -2.1572,-19.18667 -1.02133,-8.28 -9.36613,-21.57333 -9.36613,-21.57333 0,0 13.30053,-50.14666 15.04373,-65.73333 1.74427,-15.58667 -0.90573,-41.09333 -0.90573,-41.09333 0,0 16.1396,-76.30666 28.562,-112.59999 l -17.6584,-50.68 c -11.77547,6.21333 -19.064,21.90667 -27.68173,44.46666 -7.27133,19.04 -18.06507,80.45333 -24.99373,114.10666 -0.28907,1.41333 -0.41307,2.8 -0.37187,4.22667 0.31813,11.09333 1.85,63.14666 3.75987,107.30666" /><path
         stroke-width="0.1"
         fill-rule="nonzero"
         fill="#fce3ce"
         id="path931"
         d="m 49.43602,458.74668 c -0.0016,-11.49333 -1.0432,-23.42667 -1.3896,-27.08 0.3464,3.65333 1.388,15.58667 1.3896,27.08 M 10.77709,402.60002 v 0 c 6.47867,-33.22666 14.44013,-74.96 20.2308,-90.47999 -5.79013,15.52 -13.75213,57.25333 -20.2308,90.47999 m 20.2324,-90.47999 c 0.0061,-0.0267 0.0124,-0.04 0.01813,-0.0533 -0.0063,0.0133 -0.012,0.0267 -0.01813,0.0533 m 0.02133,-0.0667 c 0.0063,-0.0133 0.01147,-0.0267 0.01773,-0.04 -0.0057,0.0133 -0.012,0.0267 -0.01773,0.04 m 0.02133,-0.0533 c 0.01347,-0.04 0.02707,-0.0667 0.04067,-0.10667 -0.01307,0.0267 -0.0272,0.0667 -0.04067,0.10667 m 0.04267,-0.12 c 0.0063,-0.0133 0.01253,-0.0267 0.0188,-0.04 -0.0063,0.0133 -0.01253,0.0267 -0.0188,0.04 m 0.02187,-0.0533 c 0.0057,-0.0133 0.01093,-0.0267 0.01667,-0.04 -0.0057,0.0133 -0.01093,0.0267 -0.01667,0.04 m 0.02093,-0.0533 c 0.0067,-0.0133 0.01293,-0.04 0.02027,-0.0533 -0.0068,0.0133 -0.0136,0.04 -0.02027,0.0533" /><path
         stroke-width="0.1"
         fill-rule="nonzero"
         fill="#f5b587"
         id="path933"
         d="m 44.99175,592.88001 c -0.05987,0 -0.11987,0 -0.18027,0 -3.89373,-18.10667 -11.39587,-35.28 -16.2692,-53.18666 -3.1704,-11.64 -5.05893,-23.68 -4.03547,-35.77333 1.18853,-14.04 4.37653,-28.06666 6.56667,-42 2.41307,-15.33333 4.5412,-30.72 5.77707,-46.21333 0.02187,-0.28 -0.21867,-0.56 -0.48013,-0.62667 -9.35627,-2.37333 -17.4052,-7.58667 -25.59333,-12.48 6.47867,-33.22666 14.44067,-74.96 20.2308,-90.47999 5.3e-4,0 0.0011,0 0.0016,0 0.0061,-0.0267 0.01187,-0.04 0.01813,-0.0533 0.0011,0 0.0021,-0.0133 0.0032,-0.0133 0.0057,-0.0133 0.012,-0.0267 0.01773,-0.04 9.3e-4,-0.0133 0.0025,-0.0133 0.0036,-0.0133 0.01347,-0.04 0.0276,-0.08 0.04067,-0.10667 9.3e-4,0 0.0015,0 0.002,-0.0133 0.0063,-0.0133 0.01253,-0.0267 0.0188,-0.04 0.0011,0 0.002,-0.0133 0.0031,-0.0133 0.0057,-0.0133 0.01093,-0.0267 0.01667,-0.04 0.0016,0 0.0027,-0.0133 0.0043,-0.0133 0.0067,-0.0133 0.01347,-0.04 0.02027,-0.0533 v 0 c 8.61827,-22.56 15.9068,-38.25333 27.68173,-44.46666 l 17.6584,50.68 c -12.4224,36.29333 -28.562,112.59999 -28.562,112.59999 v 0 0 c 0,0 0.04107,0.4 0.1104,1.13333 0.3464,3.65333 1.388,15.58667 1.3896,27.08 5.3e-4,4.54667 -0.16147,9.01333 -0.59427,12.88 -1.58333,14.16 -12.69893,56.81333 -14.72653,64.53333 -0.2052,0.77333 -0.3172,1.2 -0.3172,1.2 v 0 0 c 0,0 8.3448,13.29333 9.36613,21.57333 1.0224,8.29333 0.34107,13.06667 2.1572,19.18667 1.16413,3.93333 2.74693,8.18667 2.7496,11.12 9.3e-4,1.65333 -0.4948,2.89333 -1.8412,3.41333 v 0 c -0.3948,0.16 -0.8104,0.22667 -1.238,0.22667" /><path
         stroke-width="0.1"
         fill-rule="nonzero"
         fill="#f8c9a3"
         id="path935"
         d="m 208.85494,125.3027 c 0,0 7.128,-16.18133 17.98533,-14.388 11.88133,1.96133 12.75333,17.004 6.21333,31.06533 -6.54,14.06 -15.91467,17.76667 -24.19867,12.752 V 125.3027" /><path
         stroke-width="0.1"
         fill-rule="nonzero"
         fill="#1d3137"
         id="path937"
         d="m 233.88161,123.57204 c -0.028,-0.0773 -0.56533,-1.70533 -1.82267,-3.41733 -0.62933,-0.85467 -1.44667,-1.73467 -2.50667,-2.424 -1.056,-0.68667 -2.37733,-1.16933 -3.88533,-1.16667 -1.36,-0.001 -2.84133,0.384 -4.408,1.22933 -2.604,1.408 -4.492,3.84267 -5.92667,6.6 -2.14667,4.14533 -3.30667,9.11867 -3.96667,13.084 -0.65333,3.96267 -0.788,6.912 -0.79067,6.948 -0.0333,0.736 0.536,1.36 1.27067,1.392 0.736,0.0347 1.36,-0.53467 1.39333,-1.27067 0,0 0.004,-0.068 0.012,-0.21467 0.064,-1.092 0.436,-6.20933 1.81733,-11.53467 0.688,-2.66133 1.63067,-5.37067 2.876,-7.63467 1.244,-2.27067 2.78,-4.06 4.57733,-5.02133 1.25733,-0.67467 2.288,-0.90933 3.14533,-0.91067 0.95067,0.003 1.728,0.28267 2.436,0.73867 1.05733,0.67733 1.90667,1.79733 2.456,2.76 0.276,0.48 0.48,0.916 0.612,1.22533 0.0653,0.15467 0.11333,0.276 0.144,0.35733 l 0.032,0.0867 0.005,0.0187 0.132,-0.0453 -0.132,0.044 v 10e-4 l 0.132,-0.0453 -0.132,0.044 c 0.23333,0.69867 0.988,1.076 1.68667,0.84267 0.69867,-0.232 1.076,-0.988 0.84267,-1.68667" /><path
         stroke-width="0.1"
         fill-rule="nonzero"
         fill="#0f0e0e"
         id="path939"
         d="m 222.92694,111.0227 v 0 c 0.72267,-0.16 1.468,-0.24667 2.23467,-0.24667 0.24,0 0.48267,0.008 0.72667,0.0253 -0.24533,-0.0173 -0.48667,-0.0253 -0.72667,-0.0253 -0.76667,0 -1.512,0.0867 -2.23467,0.24667" /><path
         stroke-width="0.1"
         fill-rule="nonzero"
         fill="#f5b587"
         id="path941"
         d="m 215.95627,156.83337 c -1.388,0 -2.776,-0.236 -4.148,-0.70667 1.95067,-7.596 4.372,-18.26667 6.72933,-31.97466 0.64133,-1.016 1.348,-1.90933 2.11867,-2.64 -0.0627,0.22133 -0.11867,0.44667 -0.16533,0.67733 -0.85067,4.168 -0.62,8.66667 -1.076,12.89733 -0.512,4.76133 -1.84533,9.384 -2.29733,14.14667 -0.22133,2.32933 -0.17333,4.964 0.28533,7.51467 -0.48133,0.0573 -0.964,0.0853 -1.44667,0.0853 m 3.42933,-37.76 c 0.176,-1.09333 0.352,-2.20133 0.52667,-3.328 0.91867,-1.23333 1.97867,-2.81733 3.01467,-4.72267 0.72267,-0.16 1.468,-0.24667 2.23467,-0.24667 0.24,0 0.48133,0.008 0.72667,0.0253 0.24267,0.0173 0.48533,0.044 0.732,0.0787 0.02,0.003 0.0413,0.007 0.0627,0.009 0.052,0.008 0.10533,0.016 0.15733,0.0253 v 0 c 0.47067,0.0773 0.896,0.20933 1.332,0.328 -1.47067,2.016 -3.404,3.772 -4.988,5.724 -0.62533,0.19733 -1.268,0.472 -1.92533,0.82667 -0.67067,0.36267 -1.29333,0.79333 -1.87333,1.28" /><path
         stroke-width="0.1"
         fill-rule="nonzero"
         fill="#1b2c2f"
         id="path943"
         d="m 218.53761,124.15204 c 0.284,-1.648 0.56667,-3.34267 0.848,-5.07867 0.58,-0.48667 1.20267,-0.91733 1.87333,-1.28 0.65733,-0.35467 1.3,-0.62933 1.92533,-0.82667 -1.10667,1.36533 -2.04267,2.828 -2.528,4.54533 -0.77067,0.73067 -1.47733,1.624 -2.11867,2.64" /><path
         stroke-width="0.1"
         fill-rule="nonzero"
         fill="#f8c9a3"
         id="path945"
         d="m 73.25268,125.3027 c 0,0 -7.12653,-16.18133 -17.9844,-14.388 -11.8812,1.96133 -12.7536,17.004 -6.2136,31.06533 6.54013,14.06 15.91467,17.76667 24.198,12.752 V 125.3027" /><path
         stroke-width="0.1"
         fill-rule="nonzero"
         fill="#1d3137"
         id="path947"
         d="m 50.75628,124.41604 0.0011,-0.003 c 0.0312,-0.1 0.54427,-1.51333 1.53173,-2.80133 0.49173,-0.64667 1.09533,-1.256 1.78227,-1.68533 0.69227,-0.43067 1.44907,-0.69333 2.3704,-0.696 0.8572,0.001 1.88693,0.236 3.1448,0.91067 1.9172,1.024 3.538,2.996 4.82293,5.48 1.93333,3.71467 3.076,8.48133 3.70147,12.29067 0.3152,1.90533 0.5052,3.57333 0.61667,4.76 0.0552,0.59333 0.0912,1.06667 0.11253,1.38933 0.01093,0.16133 0.01827,0.28533 0.02293,0.36667 l 0.0063,0.11867 c 0.03333,0.736 0.6568,1.30533 1.39213,1.27067 0.736,-0.032 1.3052,-0.656 1.27187,-1.392 -0.0036,-0.0493 -0.23907,-5.272 -1.6348,-11.18133 -0.70107,-2.956 -1.68853,-6.08533 -3.12187,-8.85067 -1.43547,-2.75733 -3.32293,-5.192 -5.92667,-6.6 -1.56667,-0.84533 -3.0484,-1.23067 -4.40827,-1.22933 -1.50947,-0.003 -2.8308,0.48 -3.886,1.16667 -1.5896,1.03733 -2.6348,2.48933 -3.31773,3.66933 -0.68013,1.184 -0.9916,2.11467 -1.01187,2.172 -0.2328,0.69867 0.1448,1.45467 0.8432,1.68667 0.6984,0.23333 1.4536,-0.144 1.68693,-0.84267" /><path
         stroke-width="0.1"
         fill-rule="nonzero"
         fill="#0f0e0e"
         id="path949"
         d="m 55.21668,110.9227 c 0.0172,-0.003 0.0344,-0.005 0.0516,-0.008 -0.01773,0.003 -0.03387,0.005 -0.0516,0.008 m 0.0516,-0.008 c 0.4552,-0.076 0.9036,-0.11867 1.34533,-0.13333 v 0 c -0.44227,0.0147 -0.8896,0.0573 -1.34533,0.13333" /><path
         stroke-width="0.1"
         fill-rule="nonzero"
         fill="#f5b587"
         id="path951"
         d="m 66.12095,156.8307 c -0.0037,0 -0.0073,0 -0.01093,0 -1.90533,-6.648 -3.05053,-13.556 -3.95533,-20.352 -0.63173,-4.748 -1.04467,-10.03733 -3.30147,-14.35067 -0.548,-1.04667 -1.27133,-1.97067 -2.01413,-2.88 0.774,0.064 1.67813,0.32 2.74747,0.89333 1.52133,0.812 2.85573,2.22133 3.9844,4.01067 2.3572,13.70533 4.77707,24.37467 6.7276,31.972 -1.38133,0.472 -2.77973,0.70667 -4.1776,0.70667 m -3.91573,-38.16933 c -0.42907,-0.32 -0.88013,-0.61067 -1.3552,-0.868 -1.56453,-0.844 -3.0448,-1.22933 -4.40253,-1.22933 -0.0021,0 -0.0037,0 -0.0057,0 -0.0041,0 -0.0084,0 -0.01253,0 -0.5364,0 -1.04947,0.0613 -1.53493,0.17067 -0.3072,-0.46 -0.58693,-0.93867 -0.82293,-1.448 -0.55,-1.18667 -0.93533,-2.42933 -1.34107,-3.664 0.774,-0.29733 1.588,-0.548 2.4864,-0.7 0.01773,-0.003 0.03387,-0.005 0.0516,-0.008 v 0 0 c 0.45573,-0.076 0.90307,-0.11867 1.34533,-0.13333 2.36613,4.424 4.89733,7.168 5.5916,7.88" /><path
         stroke-width="0.1"
         fill-rule="nonzero"
         fill="#1b2c2f"
         id="path953"
         d="m 63.57095,124.15204 c -1.12867,-1.78933 -2.46307,-3.19867 -3.9844,-4.01067 -1.06933,-0.57333 -1.97347,-0.82933 -2.74747,-0.89333 -0.6708,-0.82267 -1.35773,-1.63333 -1.9448,-2.51333 0.48547,-0.10933 0.99853,-0.17067 1.53493,-0.17067 0.0041,0 0.0084,0 0.01253,0 0.002,0 0.0036,0 0.0057,0 1.35773,0 2.838,0.38533 4.40253,1.22933 0.47507,0.25733 0.92613,0.548 1.3552,0.868 0.11987,0.124 0.18493,0.18667 0.18493,0.18667 0.0011,-10e-4 0.0027,-10e-4 0.0036,-0.003 0.15893,0.99467 0.3188,1.97333 0.47867,2.94 0.0948,-0.0547 0.17973,-0.116 0.26773,-0.17333 0.1432,0.85733 0.28693,1.704 0.4308,2.54" /><path
         stroke-width="0.1"
         fill-rule="nonzero"
         fill="#f8c9a3"
         id="path955"
         d="m 147.36961,209.92003 c -4.07467,1.45333 -8.55467,1.45333 -12.62933,0 -23.336,-8.36 -42.3288,-23.02667 -52.35266,-32.032 -5.37347,-4.82533 -9.2152,-11.07733 -11.10787,-18.04667 -3.29427,-12.132 -8.54067,-34.94933 -12.30413,-68.19333 0,-45.33066 36.74946,-82.07733 82.07933,-82.07733 45.33066,0 82.07733,36.74666 82.07733,82.07733 -3.76267,33.244 -9.00933,56.06133 -12.304,68.19333 -1.892,6.96933 -5.73333,13.22133 -11.10667,18.04667 -10.02533,9.00533 -29.016,23.672 -52.352,32.032" /><path
         stroke-width="0.1"
         fill-rule="nonzero"
         fill="#1d3137"
         id="path957"
         d="m 170.80828,96.14804 -0.29467,-0.272 0.29333,0.27467 0.001,-0.0027 -0.29467,-0.272 0.29333,0.27467 c 0.0227,-0.02533 1.33467,-1.42 3.63333,-2.784 2.30267,-1.368 5.57067,-2.7 9.56133,-2.69867 4.05467,0.0053 8.91067,1.35067 14.44533,5.63067 0.58267,0.45067 1.42,0.344 1.87067,-0.23733 0.452,-0.58267 0.34533,-1.42 -0.23733,-1.87067 -5.912,-4.58667 -11.412,-6.196 -16.07867,-6.18933 -4.668,0 -8.44667,1.58 -11.04533,3.14533 -2.60133,1.56933 -4.048,3.12933 -4.108,3.19333 -0.49867,0.54133 -0.46533,1.38533 0.076,1.884 0.54133,0.5 1.38533,0.46533 1.884,-0.076 v 0" /><path
         stroke-width="0.1"
         fill-rule="nonzero"
         fill="#1d3137"
         id="path959"
         d="m 113.26028,94.34004 c -0.0613,-0.064 -1.50667,-1.624 -4.108,-3.19333 -2.59867,-1.56533 -6.37733,-3.14533 -11.04547,-3.14533 -4.66613,-0.0067 -10.16773,1.60267 -16.0792,6.18933 -0.58227,0.45067 -0.68853,1.288 -0.23747,1.87067 0.45107,0.58133 1.28853,0.688 1.87027,0.23733 5.536,-4.28 10.39173,-5.62533 14.4464,-5.63067 4.05347,-0.0013 7.36147,1.37467 9.66947,2.76267 1.152,0.69467 2.048,1.38933 2.648,1.90267 0.3,0.25733 0.52667,0.46933 0.67467,0.612 l 0.16133,0.16133 0.0347,0.03733 0.007,0.0067 0.296,-0.27733 -0.29867,0.27467 0.003,0.0027 0.296,-0.27733 -0.29867,0.27467 c 0.5,0.54133 1.344,0.576 1.884,0.076 0.54133,-0.49867 0.576,-1.34267 0.0773,-1.884" /><path
         stroke-width="0.1"
         fill-rule="nonzero"
         fill="#eaada9"
         id="path961"
         d="m 210.82561,142.82937 c 0,6.144 -4.98,11.12267 -11.12267,11.12267 -6.144,0 -11.124,-4.97867 -11.124,-11.12267 0,-6.14267 4.98,-11.12267 11.124,-11.12267 6.14267,0 11.12267,4.98 11.12267,11.12267" /><path
         stroke-width="0.1"
         fill-rule="nonzero"
         fill="#1d3137"
         id="path963"
         d="m 191.96161,116.77604 c 0,6.44267 -3.32,11.66533 -7.416,11.66533 -4.09467,0 -7.41467,-5.22267 -7.41467,-11.66533 0,-6.444 3.32,-11.66667 7.41467,-11.66667 4.096,0 7.416,5.22267 7.416,11.66667" /><path
         stroke-width="0.1"
         fill-rule="nonzero"
         fill="#1d3137"
         id="path965"
         d="m 189.00961,111.66804 6.976,-5.88667 c 0.28133,-0.23733 0.316,-0.65733 0.0787,-0.93867 -0.23733,-0.28133 -0.65733,-0.31733 -0.93867,-0.08 l -6.976,5.88667 c -0.28133,0.23733 -0.31733,0.65733 -0.08,0.93867 0.23733,0.28133 0.65867,0.31733 0.94,0.08" /><path
         stroke-width="0.1"
         fill-rule="nonzero"
         fill="#eaada9"
         id="path967"
         d="m 71.28228,142.82937 c 0,6.144 4.98027,11.12267 11.12347,11.12267 6.1432,0 11.12347,-4.97867 11.12347,-11.12267 0,-6.14267 -4.98027,-11.12267 -11.12347,-11.12267 -6.1432,0 -11.12347,4.98 -11.12347,11.12267" /><path
         stroke-width="0.1"
         fill-rule="nonzero"
         fill="#1d3137"
         id="path969"
         d="m 90.14642,116.77604 c 0,6.44267 3.32027,11.66533 7.4156,11.66533 4.09533,0 7.4156,-5.22267 7.4156,-11.66533 0,-6.444 -3.32027,-11.66667 -7.4156,-11.66667 -4.09533,0 -7.4156,5.22267 -7.4156,11.66667" /><path
         stroke-width="0.1"
         fill-rule="nonzero"
         fill="#1d3137"
         id="path971"
         d="m 86.12295,105.78271 6.976,5.88533 c 0.28187,0.23733 0.70213,0.20133 0.9396,-0.08 0.2376,-0.28133 0.20213,-0.70133 -0.07907,-0.93867 l -6.97667,-5.88667 c -0.2812,-0.23733 -0.702,-0.20133 -0.93947,0.08 -0.2376,0.28133 -0.2016,0.70133 0.0796,0.94" /><path
         stroke-width="0.1"
         fill-rule="nonzero"
         fill="#1d3137"
         id="path973"
         d="m 117.96295,164.31337 c 0.064,0.0507 2.364,1.928 6.38533,3.80533 4.01867,1.876 9.77067,3.75333 16.70667,3.75467 6.936,-0.001 12.68667,-1.87867 16.70667,-3.75467 4.02,-1.87733 6.32,-3.75467 6.384,-3.80533 0.56933,-0.46667 0.65333,-1.308 0.18667,-1.87733 -0.46667,-0.56933 -1.30667,-0.65333 -1.87733,-0.18667 l -0.0133,0.012 c -0.20133,0.16133 -2.42933,1.90933 -6.16533,3.60533 -3.73733,1.69733 -8.97333,3.34 -15.22133,3.34 -6.44933,0 -11.82133,-1.75067 -15.58,-3.504 -1.87733,-0.87733 -3.34933,-1.752 -4.344,-2.40267 -0.496,-0.32533 -0.87467,-0.59467 -1.124,-0.77867 -0.124,-0.092 -0.21733,-0.164 -0.27733,-0.21067 l -0.064,-0.0493 -0.0133,-0.012 c -0.56933,-0.46667 -1.40933,-0.38267 -1.876,0.18667 -0.46667,0.57067 -0.38267,1.41067 0.18667,1.87733" /><path
         stroke-width="0.1"
         fill-rule="nonzero"
         fill="#1d3137"
         id="path975"
         d="m 139.74161,111.1707 6.26667,35.88666 h -4.95333 c -0.736,0 -1.33333,0.59733 -1.33333,1.33333 0,0.736 0.59733,1.33333 1.33333,1.33333 h 6.54 c 0.396,0 0.76667,-0.172 1.02133,-0.47467 0.25333,-0.30267 0.36,-0.69867 0.292,-1.088 l -6.54,-37.44933 c -0.12667,-0.72533 -0.81733,-1.21067 -1.54267,-1.084 -0.72533,0.12667 -1.21067,0.81733 -1.084,1.54267" /><path
         stroke-width="0.1"
         fill-rule="nonzero"
         fill="#f4a473"
         id="path977"
         d="m 62.72348,119.07337 c -0.0984,-0.0827 -0.19733,-0.164 -0.2984,-0.24267 0.08013,-0.0387 0.16093,-0.0787 0.24013,-0.11867 0.0192,0.12133 0.03907,0.24133 0.05827,0.36133" /><path
         stroke-width="0.1"
         fill-rule="nonzero"
         fill="#1a2827"
         id="path979"
         d="m 62.87242,121.78537 c -0.15987,-0.96667 -0.31973,-1.94533 -0.47867,-2.94 0.01053,-0.004 0.02093,-0.009 0.03133,-0.0147 0.10107,0.0787 0.2,0.16 0.2984,0.24267 0.13853,0.856 0.2776,1.704 0.41667,2.53867 -0.088,0.0573 -0.17293,0.11867 -0.26773,0.17333" /><path
         stroke-width="0.1"
         fill-rule="nonzero"
         fill="#f5b587"
         id="path981"
         d="m 63.14015,121.61204 c -0.13907,-0.83467 -0.27813,-1.68267 -0.41667,-2.53867 -0.0192,-0.12 -0.03907,-0.24 -0.05827,-0.36133 17.0036,-8.50267 12.39573,-35.43333 30.26666,-38.644 17.96707,-3.22667 17.5324,-18.96133 21.4044,-27.99733 2.11867,-4.94133 6.74533,-6.81867 10.98,-6.81867 3.508,0 6.74667,1.28933 8.06267,3.18933 2.90667,4.196 6.45333,5.80933 6.45333,5.80933 0,0 3.55333,-1.61333 6.45867,-5.80933 1.31733,-1.90133 4.55467,-3.18933 8.06267,-3.18933 4.23467,0 8.86267,1.87733 10.98,6.81867 3.87333,9.036 3.43867,24.77067 21.40533,27.99733 17.96533,3.22667 13.21333,30.42533 30.53733,38.77733 -0.044,0.28133 -0.0893,0.56 -0.13467,0.83733 l -0.0293,-0.005 c -1.15467,0.30133 -2.244,0.44 -3.26933,0.44 -7.39333,0.001 -11.592,-7.228 -14.91067,-13.57867 -1.80133,-3.44933 -3.47333,-7.00933 -5.708,-10.208 -1.52,-2.17867 -3.28,-3.80667 -5.31333,-5.24267 3.156,0.672 6.68133,2.23067 10.536,5.21067 0.24267,0.188 0.53067,0.27867 0.816,0.27867 0.39867,0 0.792,-0.17733 1.05467,-0.516 0.452,-0.58267 0.34533,-1.42 -0.23733,-1.87067 -5.9,-4.57867 -11.392,-6.18933 -16.05333,-6.18933 -0.009,0 -0.0173,0 -0.0253,0 -0.38267,0 -0.76,0.01067 -1.13067,0.03067 -3.92533,-2.152 -7.96533,-4.12933 -11.32267,-7.14933 -3.67867,-3.31067 -5.58267,-7.11333 -7.30533,-11.624 -1.732,-4.54133 -4.18667,-15.152 -10.53733,-15.152 -0.0627,0 -0.12667,0.0013 -0.192,0.0027 -3.79333,0.12667 -6.43333,3.73733 -9.47733,5.488 -1.04933,0.604 -2.02667,0.85867 -2.948,0.85867 -3.36267,0 -5.996,-3.38267 -8.86933,-5.456 -1.40133,-1.012 -3.06267,-1.89733 -4.70267,-1.89733 -0.93333,0 -1.86,0.28667 -2.72933,1.00133 -2.544,2.08933 -3.408,6.32 -4.24,9.30667 -1.32667,4.75333 -2.824,8.724 -6.23867,12.47467 -3.53867,3.88667 -8.092,6.528 -12.4812,9.32533 -1.43227,0.912 -2.82133,1.81867 -4.1348,2.79333 -4.57613,0.088 -9.92707,1.73467 -15.66467,6.18667 -0.58227,0.45067 -0.68853,1.288 -0.23747,1.87067 0.26307,0.33867 0.6568,0.516 1.0552,0.516 0.28547,0 0.5724,-0.09067 0.81507,-0.27867 3.8172,-2.95067 7.31147,-4.50667 10.4428,-5.19067 -0.89173,0.92133 -1.71667,1.92933 -2.46093,3.05733 -2.68547,4.072 -4.31773,8.72933 -6.96933,12.82267 -5.1052,7.88 -13.62187,10.224 -21.3812,14.53067 -0.0532,0.0293 -0.10267,0.0613 -0.1516,0.0933" /><path
         stroke-width="0.1"
         fill-rule="nonzero"
         fill="#1b2c2f"
         id="path983"
         d="m 199.26294,96.57737 c -0.28533,0 -0.57333,-0.09067 -0.816,-0.27867 -3.85467,-2.98 -7.38,-4.53867 -10.536,-5.21067 -0.908,-0.64267 -1.872,-1.24667 -2.89333,-1.84533 -0.708,-0.41467 -1.42533,-0.816 -2.14667,-1.21067 0.37067,-0.02 0.748,-0.03067 1.13067,-0.03067 0.008,0 0.016,0 0.0253,0 4.66133,0 10.15333,1.61067 16.05333,6.18933 0.58267,0.45067 0.68933,1.288 0.23733,1.87067 -0.26267,0.33867 -0.656,0.516 -1.05467,0.516" /><path
         stroke-width="0.1"
         fill-rule="nonzero"
         fill="#1b2c2f"
         id="path985"
         d="m 82.84535,96.57737 c -0.3984,0 -0.79213,-0.17733 -1.0552,-0.516 -0.45107,-0.58267 -0.3448,-1.42 0.23747,-1.87067 5.7376,-4.452 11.08853,-6.09867 15.66467,-6.18667 -1.2776,0.948 -2.4844,1.96133 -3.58907,3.104 -3.13133,0.684 -6.6256,2.24 -10.4428,5.19067 -0.24267,0.188 -0.5296,0.27867 -0.81507,0.27867" /><path
         stroke-width="0.1"
         fill-rule="nonzero"
         fill="#181819"
         id="path987"
         d="m 139.83761,4e-5 c 48.50133,0 87.81999,44.15066 87.81999,92.65333 0,16.244 -10.37733,26.19467 -10.37733,26.19467 -17.328,-8.35067 -12.57467,-35.552 -30.54133,-38.78 -17.96667,-3.22667 -17.532,-18.96133 -21.40533,-27.99733 -3.872,-9.036 -16.136,-7.824 -19.04267,-3.62933 -2.90533,4.196 -6.45867,5.80933 -6.45867,5.80933 0,0 -3.54667,-1.61333 -6.45333,-5.80933 -2.90667,-4.19467 -15.16933,-5.40667 -19.04267,3.62933 -3.872,9.036 -3.43733,24.77067 -21.4044,27.99733 -17.96667,3.228 -13.2136,30.42933 -30.54173,38.78 0,0 -10.37653,-9.95067 -10.37653,-26.19467 C 52.01361,44.15071 91.33547,4e-5 139.8376,4e-5" /><path
         stroke-width="0.1"
         fill-rule="nonzero"
         fill="#ffffff"
         id="path989"
         d="m 191.77228,9.28538 c -0.912,-0.684 -1.88933,-1.35867 -2.93733,-2.02667 -0.36133,-0.52 -0.81067,-0.96 -1.34933,-1.32133 -0.12,-0.09733 -0.0347,-0.26933 0.0827,-0.31333 0.332,-0.12533 0.652,-0.18267 0.96,-0.18267 0.39867,0 0.77733,0.09733 1.13333,0.27067 -0.0467,0.07067 -0.0533,0.16267 0.0227,0.22533 0.916,0.616 1.576,1.46 1.98,2.536 0.0413,0.28 0.0787,0.55067 0.108,0.812" /><path
         stroke-width="0.1"
         fill-rule="nonzero"
         fill="#ffffff"
         id="path991"
         d="m 192.61628,9.93204 c -0.276,-0.216 -0.556,-0.432 -0.844,-0.64667 -0.0293,-0.26133 -0.0667,-0.532 -0.108,-0.812 -0.404,-1.076 -1.064,-1.92 -1.98,-2.536 -0.076,-0.06267 -0.0693,-0.15467 -0.0227,-0.22533 1.36,0.66267 2.38933,2.44667 2.95467,4.22" /><path
         stroke-width="0.1"
         fill-rule="nonzero"
         fill="#232425"
         id="path993"
         d="m 190.05628,17.36404 c -1.10667,-0.84133 -2.23867,-1.66133 -3.384,-2.45067 0.16,0.01867 0.312,0.028 0.45867,0.028 2.20667,0 2.98533,-2.156 2.33467,-6.468 -0.16667,-0.444 -0.37733,-0.84933 -0.63067,-1.21467 1.048,0.668 2.02533,1.34267 2.93733,2.02667 0.288,0.21467 0.568,0.43067 0.844,0.64667 0.37467,1.18 0.544,2.356 0.46933,3.19467 -0.22667,2.52267 -1.52267,2.85467 -3.02933,4.23733" /><path
         stroke-width="0.1"
         fill-rule="nonzero"
         fill="#232425"
         id="path995"
         d="m 176.92961,45.98538 c -0.296,0 -0.60267,-0.01467 -0.916,-0.04533 -1.99067,-0.192 -1.70533,-2.844 0.0987,-2.844 0.0907,0 0.18533,0.0067 0.28267,0.02 0.56533,0.08133 1.07467,0.12 1.536,0.12 8.20533,0 0.69067,-12.204 2.61733,-15.36533 2.368,-3.884 3.46933,2.16 3.52667,-7.308 0.0107,-1.75867 -1.452,-3.468 0.176,-5.024 0.45467,-0.43467 1.336,-0.412 1.75733,-0.75067 0.232,0.05733 0.45333,0.1 0.664,0.12533 1.14533,0.78933 2.27733,1.60933 3.384,2.45067 -0.007,0.0067 -0.0133,0.01333 -0.02,0.02 -0.428,0.39333 -0.81067,0.528 -1.14667,0.528 -0.35867,0 -0.66533,-0.15333 -0.92,-0.30667 -0.25333,-0.15333 -0.45333,-0.30667 -0.6,-0.30667 -0.31733,0 -0.37867,0.72533 -0.176,3.75333 0.0533,0.80933 0.75467,1.572 0.748,2.42133 -0.0187,2.144 -0.21867,3.392 -1.77733,4.984 -0.41867,0.42667 -1.548,0.332 -1.87067,0.684 -1.85867,2.02667 -0.32133,3.328 0.088,5.768 0.90933,5.424 -1.64267,11.076 -7.452,11.076" /><path
         stroke-width="0.1"
         fill-rule="nonzero"
         fill="#ffffff"
         id="path997"
         d="m 85.42762,11.28671 c 0.06667,-0.26267 0.14067,-0.528 0.2224,-0.79867 0.2964,-0.976 1.08547,-1.39733 1.88227,-1.39733 0.18187,0 0.36413,0.02267 0.54067,0.064 -0.94893,0.70267 -1.82813,1.41333 -2.64533,2.132" /><path
         stroke-width="0.1"
         fill-rule="nonzero"
         fill="#232425"
         id="path999"
         d="m 86.27348,20.03071 c -1.27707,-2.75467 -1.6912,-5.408 -0.84587,-8.744 0.8172,-0.71867 1.6964,-1.42933 2.64533,-2.132 1.00467,0.24 1.836,1.136 1.4344,2.39733 -0.73493,2.308 -0.61827,4.20267 -0.06507,5.94533 -1.074,0.82 -2.1308,1.66533 -3.1688,2.53333" /><path
         stroke-width="0.1"
         fill-rule="nonzero"
         fill="#232425"
         id="path1001"
         d="m 106.10561,45.30671 c -1.45067,0 -2.76667,-0.76267 -3.936,-2.212 -1.40347,-1.74 -1.282,-3.616 -2.042,-5.59867 -1.29107,-3.372 -2.95933,-3.12933 -5.48067,-4.76133 -3.4412,-2.22667 -4.48227,-6.196 -6.60053,-9.532 -0.69787,-1.09867 -1.29587,-2.14267 -1.77293,-3.172 1.038,-0.868 2.0948,-1.71333 3.1688,-2.53333 0.78533,2.47067 2.45053,4.63467 3.814,7.228 0.62653,1.192 1.18853,3.35867 2.33173,4.19333 0.97867,0.71333 1.56147,0.82 2.06413,0.82 0.10733,0 0.21093,-0.004 0.314,-0.0093 0.10373,-0.0053 0.20627,-0.0093 0.31147,-0.0093 0.33707,0 0.7,0.04933 1.1912,0.312 5.1768,2.76267 2.2036,13.724 8.94613,13.944 0.32667,0.01067 0.484,0.47467 0.17333,0.64133 -0.86667,0.464 -1.69467,0.68933 -2.48267,0.68933" /><path
         stroke-width="0.1"
         fill-rule="nonzero"
         fill="#8e9190"
         id="path1003"
         d="m 140.30028,328.00003 h -0.66667 c -0.003,1.46667 -1.184,2.64 -2.64533,2.64 -1.46,0 -2.64133,-1.17333 -2.644,-2.64 0.003,-1.45333 1.184,-2.64 2.644,-2.64 1.46133,0 2.64267,1.18667 2.64533,2.64 h 0.66667 0.66667 c 0,-2.2 -1.78133,-3.97333 -3.97867,-3.97333 -2.19733,0 -3.97733,1.77333 -3.97733,3.97333 0,2.2 1.78,3.97333 3.97733,3.97333 2.19733,0 3.97867,-1.77333 3.97867,-3.97333 h -0.66667" /><path
         stroke-width="0.1"
         fill-rule="nonzero"
         fill="#8e9190"
         id="path1005"
         d="m 140.30028,308.82669 h -0.66667 c -0.003,1.46667 -1.184,2.65333 -2.64533,2.65333 -1.46,0 -2.64133,-1.18667 -2.644,-2.65333 0.003,-1.45333 1.184,-2.64 2.644,-2.64 1.46133,0 2.64267,1.18667 2.64533,2.64 h 0.66667 0.66667 c 0,-2.18667 -1.78133,-3.97333 -3.97867,-3.97333 -2.19733,0 -3.97733,1.78667 -3.97733,3.97333 0,2.2 1.78,3.98667 3.97733,3.98667 2.19733,0 3.97867,-1.78667 3.97867,-3.98667 h -0.66667" /><path
         stroke-width="0.1"
         fill-rule="nonzero"
         fill="#494b51"
         id="path1007"
         d="m 282.57494,377.00002 c -20.75867,10.88 -21.48667,12.78667 -65.91866,22.22667 -4.79067,-8.30667 -10.864,-25.22667 -17.34267,-72.52 -0.832,1.64 21.68533,172.93332 23.292,178.47999 0.44133,1.52 5.64,26.89333 5.612,26.96 -31.58,68.30666 -152.80812,57.57333 -173.10199,0.2 l -0.11093,-0.14667 c -2.2416,-4.18667 23.6724,-203.97332 22.86467,-205.49332 -6.5844,47.12 -8.62653,63.17333 -13.94747,72 C 15.46936,385.77336 0.55323,375.25336 0.55323,375.25336 c 0,0 3.32653,-13.12 6.18173,-22.28 6.3084,-20.24 34.06506,-77.90666 46.8292,-87.62666 l 53.00146,-24.76 c 2.46667,3.10667 7.636,7.8 19.51867,17.02667 2.752,5.32 2.56933,10.98667 12.756,27.58667 9.31333,-15.86667 11.976,-24.36 14.66267,-29.77333 13.29867,-7.61333 15.32133,-9.61333 20.21333,-13.6 l 57.696,27.09333 51.16266,108.07999"
         name="chaqueta"
         color="494b51" /><path
         stroke-width="0.1"
         fill-rule="nonzero"
         fill="#ed138a"
         id="path1009"
         d="m 0.06002,377.62669 c -0.91467,-6.28 8.92707,-31.10666 8.92707,-31.10666 0,0 47.4452,19.81333 63.55773,18.30667 1.05987,-0.0933 -2.15467,13.52 -4.55307,23.74667 -1.5844,6.74667 -4.56253,11.42667 -4.56253,11.42667 0,0 -61.82026,-11.73333 -63.3692,-22.37333"
         name="vivo"
         color="ed138a" /><path
         stroke-width="0.1"
         fill-rule="nonzero"
         fill="#ed138a"
         id="path1011"
         d="m 283.40694,377.41336 c -2.89733,-5.45333 -13.584,-27.34667 -13.584,-27.34667 0,0 -47.36266,18.44 -63.476,16.93333 -1.06,-0.0933 1.16,6.77333 4.19733,16.81333 4.23467,14.01333 7.336,17.65333 7.232,17.36 0,0 16.12667,-2.42667 31.932,-6.92 17.51067,-4.98667 34.87866,-14.62667 33.69866,-16.84"
         name="vivo"
         color="ed138a" /><path
         stroke-width="0.1"
         fill-rule="nonzero"
         fill="#ed138a"
         id="path1013"
         d="m 179.15761,244.12003 -5.44133,-2.37333 -25.36933,14.70667 -0.136,0.13333 -9.37067,25.42667 -9.37733,-25 -0.40667,-0.54667 -22.49067,-15.88 -6.138,2.65333 16.66333,13.05333 14.88667,37.13333 0.005,68.12 h 13.50267 l 0.62267,-67.57333 12.27867,-37.42666 20.77067,-12.42667"
         color="ed138a"
         name="vivo" /><path
         stroke-width="0.1"
         fill-rule="nonzero"
         fill="#ed138a"
         id="path1015"
         d="m 190.34028,306.90669 h -33.152 v -5.10667 h 33.152 v 5.10667"
         name="vivo"
         color="ed138a" /><path
         stroke-width="0.1"
         fill-rule="nonzero"
         fill="#606264"
         id="path1017"
         d="m 142.10428,310.14669 h -0.33333 c -0.003,1.6 -1.30267,2.90667 -2.90933,2.90667 -1.60667,0 -2.90667,-1.30667 -2.90933,-2.90667 0.003,-1.61333 1.30267,-2.90667 2.90933,-2.90667 1.60667,0 2.90667,1.29333 2.90933,2.90667 h 0.33333 0.33333 c 0,-1.97333 -1.6,-3.57333 -3.576,-3.57333 -1.97467,0 -3.576,1.6 -3.576,3.57333 0,1.97333 1.60133,3.57333 3.576,3.57333 1.976,0 3.576,-1.6 3.576,-3.57333 h -0.33333" /><path
         stroke-width="0.1"
         fill-rule="nonzero"
         fill="#606264"
         id="path1019"
         d="m 142.10428,331.30669 h -0.33333 c -0.003,1.61333 -1.30267,2.90667 -2.90933,2.92 -1.60667,-0.0133 -2.90667,-1.30667 -2.90933,-2.92 0.003,-1.6 1.30267,-2.90667 2.90933,-2.90667 1.60667,0 2.90667,1.30667 2.90933,2.90667 h 0.33333 0.33333 c 0,-1.97333 -1.6,-3.57333 -3.576,-3.57333 -1.97467,0 -3.576,1.6 -3.576,3.57333 0,1.98667 1.60133,3.58667 3.576,3.58667 1.976,0 3.576,-1.6 3.576,-3.58667 h -0.33333" /><path
         stroke-width="0.1"
         fill-rule="nonzero"
         fill="#2d2e30"
         id="path1027"
         d="m 190.34028,343.04002 -0.16267,-0.64 -17.732,4.48 -14.59067,-4.33333 v -40.08 h 31.81866 v 40.57333 h 0.66667 l -0.16267,-0.64 0.16267,0.64 h 0.66667 v -41.90666 h -34.48533 v 42.4 l 15.89467,4.73333 18.59067,-4.70667 v -0.52 h -0.66667" /><path
         stroke-width="0.1"
         fill-rule="nonzero"
         fill="#2d2e30"
         id="path1031"
         d="m 98.91668,571.49334 c 0.76987,-12 3.9116,-52.42666 3.91293,-82.34666 0,-7.34667 -0.18933,-14.05333 -0.65067,-19.57333 -0.46587,-5.50667 -1.1836,-9.81333 -2.32053,-12.45333 -3.17813,-7.34667 -7.80947,-12.37333 -13.61467,-15.81333 -5.80467,-3.44 -12.75613,-5.29333 -20.62907,-6.44 l -0.1912,1.32 c 7.78173,1.12 14.56147,2.96 20.14067,6.26667 5.5792,3.32 9.98387,8.08 13.0708,15.18667 1.02293,2.34667 1.7636,6.6 2.21507,12.05333 0.4568,5.45333 0.64587,12.13333 0.64587,19.45333 0,29.84 -3.13853,70.25333 -3.90933,82.25333 l 1.33013,0.0933" /><path
         stroke-width="0.1"
         fill-rule="nonzero"
         fill="#ed138a"
         id="path1033"
         d="m 63.72402,448.50668 c -1.164,8.21333 -5.5,43.01333 -5.5,43.01333 0,0 5.1396,4.46667 6.888,3.61333 9.1448,-4.45333 12.086,-31.02666 7.3292,-40.02666 -1.27867,-2.41333 -8.3328,-9.30667 -8.7172,-6.6"
         name="vivo"
         color="ed138a" /><path
         stroke-width="0.1"
         fill-rule="nonzero"
         fill="#ed138a"
         id="path1035"
         d="m 214.03627,448.50668 c 1.164,8.21333 5.50133,43.01333 5.50133,43.01333 0,0 -5.14,4.46667 -6.888,3.61333 -9.14533,-4.45333 -12.08667,-31.02666 -7.32933,-40.02666 1.27867,-2.41333 8.332,-9.30667 8.716,-6.6"
         name="vivo"
         color="ed138a" /><path
         stroke-width="0.1"
         fill-rule="nonzero"
         fill="#2d2e30"
         id="path1037"
         d="m 175.73628,574.90668 c -0.52,-8.08 -1.224,-29.92 -1.224,-52.74666 0,-13.74667 0.256,-27.86667 0.95733,-39.56 0.352,-5.85333 0.81467,-11.09333 1.41067,-15.38667 0.59333,-4.28 1.33467,-7.61333 2.18533,-9.57333 3.08667,-7.10667 7.49067,-11.86667 13.07067,-15.18667 5.57867,-3.30667 12.35867,-5.14667 20.14,-6.26667 l -0.19067,-1.32 c -7.87333,1.14667 -14.82533,3 -20.62933,6.44 -5.80533,3.44 -10.436,8.46667 -13.61467,15.81333 -0.94267,2.18667 -1.67467,5.57333 -2.28133,9.92 -1.80933,13 -2.38,34.46666 -2.38,55.12 0,22.86667 0.70267,44.69333 1.22533,52.84 l 1.33067,-0.0933" /></g></g></svg>
