<?xml version="1.0" encoding="UTF-8" standalone="no"?>
<!-- Created with Inkscape (http://www.inkscape.org/) -->

<svg
   width="80.831635mm"
   height="259.95679mm"
   viewBox="0 0 80.831635 259.95679"
   version="1.1"
   id="svg69203"
   xml:space="preserve"
   xmlns="http://www.w3.org/2000/svg"
   xmlns:svg="http://www.w3.org/2000/svg"><defs
     id="defs69200" /><g
     id="g70423"
     ><path
       d="m 8297.77,8618.66 h -798.59 v 31.06 c 0,2.71 2.2,4.92 4.92,4.92 h 788.75 c 2.72,0 4.92,-2.21 4.92,-4.92 v -31.06"
       style="fill:#a38fa1;fill-opacity:1;fill-rule:nonzero;stroke:none"
       id="path70887" /><path
       d="m 8026.76,8618.66 h -527.58 v 26.32 c 0,5.33 4.32,9.66 9.65,9.66 h 397.46 v 0 c 31.42,-12.68 63.81,-23.05 96.78,-31.06 7.82,-1.9 15.8,-3.23 23.69,-4.92"
       style="fill:#8b8494;fill-opacity:1;fill-rule:nonzero;stroke:none"
       id="path70889" /><path
       d="m 6515.48,8618.66 h 798.59 v 31.06 c 0,2.71 -2.2,4.92 -4.92,4.92 H 6520.4 c -2.72,0 -4.92,-2.21 -4.92,-4.92 v -31.06"
       style="fill:#a38fa1;fill-opacity:1;fill-rule:nonzero;stroke:none"
       id="path70891" /><path
       d="m 7397.53,13417.6 c 0,0.7 48.4,100.9 147.63,142.1 30.4,12.6 66.12,10.7 102.23,8.8 60.57,-3.1 122.25,-6.2 161.79,58.9 63.11,104.1 243.64,75.5 284.37,228.7 47.95,180.4 -107.86,296.6 -76.92,422.1 30.95,125.6 171.61,127.7 222.23,315 49.38,182.7 -86.16,261.2 -86.16,369.7 0,108.5 99.23,179.7 84.71,295.9 -14.52,116.2 -268.66,329.2 -315.46,413.9 -46.79,84.7 -22.59,198.5 -202.52,285.6 -168.65,81.7 -321.93,-33.9 -321.93,-33.9 0,0 -153.27,115.6 -321.92,33.9 -179.93,-87.1 -155.72,-200.9 -202.52,-285.6 -46.79,-84.7 -300.93,-297.7 -315.46,-413.9 -14.52,-116.2 84.72,-187.4 84.72,-295.9 0,-108.5 -135.55,-187 -86.17,-369.7 50.63,-187.3 191.29,-189.4 222.23,-315 30.94,-125.5 -124.87,-241.7 -76.92,-422.1 40.73,-153.2 221.27,-124.6 284.38,-228.7 39.53,-65.1 101.21,-62 161.78,-58.9 36.11,1.9 71.83,3.8 102.23,-8.8 99.24,-41.2 147.63,-141.4 147.63,-142.1 h 0.05"
       style="fill:#181819;fill-opacity:1;fill-rule:nonzero;stroke:none"
       id="path70893" /><path
       d="m 6989.53,13621.7 c -1.25,1.8 -2.48,3.8 -3.69,5.7 -21.93,36.2 -58.04,56.4 -97.54,73.7 v 0 c 39.5,-17.3 75.61,-37.5 97.54,-73.7 1.21,-1.9 2.44,-3.9 3.69,-5.7 v 0 m -381.97,1235 c 0,0 0.01,0.1 0.01,0.1 18.55,34.9 34.24,68 34.73,104.3 -0.49,-36.4 -16.15,-69.5 -34.74,-104.4 m 34.74,104.5 c 0.01,0.3 0.01,0.5 0.01,0.8 0,-0.3 0,-0.5 -0.01,-0.8 m 0.01,0.9 c 0,0.1 0,0.2 0.01,0.3 -0.01,-0.1 -0.01,-0.2 -0.01,-0.3 m 0.01,0.4 c 0,0.1 0,0.3 0,0.4 0,-0.1 0,-0.3 0,-0.4 m 0,0.4 c 0,6.5 -0.4,12.8 -1.06,19 0.01,0 0.03,0 0.04,0.1 0.66,-6.3 1.02,-12.6 1.02,-19.1 v 0"
       style="fill:#7e8182;fill-opacity:1;fill-rule:nonzero;stroke:none"
       id="path70895" /><path
       d="m 7397.53,13417.6 h -0.05 c 0,0.3 -10.99,23.3 -33.24,51.6 h 66.53 c -22.25,-28.3 -33.24,-51.3 -33.24,-51.6 m -408,204.1 c -1.25,1.8 -2.48,3.8 -3.69,5.7 -21.93,36.2 -58.04,56.4 -97.54,73.7 l -98.26,282 c -36.53,-19.2 -67.3,-50.7 -95.41,-92.9 -5.01,37.1 -1.76,71.4 5.86,103.7 56.23,8.1 111.18,21.9 161.87,39.8 61.29,21.7 121.18,51.6 170.05,95.1 46.69,41.4 97.77,110.7 80.64,176.9 -9.16,35.5 -42.36,56.8 -70.7,76.4 -39.17,27.1 -74.29,58.1 -106.24,93.5 -34.11,37.7 -63.11,78.3 -90.94,120.8 -21.46,32.7 -45.17,57.1 -80.3,75 -34.85,17.7 -72.21,33 -102.48,58.3 -36.48,30.5 -55.78,76.5 -55.02,123.9 0.01,1 0.15,2.1 0.19,3.1 18.59,34.9 34.25,68 34.74,104.4 0,0.1 0,0.1 0,0.1 0.01,0.3 0.01,0.5 0.01,0.8 0,0 0,0.1 0,0.1 0,0.1 0,0.2 0.01,0.3 0,0 0,0.1 0,0.1 0,0.1 0,0.3 0,0.4 v 0 0 0 c 0,6.5 -0.36,12.8 -1.02,19.1 3.76,8 7.62,15.9 11.65,23.4 8.87,16.7 20.86,31 33.29,45 -0.75,-38.8 10.03,-83.9 30.41,-127.7 35.31,-76 81.64,-111.6 128,-111.6 10.49,0 20.98,1.8 31.35,5.4 2.56,-10 5.02,-19.2 7.34,-27.8 14.19,-52.3 43.01,-99.2 83.31,-135.4 59.93,-53.8 162.58,-134.6 290.42,-196.9 v -240.3 l -267.54,-133.7 v -460.7 m 834.24,25.4 v 435.3 l -267.51,133.7 v 169.5 0 70.8 c 127.82,62.3 230.46,143.1 290.39,196.9 40.3,36.2 69.11,83.1 83.3,135.4 2.33,8.6 4.78,17.8 7.34,27.8 10.37,-3.6 20.87,-5.4 31.36,-5.4 46.36,0 92.68,35.6 127.99,111.6 21.47,46.1 32.29,93.7 30.2,133.8 30.47,-60.7 15.65,-159.8 4.97,-214 -7.34,-37.2 -16.35,-75.9 -32.32,-110.5 -13.26,-28.8 -34.37,-51 -60.61,-68.3 -20.01,-13.2 -45.86,-22.8 -63.42,-39.2 -17.13,-16 -27.36,-42 -40.67,-61.1 -20.34,-29.1 -42.64,-56.8 -64.12,-85.2 -40.28,-53.1 -84.9,-114.2 -93.46,-182.4 -14.42,-114.9 93.77,-211.9 179.73,-270.7 34.87,-23.9 90.66,-59.7 144.52,-72.6 1.9,-19.5 1.84,-39.7 -0.9,-60.9 -27.85,41.5 -58.35,72.5 -94.48,91.5 l -98.07,-281.4 c -32.18,-14.1 -62.19,-29.9 -84.24,-54.6 m -1075.31,1505 c 3.55,13.5 6.07,27.4 8.31,41.3 5.03,-13.6 10.73,-25.8 16.57,-36.8 -3.32,-0.1 -6.67,-0.4 -10.09,-1 v 0 c -0.13,0 -0.26,0 -0.38,0 -5.07,-0.9 -9.87,-2.1 -14.41,-3.5 m 1272.23,2.7 c 6.77,12.5 13.4,26.8 19.06,42.7 3.21,-13.8 6.25,-27.7 9.11,-41.7 -3.87,0.6 -7.65,0.9 -11.39,0.9 0,0 -0.01,0 -0.02,0 v 0 0 c -0.04,0 -0.09,0 -0.14,0 -5.7,0 -11.24,-0.7 -16.62,-1.9"
       style="fill:#0f0f0f;fill-opacity:1;fill-rule:nonzero;stroke:none"
       id="path70897" /><path
       d="m 8313.53,11726 c 0,0 -22.39,-161.3 -25.18,-191.8 -2.78,-30.5 -57.7,-145.2 -56.62,-180.4 1.06,-35.1 26.35,-57.9 42.38,-50.9 16.04,7.1 55.38,119.8 72.35,155.9 16.97,36.1 37.2,183 37.2,183 l -70.13,84.2"
       style="fill:#fddfc1;fill-opacity:1;fill-rule:nonzero;stroke:none"
       id="path70899" /><path
       d="m 8267.84,11301.7 c -15.61,0 -35.18,21.3 -36.11,52.1 -0.01,0.4 -0.02,0.7 -0.02,1.1 0.01,36.3 53.89,149.1 56.64,179.3 1.15,12.6 5.6,47.2 10.45,83.6 4.96,-9.2 8.89,-17.1 11.32,-22.4 0.56,-1.3 1.13,-2.6 1.7,-4.1 -2.22,-50.1 -5.1,-118.5 -5.1,-137.3 0,-24.1 -27.27,-102.6 -36.95,-152.2 -0.64,-0.1 -1.28,-0.1 -1.93,-0.1"
       style="fill:#f8bc8d;fill-opacity:1;fill-rule:nonzero;stroke:none"
       id="path70901" /><path
       d="m 8314.38,11647.3 c 0,0 -7.66,-162.6 -7.66,-193.3 0,-30.6 -44.28,-149.9 -40.03,-184.8 4.26,-34.9 31.51,-55.3 46.84,-46.8 15.33,8.5 44.28,124.3 57.9,161.8 13.62,37.4 20.44,185.6 20.44,185.6 l -77.49,77.5"
       style="fill:#fddfc1;fill-opacity:1;fill-rule:nonzero;stroke:none"
       id="path70903" /><path
       d="m 8305.78,11220.5 c -15.37,0 -35.48,19.2 -39.09,48.7 -0.19,1.6 -0.28,3.3 -0.28,5.2 -0.08,40.3 40.31,150.3 40.31,179.6 0,18.8 2.88,87.2 5.1,137.3 12.74,-32.6 30.62,-124.3 29.8,-138.1 -0.68,-11.7 3.64,-89.7 9.82,-133.5 -13.22,-44.1 -28.27,-91.9 -37.91,-97.3 -2.35,-1.3 -4.97,-1.9 -7.75,-1.9"
       style="fill:#fbd1aa;fill-opacity:1;fill-rule:nonzero;stroke:none"
       id="path70905" /><path
       d="m 8375.74,11957.3 c 0,0 28.9,-165.2 35.71,-228.3 6.81,-63 2.55,-232.4 6.81,-258.8 4.26,-26.4 2.56,-172.9 -5.11,-197.6 -7.66,-24.7 -48.53,-4.2 -57.05,23 -8.51,27.3 -15.32,143.1 -14.48,157.6 0.86,14.4 -18.72,114.1 -31.5,142.2 -12.77,28 -67.27,126.8 -92.81,113.2 -25.54,-13.6 -34.91,-82.6 -40.87,-107.3 -5.96,-24.7 -47.69,-69.8 -75.79,-58.7 -28.1,11 -6.81,63 6.82,109 13.62,45.9 8.51,81.7 16.18,143.8 7.66,62.2 70.24,161.9 70.24,161.9 0,0 -99.75,376.1 -112.83,493 -13.08,116.9 6.8,308.2 6.8,308.2 0,0 -121.05,572.3 -214.22,844.5 l 132.44,380.1 c 88.32,-46.6 142.98,-164.3 207.62,-333.5 54.53,-142.8 135.48,-603.4 187.45,-855.8 2.16,-10.5 3.1,-21 2.78,-31.7 -2.38,-83.2 -13.87,-473.6 -28.19,-804.8"
       style="fill:#f8c9a3;fill-opacity:1;fill-rule:nonzero;stroke:none"
       id="path70907" /><path
       d="m 8086.85,11568.2 c 0.02,22 11.89,53.9 20.62,83.4 -8.73,-29.5 -20.6,-61.4 -20.62,-83.4 m 20.62,83.4 c 13.4,45.2 8.67,80.6 15.82,141 -7.15,-60.4 -2.41,-95.8 -15.82,-141 m 259.08,1316.4 c -48.17,247 -107.27,556.8 -150.59,675.5 43.32,-118.7 102.42,-428.4 150.59,-675.5 v 0 m -150.61,675.6 c -0.2,0.5 -0.42,1.1 -0.62,1.7 0.21,-0.6 0.41,-1.1 0.62,-1.7 m -0.65,1.8 c -0.04,0.1 -0.08,0.2 -0.12,0.3 0.04,-0.1 0.08,-0.2 0.12,-0.3 m -0.16,0.4 c -0.04,0.1 -0.08,0.2 -0.12,0.3 0.04,-0.1 0.08,-0.2 0.12,-0.3 m -0.16,0.4 c -0.04,0.1 -0.1,0.3 -0.14,0.4 0.05,-0.1 0.1,-0.3 0.14,-0.4 m -0.16,0.5 c -0.05,0.1 -0.09,0.2 -0.13,0.3 0.04,-0.1 0.08,-0.2 0.13,-0.3 m -0.18,0.4 c -0.03,0.1 -0.06,0.2 -0.09,0.3 0.03,-0.1 0.06,-0.2 0.09,-0.3 m -0.15,0.4 c -0.15,0.4 -0.3,0.8 -0.45,1.2 0.15,-0.4 0.3,-0.8 0.45,-1.2 m -0.47,1.3 c -0.05,0.1 -0.09,0.2 -0.13,0.3 0.04,-0.1 0.08,-0.2 0.13,-0.3 m -0.16,0.4 c -0.05,0.1 -0.1,0.3 -0.15,0.4 0.05,-0.1 0.1,-0.3 0.15,-0.4"
       style="fill:#fce3ce;fill-opacity:1;fill-rule:nonzero;stroke:none"
       id="path70909" /><path
       d="m 8109.93,11540.9 c -3.21,0 -6.32,0.5 -9.28,1.7 v 0 c -0.98,0.3 -1.91,0.8 -2.78,1.3 -8.01,4.5 -11.03,13.1 -11.02,24.3 0.02,22 11.89,53.9 20.62,83.4 v 0 0 c 13.41,45.2 8.67,80.6 15.82,141 0.12,0.9 0.24,1.9 0.36,2.8 7.66,62.2 70.24,161.9 70.24,161.9 v 0 0 c 0,0 -99.75,376.1 -112.83,493 -3.23,28.8 -4.45,62.3 -4.45,96.2 -0.02,103.5 11.25,212 11.25,212 v 0 0 c 0,0 -121.05,572.3 -214.22,844.5 l 132.44,380.1 c 88.32,-46.6 142.98,-164.3 207.62,-333.5 v 0 c 0.05,-0.1 0.1,-0.3 0.15,-0.4 0.01,0 0.02,0 0.03,-0.1 0.04,-0.1 0.08,-0.2 0.13,-0.3 0,0 0.01,-0.1 0.02,-0.1 0.15,-0.4 0.3,-0.8 0.45,-1.2 0.02,0 0.04,-0.1 0.06,-0.1 0.03,-0.1 0.06,-0.2 0.09,-0.3 0.02,0 0.03,-0.1 0.05,-0.1 0.04,-0.1 0.08,-0.2 0.13,-0.3 0,-0.1 0.01,-0.1 0.02,-0.1 0.04,-0.1 0.1,-0.3 0.14,-0.4 0.02,0 0.03,-0.1 0.04,-0.1 0.04,-0.1 0.08,-0.2 0.12,-0.3 0.01,0 0.02,-0.1 0.04,-0.1 0.04,-0.1 0.08,-0.2 0.12,-0.3 0.01,-0.1 0.02,-0.1 0.03,-0.1 0.2,-0.6 0.42,-1.2 0.62,-1.7 0.01,0 0.01,0 0.02,-0.1 43.32,-118.7 102.42,-428.5 150.59,-675.5 -61.41,-36.7 -121.78,-75.8 -191.95,-93.6 -1.96,-0.5 -3.77,-2.6 -3.6,-4.7 9.27,-116.2 25.23,-231.6 43.33,-346.6 16.42,-104.5 40.33,-209.7 49.25,-315 7.67,-90.7 -6.49,-181 -30.27,-268.3 -36.54,-134.3 -92.82,-263.1 -122.02,-398.9 -0.45,0 -0.91,0 -1.36,0"
       style="fill:#f5b587;fill-opacity:1;fill-rule:nonzero;stroke:none"
       id="path70911" /><path
       d="M 7285.63,8674.26 H 6536.7 c -65.4,114.44 150.42,162.15 238.76,212.54 57.51,32.8 261.65,76.03 261.65,183.08 0,89.49 -8.62,196.56 -21.13,312.33 h 307.46 c -16.17,-106.5 -29.41,-208.28 -31.26,-312.33 -5.28,-297.55 -6.55,-395.62 -6.55,-395.62"
       style="fill:#f8c9a3;fill-opacity:1;fill-rule:nonzero;stroke:none"
       id="path70913" /><path
       d="m 7527.62,8674.26 h 748.93 c 65.4,114.44 -150.42,162.15 -238.76,212.54 -57.51,32.8 -261.65,76.03 -261.65,183.08 0,89.49 8.62,196.56 21.13,312.33 h -307.46 c 16.17,-106.5 29.41,-208.28 31.26,-312.33 5.28,-297.55 6.55,-395.62 6.55,-395.62"
       style="fill:#f8c9a3;fill-opacity:1;fill-rule:nonzero;stroke:none"
       id="path70915" /><path
       d="m 7036.04,9127.83 c -0.03,0.01 -0.05,0.03 -0.08,0.04 -2.65,75.82 -9.95,161.21 -19.75,252.19 9.8,-90.92 17.17,-176.44 19.83,-252.23 m -19.83,252.24 c -0.07,0.71 -0.15,1.43 -0.23,2.14 v 0 c 0.08,-0.71 0.16,-1.43 0.23,-2.14"
       style="fill:#fdeede;fill-opacity:1;fill-rule:nonzero;stroke:none"
       id="path70917" /><path
       d="m 7112.78,8836.42 c 41.98,76.1 69.25,159.62 74.78,249.86 0.17,2.67 -2.38,4.87 -4.9,4.9 -50.67,0.58 -102.44,11.77 -146.62,36.65 -2.66,75.79 -10.03,161.31 -19.83,252.23 v 0.01 c -0.07,0.71 -0.15,1.43 -0.23,2.14 h 307.46 c -16.17,-106.5 -29.41,-208.28 -31.26,-312.33 -1.57,-88.35 -2.78,-159.12 -3.71,-214.95 -0.16,-0.02 -0.33,-0.04 -0.48,-0.06 -0.11,-0.01 -0.22,-0.02 -0.32,-0.04 -0.21,-0.02 -0.41,-0.05 -0.61,-0.07 -48.61,-5.96 -106.12,-14.25 -166.5,-17.87 0,-0.01 -0.01,-0.02 -0.01,-0.03 -2.59,-0.15 -5.17,-0.3 -7.77,-0.44"
       style="fill:#f8bf91;fill-opacity:1;fill-rule:nonzero;stroke:none"
       id="path70919" /><path
       d="m 7777.31,9130.58 c 2.76,75.71 10.17,161 19.96,251.63 v 0 c -9.8,-90.67 -17.14,-175.86 -19.89,-251.6 -0.02,-0.01 -0.05,-0.02 -0.07,-0.03"
       style="fill:#fdeede;fill-opacity:1;fill-rule:nonzero;stroke:none"
       id="path70921" /><path
       d="m 7698.91,8836.51 c -6.85,0.37 -13.66,0.8 -20.43,1.29 -0.01,0.01 -0.02,0.03 -0.03,0.05 -55.73,4.01 -108.58,11.58 -153.67,17.08 -0.93,55.83 -2.14,126.6 -3.71,214.95 -1.85,104.05 -15.09,205.83 -31.26,312.33 h 307.46 c -9.79,-90.63 -17.2,-175.92 -19.96,-251.63 -31.58,-15.71 -64.99,-28.6 -99.12,-28.6 -7.75,0 -15.54,0.66 -23.34,2.11 -0.34,0.06 -0.69,0.09 -1.06,0.09 -2.17,0 -4.65,-1.12 -4.98,-3.52 -12.71,-92.06 4.83,-185.17 50.1,-264.15"
       style="fill:#f8bf91;fill-opacity:1;fill-rule:nonzero;stroke:none"
       id="path70923" /><path
       d="m 7921.63,12528.8 c 0,0 119.36,-394.9 135.71,-532.2 16.35,-137.3 -55.12,-961.5 -104.99,-1344.1 0,0 -30.72,-622.8 -130.46,-1451.77 0,0 -52.2,-42.52 -143.88,-42.52 -178.24,0 -202.74,44.15 -202.74,44.15 0,0 -68.65,753.74 -19.6,1450.14 0,0 -21.71,968.1 -49.04,1262.3 -27.32,-294.2 -49.05,-1262.3 -49.05,-1262.3 49.05,-696.4 -19.6,-1450.14 -19.6,-1450.14 0,0 -24.5,-44.15 -202.74,-44.15 -91.68,0 -143.88,42.52 -143.88,42.52 -99.74,828.97 -130.46,1451.77 -130.46,1451.77 -49.87,382.6 -121.34,1206.8 -104.99,1344.1 16.35,137.3 135.71,532.2 135.71,532.2 h 1030.01"
       style="fill:#192a48;fill-opacity:1;fill-rule:nonzero;stroke:none"
       id="path70925"
       name="pantalon"
       color="192a48" /><path
       d="m 6525.31,8654.64 -5.65,9.88 c -15.19,26.59 -18.67,52.55 -10.33,77.18 20.21,59.68 105.63,95.68 181.01,127.45 28.69,12.08 55.8,23.51 75.39,34.68 21.46,12.24 43.74,26.4 65.22,41.24 43.8,-7.31 82.42,-21.3 108.06,-32.3 18.04,-7.74 22.14,-31.98 7.21,-44.73 -13.54,-11.56 -25.2,-17.19 -25.2,-17.19 127.13,-31.96 270.75,-7.5 372.71,4.72 7.56,0.91 14.28,-5.32 14.16,-12.93 -2.03,-121.46 -2.63,-167.97 -2.64,-168.64 l -0.25,-19.36 h -19.37 -748.93 -11.39"
       style="fill:#ffffff;fill-opacity:1;fill-rule:nonzero;stroke:none"
       id="path70927" /><path
       d="m 8287.94,8654.64 5.65,9.88 c 15.19,26.59 18.67,52.55 10.33,77.18 -20.21,59.68 -105.63,95.68 -181.01,127.45 -28.69,12.08 -55.8,23.51 -75.39,34.68 -21.46,12.24 -43.74,26.4 -65.22,41.24 -43.8,-7.31 -82.42,-21.3 -108.06,-32.3 -18.04,-7.74 -22.14,-31.98 -7.21,-44.73 13.54,-11.56 25.2,-17.19 25.2,-17.19 -127.13,-31.96 -270.75,-7.5 -372.71,4.72 -7.56,0.91 -14.28,-5.32 -14.15,-12.93 2.02,-121.46 2.62,-167.97 2.63,-168.64 l 0.25,-19.36 h 19.37 748.93 11.39"
       style="fill:#ffffff;fill-opacity:1;fill-rule:nonzero;stroke:none"
       id="path70929" /><path
       d="m 7305,8654.64 v 0 l 0.25,19.36 c 0.01,0.67 0.61,47.18 2.64,168.64 0,0.05 0,0.11 0,0.16 0,-0.05 0,-0.11 0,-0.16 -2.03,-121.46 -2.63,-167.98 -2.64,-168.64 l -0.25,-19.36"
       style="fill:#d6ece6;fill-opacity:1;fill-rule:nonzero;stroke:none"
       id="path70931" /><path
       d="m 7120.55,8836.86 c 0,0.01 0.01,0.02 0.01,0.03 60.38,3.62 117.89,11.91 166.5,17.87 -48.63,-5.96 -106.12,-14.28 -166.51,-17.9"
       style="fill:#d0b186;fill-opacity:1;fill-rule:nonzero;stroke:none"
       id="path70933" /><path
       d="m 7307.88,8843.32 c -0.26,6.81 -5.96,12.34 -12.68,12.34 v 0 c 6.72,0 12.42,-5.53 12.68,-12.34"
       style="fill:#d6ece6;fill-opacity:1;fill-rule:nonzero;stroke:none"
       id="path70935" /><path
       d="m 7287.67,8854.83 c 0.1,0.02 0.21,0.03 0.32,0.04 -0.11,-0.01 -0.22,-0.02 -0.32,-0.04"
       style="fill:#d0b186;fill-opacity:1;fill-rule:nonzero;stroke:none"
       id="path70937" /><path
       d="m 7292.56,8855.43 v 0 0 m 1.17,0.14 c 0.12,0.01 0.24,0.03 0.36,0.04 -0.12,-0.01 -0.24,-0.03 -0.36,-0.04 m 0.37,0.04 c 0.09,0.01 0.18,0.01 0.27,0.02 -0.09,-0.01 -0.18,-0.01 -0.27,-0.02 m 0.56,0.03 c 0.05,0.01 0.11,0.01 0.17,0.01 -0.06,0 -0.12,0 -0.17,-0.01 m 0.18,0.01 c 0.02,0 0.04,0 0.06,0 -0.02,0 -0.04,0 -0.06,0"
       style="fill:#d6ece6;fill-opacity:1;fill-rule:nonzero;stroke:none"
       id="path70939" /><path
       d="m 7305,8654.64 h -332.82 c 15.22,12.44 30.11,25.33 44.46,38.94 42.59,40.38 85.68,86.4 103.91,143.28 60.39,3.62 117.88,11.94 166.51,17.9 0.2,0.02 0.4,0.05 0.61,0.07 0.1,0.02 0.21,0.03 0.32,0.04 1.53,0.19 3.05,0.37 4.57,0.56 v 0 c 0.39,0.05 0.78,0.09 1.17,0.14 v 0 c 0.12,0.01 0.24,0.03 0.36,0.04 h 0.01 c 0.09,0.01 0.18,0.01 0.27,0.02 0.09,0 0.19,0.01 0.29,0.01 0.05,0.01 0.11,0.01 0.17,0.01 h 0.01 c 0.02,0 0.04,0 0.06,0 0.1,0.01 0.2,0.01 0.3,0.01 6.72,0 12.42,-5.53 12.68,-12.34 0,-0.17 0.01,-0.34 0.01,-0.52 0,-0.05 0,-0.11 0,-0.16 -2.03,-121.46 -2.63,-167.97 -2.64,-168.64 l -0.25,-19.36"
       style="fill:#d6ece6;fill-opacity:1;fill-rule:nonzero;stroke:none"
       id="path70941" /><path
       d="m 7508.25,8654.64 v 0 L 7508,8674 c -0.01,0.66 -0.61,47.18 -2.63,168.64 0,0.05 0,0.11 0,0.16 0,-0.05 0,-0.11 0,-0.16 2.02,-121.46 2.62,-167.97 2.63,-168.64 l 0.25,-19.36 m 16.53,200.29 c -1.49,0.18 -2.98,0.37 -4.46,0.54 1.48,-0.17 2.96,-0.36 4.46,-0.54 v 0"
       style="fill:#d6ece6;fill-opacity:1;fill-rule:nonzero;stroke:none"
       id="path70943" /><path
       d="m 7678.48,8837.8 c -55.75,4.01 -108.59,11.63 -153.7,17.13 v 0 c 45.09,-5.5 97.94,-13.07 153.67,-17.08 0.01,-0.02 0.02,-0.04 0.03,-0.05"
       style="fill:#d0b186;fill-opacity:1;fill-rule:nonzero;stroke:none"
       id="path70945" /><path
       d="M 7906.29,8654.64 H 7508.25 L 7508,8674 c -0.01,0.67 -0.61,47.18 -2.63,168.64 0,0.05 0,0.11 0,0.16 -0.03,7.05 5.79,12.86 12.68,12.86 0.48,0 0.98,-0.03 1.47,-0.09 0.27,-0.03 0.53,-0.07 0.8,-0.1 1.48,-0.17 2.97,-0.36 4.46,-0.54 v 0 c 45.11,-5.5 97.95,-13.12 153.7,-17.13 32.56,-46.9 68.04,-91.18 116.14,-124.05 34.96,-23.89 72.55,-43.33 111.67,-59.11"
       style="fill:#d6ece6;fill-opacity:1;fill-rule:nonzero;stroke:none"
       id="path70947" /><path
       d="m 7823.77,14082.4 -267.51,133.7 v 296.8 h -299.19 v -296.8 l -267.54,-133.7 v -613.2 h 834.24 v 613.2"
       style="fill:#f8c9a3;fill-opacity:1;fill-rule:nonzero;stroke:none"
       id="path70949" /><path
       d="m 7459.87,13921.4 c 0.01,0 17.44,15 37.3,32.6 7.86,6.9 17.62,11.3 28.03,12.4 37.29,4 126.59,14.4 182.35,29.6 2,0.6 3.18,2.6 2.63,4.6 -0.55,2 -2.61,3.2 -4.61,2.7 -54.76,-15 -144.07,-25.5 -181.16,-29.4 -11.99,-1.3 -23.21,-6.3 -32.21,-14.3 -9.91,-8.8 -19.21,-16.9 -26.04,-22.8 -6.83,-6 -11.16,-9.7 -11.18,-9.7 -1.57,-1.3 -1.75,-3.7 -0.4,-5.3 1.35,-1.5 3.71,-1.7 5.29,-0.4"
       style="fill:#e8bc95;fill-opacity:1;fill-rule:nonzero;stroke:none"
       id="path70951" /><path
       d="m 7358.32,13927.1 c -0.01,0 -4.34,3.7 -11.17,9.7 -6.83,5.9 -16.13,14 -26.04,22.8 -9,8 -20.22,13 -32.21,14.3 -37.09,3.9 -126.4,14.4 -181.16,29.4 -2,0.5 -4.06,-0.7 -4.61,-2.7 -0.55,-2 0.63,-4 2.63,-4.6 55.76,-15.2 145.06,-25.6 182.35,-29.6 10.41,-1.1 20.17,-5.5 28.03,-12.4 19.86,-17.6 37.29,-32.6 37.3,-32.6 1.57,-1.3 3.94,-1.1 5.29,0.4 1.35,1.6 1.17,4 -0.41,5.3"
       style="fill:#e8bc95;fill-opacity:1;fill-rule:nonzero;stroke:none"
       id="path70953" /><path
       d="m 7395.84,14338.6 c -15.2,0 -30.35,2 -45.17,6.7 -33.33,10.5 -62.35,30.6 -93.6,45.9 v 65.2 c 32.54,-15.9 66.72,-30.6 102.23,-43.3 15.27,-5.5 31.31,-8.2 47.35,-8.2 16.05,0 32.09,2.7 47.36,8.2 35.52,12.7 69.7,27.4 102.25,43.3 v -70.8 c -19.18,-8.8 -38.47,-17.2 -58.19,-24.6 -32.3,-12 -67.42,-22.4 -102.23,-22.4"
       style="fill:#f5b587;fill-opacity:1;fill-rule:nonzero;stroke:none"
       id="path70955" /><path
       d="m 6482.59,11726 c 0,0 22.4,-161.3 25.18,-191.8 2.78,-30.5 57.7,-145.2 56.63,-180.4 -1.08,-35.1 -26.35,-57.9 -42.39,-50.9 -16.04,7.1 -55.38,119.8 -72.35,155.9 -16.97,36.1 -37.2,183 -37.2,183 l 70.13,84.2"
       style="fill:#fddfc1;fill-opacity:1;fill-rule:nonzero;stroke:none"
       id="path70957" /><path
       d="m 6528.28,11301.7 c -0.65,0 -1.29,0 -1.93,0.1 -9.68,49.6 -36.95,128.1 -36.95,152.2 0,18.8 -2.88,87.2 -5.11,137.3 0.58,1.5 1.15,2.8 1.71,4.1 2.43,5.3 6.36,13.2 11.32,22.4 4.85,-36.4 9.3,-71 10.45,-83.6 2.76,-30.2 56.63,-143 56.64,-179.3 0,-0.4 0,-0.7 -0.01,-1.1 -0.94,-30.8 -20.51,-52.1 -36.12,-52.1"
       style="fill:#f8bc8d;fill-opacity:1;fill-rule:nonzero;stroke:none"
       id="path70959" /><path
       d="m 6481.74,11647.3 c 0,0 7.66,-162.6 7.66,-193.3 0,-30.6 44.28,-149.9 40.02,-184.8 -4.25,-34.9 -31.5,-55.3 -46.83,-46.8 -15.32,8.5 -44.27,124.3 -57.9,161.8 -13.62,37.4 -20.43,185.6 -20.43,185.6 l 77.48,77.5"
       style="fill:#fddfc1;fill-opacity:1;fill-rule:nonzero;stroke:none"
       id="path70961" /><path
       d="m 6490.34,11220.5 c -2.78,0 -5.4,0.6 -7.75,1.9 -9.64,5.4 -24.69,53.2 -37.91,97.3 6.18,43.8 10.5,121.8 9.81,133.5 -0.81,13.8 17.07,105.5 29.8,138.1 2.23,-50.1 5.11,-118.5 5.11,-137.3 0,-29.2 40.23,-138.9 40.31,-179.3 0.01,-2 -0.09,-3.8 -0.29,-5.5 -3.6,-29.5 -23.7,-48.7 -39.08,-48.7"
       style="fill:#fbd1aa;fill-opacity:1;fill-rule:nonzero;stroke:none"
       id="path70963" /><path
       d="m 6420.39,11957.3 c 0,0 -28.91,-165.2 -35.72,-228.3 -6.81,-63 -2.56,-232.4 -6.81,-258.8 -4.26,-26.4 -2.56,-172.9 5.11,-197.6 7.66,-24.7 48.53,-4.2 57.05,23 8.52,27.3 15.32,143.1 14.47,157.6 -0.85,14.4 18.74,114.1 31.51,142.2 12.77,28 67.27,126.8 92.81,113.2 25.55,-13.6 34.91,-82.6 40.87,-107.3 5.97,-24.7 47.69,-69.8 75.79,-58.7 28.1,11 6.81,63 -6.81,109 -13.63,45.9 -8.52,81.7 -16.19,143.8 -7.66,62.2 -70.24,161.9 -70.24,161.9 0,0 99.75,376.1 112.83,493 13.08,116.9 -6.8,308.2 -6.8,308.2 0,0 121.05,572.3 214.22,844.5 l -132.44,380.1 c -88.32,-46.6 -142.98,-164.3 -207.62,-333.5 -54.53,-142.8 -135.48,-603.4 -187.45,-855.8 -2.16,-10.5 -3.09,-21 -2.78,-31.7 2.38,-83.2 13.87,-473.6 28.2,-804.8"
       style="fill:#f8c9a3;fill-opacity:1;fill-rule:nonzero;stroke:none"
       id="path70965" /><path
       d="m 6709.27,11568.2 c -0.01,22 -11.89,53.9 -20.61,83.4 8.72,-29.5 20.6,-61.4 20.61,-83.4 m -20.61,83.4 c -13.05,44 -8.93,78.6 -15.27,136 6.34,-57.4 2.23,-92 15.27,-136 M 6429.57,12968 v 0 c 23.72,121.6 50.09,258.5 75.92,380.3 -25.83,-121.8 -52.2,-258.7 -75.92,-380.3 m 76.1,381.1 c 0.11,0.5 0.22,1 0.33,1.6 -0.11,-0.6 -0.22,-1.1 -0.33,-1.6 m 0.34,1.6 c 0.24,1.1 0.47,2.2 0.71,3.3 -0.24,-1.1 -0.47,-2.2 -0.71,-3.3 m 1.26,5.9 c 0.01,0.1 0.01,0.1 0.02,0.1 -0.01,0 -0.01,0 -0.02,-0.1 m 0.93,4.4 c 0.01,0.1 0.02,0.1 0.04,0.2 -0.01,-0.1 -0.03,-0.2 -0.04,-0.2 m 4.65,21.6 c 0.03,0.1 0.05,0.2 0.07,0.3 -0.02,-0.1 -0.04,-0.2 -0.07,-0.3 m 1,4.6 c 0.11,0.5 0.22,1 0.33,1.5 -0.11,-0.5 -0.22,-1 -0.33,-1.5 m 0.49,2.3 c 0.06,0.3 0.12,0.5 0.18,0.8 -0.06,-0.3 -0.12,-0.6 -0.18,-0.8 m 0.41,1.8 c 0,0.1 0.01,0.1 0.01,0.1 0,0 -0.01,0 -0.01,-0.1 m 1.23,5.7 c 0.01,0 0.02,0.1 0.03,0.1 -0.01,0 -0.02,0 -0.03,-0.1 m 64.77,248.1 c 0.01,0.1 0.01,0.1 0.01,0.1 l -0.01,-0.1 m 0.78,2.1 c 0,0 0,0 0.01,0 -0.01,0 -0.01,0 -0.01,0 m 0.12,0.4 c 0.09,0.2 0.18,0.4 0.27,0.7 -0.09,-0.3 -0.18,-0.5 -0.27,-0.7 m 0.34,0.9 c 0.03,0 0.06,0.1 0.08,0.2 -0.02,-0.1 -0.05,-0.2 -0.08,-0.2 m 0.14,0.3 c 0.03,0.1 0.07,0.2 0.1,0.3 -0.03,-0.1 -0.07,-0.2 -0.1,-0.3 m 0.15,0.4 c 0.05,0.1 0.1,0.3 0.14,0.4 -0.05,-0.1 -0.09,-0.3 -0.14,-0.4"
       style="fill:#fce3ce;fill-opacity:1;fill-rule:nonzero;stroke:none"
       id="path70967" /><path
       d="m 6686.2,11540.9 c -0.46,0 -0.91,0 -1.37,0 -29.21,135.8 -85.47,264.6 -122.02,398.9 -23.78,87.3 -37.94,177.6 -30.27,268.3 8.92,105.3 32.83,210.5 49.25,315 18.1,115 34.06,230.4 43.33,346.6 0.17,2.1 -1.64,4.2 -3.6,4.7 -70.17,17.8 -130.54,56.9 -191.95,93.6 23.72,121.6 50.09,258.5 75.92,380.3 0.06,0.2 0.12,0.5 0.18,0.8 0.11,0.5 0.22,1 0.33,1.6 0,0 0.01,0 0.01,0 0.24,1.1 0.47,2.2 0.71,3.3 0.18,0.9 0.37,1.8 0.55,2.6 0.01,0.1 0.01,0.1 0.02,0.1 0.3,1.5 0.6,2.9 0.91,4.3 0.01,0 0.03,0.1 0.04,0.2 1.54,7.2 3.08,14.4 4.61,21.4 0.03,0.1 0.05,0.2 0.07,0.3 0.31,1.5 0.62,2.9 0.93,4.3 0.11,0.5 0.22,1 0.33,1.5 0.05,0.3 0.11,0.5 0.16,0.8 0.06,0.2 0.12,0.5 0.18,0.8 0.07,0.3 0.15,0.7 0.23,1 0,0.1 0.01,0.1 0.01,0.1 0.41,1.9 0.82,3.7 1.22,5.6 0.01,0.1 0.02,0.1 0.03,0.1 23.16,105.9 45.53,196 64.74,248 l 0.01,0.1 c 0.26,0.7 0.51,1.3 0.77,2 0,0 0,0 0.01,0 0.04,0.2 0.07,0.2 0.11,0.4 0.09,0.2 0.18,0.4 0.27,0.7 0.02,0 0.05,0.1 0.07,0.2 0.03,0 0.06,0.1 0.08,0.2 0.03,0 0.04,0.1 0.06,0.1 0.03,0.1 0.07,0.2 0.1,0.3 0.01,0 0.03,0.1 0.05,0.1 0.05,0.1 0.09,0.3 0.14,0.4 v 0 c 64.64,169.2 119.31,286.9 207.62,333.5 l 132.44,-380.1 c -93.17,-272.2 -214.22,-844.5 -214.22,-844.5 v 0 0 c 0,0 11.24,-108.2 11.25,-211.6 0.01,-34.1 -1.21,-67.6 -4.45,-96.6 -13.08,-116.9 -112.83,-493 -112.83,-493 v 0 0 c 0,0 62.58,-99.7 70.24,-161.9 0.33,-2.6 0.64,-5.2 0.92,-7.8 6.34,-57.4 2.22,-92 15.27,-136 v 0 0 c 8.72,-29.5 20.6,-61.4 20.61,-83.4 0.01,-11.2 -3.01,-19.8 -11.02,-24.3 -0.87,-0.5 -1.79,-1 -2.78,-1.3 v 0 c -2.96,-1.2 -6.07,-1.7 -9.27,-1.7"
       style="fill:#f5b587;fill-opacity:1;fill-rule:nonzero;stroke:none"
       id="path70969" /><path
       d="m 7915.16,15047.7 c 0,0 53.45,121.4 134.88,107.9 89.11,-14.7 95.65,-127.5 46.6,-232.9 -49.05,-105.5 -119.36,-133.3 -181.48,-95.7 v 220.7"
       style="fill:#f8c9a3;fill-opacity:1;fill-rule:nonzero;stroke:none"
       id="path70971" /><path
       d="m 8102.86,15060.7 c -0.22,0.6 -4.25,12.8 -13.67,25.6 -4.73,6.4 -10.85,13 -18.81,18.2 -7.91,5.2 -17.82,8.8 -29.14,8.8 -10.2,0 -21.31,-2.9 -33.06,-9.2 -19.53,-10.6 -33.69,-28.9 -44.45,-49.5 -16.1,-31.1 -24.8,-68.4 -29.74,-98.2 -4.91,-29.7 -5.92,-51.8 -5.94,-52.1 -0.25,-5.5 4.02,-10.2 9.54,-10.4 5.52,-0.3 10.19,4 10.45,9.5 0,0 0.02,0.5 0.08,1.6 0.48,8.2 3.27,46.6 13.63,86.5 5.16,20 12.23,40.3 21.57,57.3 9.33,17 20.85,30.4 34.34,37.6 9.43,5.1 17.15,6.9 23.58,6.9 7.13,-0.1 12.96,-2.2 18.27,-5.6 7.93,-5.1 14.3,-13.4 18.42,-20.7 2.08,-3.6 3.61,-6.8 4.59,-9.2 0.5,-1.1 0.85,-2 1.08,-2.6 l 0.24,-0.7 0.04,-0.1 0.93,0.3 -0.93,-0.3 v 0 l 0.93,0.3 -0.93,-0.3 c 1.75,-5.3 7.41,-8.1 12.65,-6.3 5.24,1.7 8.08,7.4 6.33,12.6"
       style="fill:#1d3137;fill-opacity:1;fill-rule:nonzero;stroke:none"
       id="path70973" /><path
       d="m 8020.69,15154.8 v 0 c 5.38,1.2 10.92,1.9 16.62,1.9 -5.7,0 -11.24,-0.7 -16.62,-1.9 m 16.78,1.9 c 0,0 -0.01,0 -0.02,0 v 0 c 0.01,0 0.02,0 0.02,0"
       style="fill:#0f0e0e;fill-opacity:1;fill-rule:nonzero;stroke:none"
       id="path70975" /><path
       d="m 7968.42,14811.2 c -10.41,0 -20.82,1.8 -31.11,5.3 14.63,57 32.78,137.1 50.46,239.9 4.81,7.6 10.12,14.3 15.89,19.8 -0.47,-1.7 -0.88,-3.4 -1.24,-5.1 -6.38,-31.3 -4.65,-65 -8.06,-96.7 -3.85,-35.8 -13.85,-70.4 -17.24,-106.1 -1.65,-17.5 -1.29,-37.3 2.15,-56.4 -3.62,-0.4 -7.23,-0.7 -10.85,-0.7 m 25.71,283.2 c 1.32,8.2 2.64,16.6 3.96,25 6.88,9.3 14.83,21.1 22.6,35.4 5.38,1.2 10.92,1.9 16.62,1.9 0.05,0 0.1,0 0.14,0 0.01,0 0.02,0 0.02,0 4.11,0 8.31,-0.4 12.57,-1.1 3.54,-0.5 6.72,-1.5 9.99,-2.4 -11.03,-15.1 -25.53,-28.3 -37.4,-42.9 -4.69,-1.5 -9.52,-3.6 -14.45,-6.2 -5.03,-2.8 -9.7,-6 -14.05,-9.7"
       style="fill:#f5b587;fill-opacity:1;fill-rule:nonzero;stroke:none"
       id="path70977" /><path
       d="m 7987.77,15056.4 c 2.13,12.3 4.25,25 6.36,38 4.35,3.7 9.02,6.9 14.05,9.7 4.93,2.6 9.76,4.7 14.45,6.2 -8.31,-10.3 -15.33,-21.3 -18.97,-34.1 -5.77,-5.5 -11.08,-12.2 -15.89,-19.8"
       style="fill:#1b2c2f;fill-opacity:1;fill-rule:nonzero;stroke:none"
       id="path70979" /><path
       d="m 6898.14,15047.7 c 0,0 -53.45,121.4 -134.89,107.9 -89.1,-14.7 -95.65,-127.5 -46.6,-232.9 49.05,-105.5 119.36,-133.3 181.49,-95.7 v 220.7"
       style="fill:#f8c9a3;fill-opacity:1;fill-rule:nonzero;stroke:none"
       id="path70981" /><path
       d="m 6729.41,15054.4 h 0.01 c 0.24,0.8 4.08,11.4 11.49,21 3.69,4.9 8.21,9.4 13.37,12.6 5.19,3.3 10.87,5.3 17.77,5.3 6.43,0 14.16,-1.8 23.59,-6.9 14.38,-7.6 26.54,-22.4 36.17,-41.1 14.5,-27.8 23.07,-63.6 27.76,-92.1 2.37,-14.3 3.79,-26.8 4.63,-35.8 0.41,-4.4 0.68,-7.9 0.84,-10.4 0.09,-1.2 0.14,-2.1 0.17,-2.7 l 0.05,-0.9 c 0.25,-5.5 4.93,-9.8 10.44,-9.5 5.52,0.2 9.79,4.9 9.54,10.4 -0.03,0.4 -1.79,39.6 -12.26,83.9 -5.26,22.1 -12.66,45.6 -23.42,66.4 -10.76,20.6 -24.91,38.9 -44.44,49.5 -11.76,6.3 -22.87,9.2 -33.07,9.2 -11.31,0 -21.22,-3.6 -29.14,-8.8 -11.92,-7.8 -19.76,-18.7 -24.88,-27.5 -5.1,-8.9 -7.44,-15.9 -7.59,-16.3 -1.75,-5.2 1.08,-10.9 6.32,-12.6 5.24,-1.8 10.9,1 12.65,6.3"
       style="fill:#1d3137;fill-opacity:1;fill-rule:nonzero;stroke:none"
       id="path70983" /><path
       d="m 6762.87,15155.6 c 0.12,0 0.25,0 0.38,0 -0.13,0 -0.25,0 -0.38,0"
       style="fill:#0f0e0e;fill-opacity:1;fill-rule:nonzero;stroke:none"
       id="path70985" /><path
       d="m 6844.65,14811.3 c -0.03,0 -0.06,0 -0.08,0 -14.29,49.8 -22.88,101.6 -29.67,152.6 -4.74,35.6 -7.83,75.3 -24.76,107.6 -4.11,7.9 -9.53,14.8 -15.1,21.6 5.8,-0.4 12.58,-2.4 20.6,-6.7 11.41,-6.1 21.42,-16.6 29.88,-30 17.68,-102.8 35.83,-182.9 50.46,-239.8 -10.36,-3.6 -20.85,-5.3 -31.33,-5.3 m -29.38,286.2 c -3.21,2.4 -6.59,4.6 -10.15,6.6 -11.74,6.3 -22.84,9.2 -33.03,9.2 -0.01,0 -0.03,0 -0.04,0 -0.04,0 -0.07,0 -0.11,0 -4.02,0 -7.86,-0.5 -11.49,-1.3 -2.31,3.4 -4.4,7 -6.17,10.8 -4.13,8.9 -7.02,18.3 -10.06,27.5 5.8,2.3 11.91,4.1 18.65,5.3 0.13,0 0.25,0 0.38,0 v 0 c 3.42,0.6 6.77,0.9 10.09,1 17.74,-33.1 36.71,-53.7 41.93,-59.1"
       style="fill:#f5b587;fill-opacity:1;fill-rule:nonzero;stroke:none"
       id="path70987" /><path
       d="m 6825.52,15056.4 c -8.46,13.4 -18.47,23.9 -29.88,30 -8.02,4.3 -14.8,6.3 -20.6,6.7 -5.04,6.2 -10.19,12.3 -14.59,18.9 3.63,0.8 7.47,1.3 11.49,1.3 0.04,0 0.07,0 0.11,0 0.01,0 0.03,0 0.04,0 10.19,0 21.29,-2.9 33.03,-9.2 3.56,-2 6.94,-4.2 10.15,-6.6 0.91,-0.9 1.4,-1.4 1.4,-1.4 0.01,0 0.02,0 0.03,0.1 1.19,-7.5 2.39,-14.8 3.59,-22.1 0.71,0.4 1.34,0.9 2,1.3 1.08,-6.4 2.15,-12.8 3.23,-19"
       style="fill:#1b2c2f;fill-opacity:1;fill-rule:nonzero;stroke:none"
       id="path70989" /><path
       d="m 7454.01,14413.1 c -30.55,-10.9 -64.16,-10.9 -94.71,0 -175.03,62.7 -317.47,172.7 -392.65,240.2 -40.3,36.2 -69.12,83.1 -83.31,135.4 -24.71,91 -64.05,262.1 -92.28,511.4 0,340 275.62,615.6 615.59,615.6 339.98,0 615.59,-275.6 615.59,-615.6 -28.23,-249.3 -67.58,-420.4 -92.29,-511.4 -14.19,-52.3 -43,-99.2 -83.3,-135.4 -75.19,-67.5 -217.62,-177.5 -392.64,-240.2"
       style="fill:#f8c9a3;fill-opacity:1;fill-rule:nonzero;stroke:none"
       id="path70991" /><path
       d="m 7629.81,15266.4 -2.22,2 2.2,-2 h 0.02 l -2.22,2 2.2,-2 c 0.17,0.2 10.02,10.6 27.26,20.9 17.27,10.2 41.77,20.2 71.7,20.2 30.42,-0.1 66.83,-10.1 108.35,-42.2 4.36,-3.4 10.65,-2.6 14.03,1.7 3.38,4.4 2.58,10.7 -1.79,14.1 -44.33,34.4 -85.59,46.4 -120.59,46.4 -35,0 -63.35,-11.9 -82.84,-23.6 -19.51,-11.8 -30.35,-23.5 -30.8,-24 -3.75,-4 -3.49,-10.3 0.56,-14.1 4.07,-3.7 10.39,-3.5 14.14,0.6"
       style="fill:#1d3137;fill-opacity:1;fill-rule:nonzero;stroke:none"
       id="path70993" /><path
       d="m 7198.19,15279.9 c -0.46,0.5 -11.29,12.2 -30.81,24 -19.49,11.7 -47.83,23.6 -82.84,23.6 -35,0 -76.26,-12 -120.59,-46.4 -4.36,-3.4 -5.16,-9.7 -1.78,-14.1 3.38,-4.3 9.66,-5.1 14.03,-1.7 41.51,32.1 77.93,42.1 108.34,42.2 30.41,0 55.21,-10.3 72.52,-20.7 8.64,-5.2 15.36,-10.4 19.87,-14.3 2.25,-1.9 3.95,-3.5 5.05,-4.6 l 1.21,-1.2 0.26,-0.3 h 0.05 l 2.18,2 -2.19,-2 h 0.01 l 2.18,2 -2.19,-2 c 3.74,-4.1 10.07,-4.3 14.13,-0.6 4.06,3.8 4.31,10.1 0.57,14.1"
       style="fill:#1d3137;fill-opacity:1;fill-rule:nonzero;stroke:none"
       id="path70995" /><path
       d="m 7929.93,14916.3 c 0,-46.1 -37.35,-83.4 -83.42,-83.4 -46.07,0 -83.42,37.3 -83.42,83.4 0,46.1 37.35,83.4 83.42,83.4 46.07,0 83.42,-37.3 83.42,-83.4"
       style="fill:#eaada9;fill-opacity:1;fill-rule:nonzero;stroke:none"
       id="path70997" /><path
       d="m 7788.45,15111.7 c 0,-48.3 -24.9,-87.5 -55.61,-87.5 -30.72,0 -55.62,39.2 -55.62,87.5 0,48.3 24.9,87.5 55.62,87.5 30.71,0 55.61,-39.2 55.61,-87.5"
       style="fill:#1d3137;fill-opacity:1;fill-rule:nonzero;stroke:none"
       id="path70999" /><path
       d="m 7766.31,15150 52.32,44.1 c 2.11,1.8 2.38,5 0.6,7.1 -1.78,2.1 -4.94,2.4 -7.05,0.6 l -52.32,-44.2 c -2.11,-1.7 -2.38,-4.9 -0.59,-7 1.78,-2.1 4.93,-2.4 7.04,-0.6"
       style="fill:#1d3137;fill-opacity:1;fill-rule:nonzero;stroke:none"
       id="path71001" /><path
       d="m 6883.36,14916.3 c 0,-46.1 37.35,-83.4 83.43,-83.4 46.07,0 83.42,37.3 83.42,83.4 0,46.1 -37.35,83.4 -83.42,83.4 -46.08,0 -83.43,-37.3 -83.43,-83.4"
       style="fill:#eaada9;fill-opacity:1;fill-rule:nonzero;stroke:none"
       id="path71003" /><path
       d="m 7024.84,15111.7 c 0,-48.3 24.9,-87.5 55.62,-87.5 30.71,0 55.61,39.2 55.61,87.5 0,48.3 -24.9,87.5 -55.61,87.5 -30.72,0 -55.62,-39.2 -55.62,-87.5"
       style="fill:#1d3137;fill-opacity:1;fill-rule:nonzero;stroke:none"
       id="path71005" /><path
       d="m 6994.66,15194.1 52.32,-44.1 c 2.12,-1.8 5.27,-1.5 7.05,0.6 1.78,2.1 1.52,5.3 -0.6,7 l -52.32,44.2 c -2.11,1.8 -5.26,1.5 -7.04,-0.6 -1.78,-2.1 -1.52,-5.3 0.59,-7.1"
       style="fill:#1d3137;fill-opacity:1;fill-rule:nonzero;stroke:none"
       id="path71007" /><path
       d="m 7233.46,14755.2 c 0.48,-0.4 17.73,-14.5 47.89,-28.6 30.15,-14.1 73.28,-28.1 125.3,-28.2 52.02,0.1 95.15,14.1 125.3,28.2 30.16,14.1 47.4,28.2 47.88,28.6 4.27,3.5 4.9,9.7 1.4,14 -3.5,4.3 -9.8,4.9 -14.07,1.4 l -0.1,-0.1 c -1.51,-1.2 -18.22,-14.3 -46.24,-27 -28.04,-12.7 -67.31,-25.1 -114.17,-25.1 -48.37,0 -88.66,13.2 -116.84,26.3 -14.09,6.6 -25.12,13.2 -32.58,18.1 -3.73,2.4 -6.56,4.4 -8.43,5.8 -0.94,0.7 -1.64,1.2 -2.08,1.6 l -0.48,0.3 -0.1,0.1 c -4.28,3.5 -10.58,2.9 -14.08,-1.4 -3.5,-4.3 -2.87,-10.5 1.4,-14"
       style="fill:#1d3137;fill-opacity:1;fill-rule:nonzero;stroke:none"
       id="path71009" /><path
       d="m 7396.8,15153.7 47.01,-269.1 h -37.16 c -5.52,0 -10,-4.5 -10,-10 0,-5.6 4.48,-10 10,-10 h 49.05 c 2.97,0 5.75,1.3 7.66,3.5 1.91,2.3 2.71,5.3 2.2,8.2 l -49.05,280.9 c -0.96,5.4 -6.14,9 -11.58,8.1 -5.44,-1 -9.08,-6.1 -8.13,-11.6"
       style="fill:#1d3137;fill-opacity:1;fill-rule:nonzero;stroke:none"
       id="path71011" /><path
       d="m 7922.42,12528.8 h -129.07 l 264.14,-530.8 c -24,138.1 -24.39,140.5 -65.59,294.5 -21.97,82.1 -45.29,160.9 -69.48,236.3"
       style="fill:#408a93;fill-opacity:1;fill-rule:nonzero;stroke:none"
       id="path71013" /><path
       d="m 6891.62,12528.8 h 126.05 L 6756.08,11998 c 24.01,138.1 21.85,140.5 63.04,294.5 21.97,82.1 48.31,160.9 72.5,236.3"
       style="fill:#408a93;fill-opacity:1;fill-rule:nonzero;stroke:none"
       id="path71015" /><path
       d="m 6819.17,15094.5 c -0.74,0.6 -1.48,1.2 -2.24,1.8 0.6,0.3 1.21,0.6 1.8,0.9 0.15,-0.9 0.29,-1.8 0.44,-2.7"
       style="fill:#f4a473;fill-opacity:1;fill-rule:nonzero;stroke:none"
       id="path71017" /><path
       d="m 6820.29,15074.1 c -1.2,7.3 -2.4,14.6 -3.59,22.1 0.08,0 0.15,0 0.23,0.1 0.76,-0.6 1.5,-1.2 2.24,-1.8 1.04,-6.5 2.08,-12.8 3.12,-19.1 -0.66,-0.4 -1.29,-0.9 -2,-1.3"
       style="fill:#1a2827;fill-opacity:1;fill-rule:nonzero;stroke:none"
       id="path71019" /><path
       d="m 6822.29,15075.4 c -1.04,6.3 -2.08,12.6 -3.12,19.1 -0.15,0.9 -0.29,1.8 -0.44,2.7 127.53,63.7 92.97,265.7 227,289.8 134.75,24.2 131.49,142.2 160.54,210 15.88,37 50.59,51.1 82.35,51.1 26.3,0 50.59,-9.7 60.47,-23.9 21.79,-31.5 48.39,-43.6 48.39,-43.6 0,0 26.65,12.1 48.45,43.6 9.88,14.2 34.16,23.9 60.47,23.9 31.75,0 66.46,-14.1 82.35,-51.1 29.04,-67.8 25.78,-185.8 160.53,-210 134.74,-24.2 99.11,-228.2 229.04,-290.8 -0.34,-2.1 -0.67,-4.2 -1.01,-6.3 h -0.22 c -8.67,-2.2 -16.83,-3.3 -24.53,-3.3 -55.44,0 -86.93,54.2 -111.82,101.9 -13.51,25.8 -26.06,52.5 -42.81,76.5 -11.41,16.4 -24.61,28.6 -39.85,39.3 23.66,-5 50.1,-16.7 79.02,-39 1.82,-1.5 3.97,-2.1 6.11,-2.1 2.99,0 5.95,1.3 7.92,3.8 3.38,4.4 2.58,10.7 -1.79,14.1 -44.25,34.3 -85.44,46.4 -120.4,46.4 -0.06,0 -0.13,0 -0.19,0 -2.87,0 -5.69,-0.1 -8.47,-0.2 -29.45,16.1 -59.75,30.9 -84.93,53.6 -27.59,24.8 -41.87,53.3 -54.78,87.2 -13,34 -31.41,113.6 -79.03,113.6 -0.48,0 -0.96,0 -1.44,0 -28.46,-1 -48.26,-28 -71.08,-41.2 -7.88,-4.5 -15.2,-6.4 -22.11,-6.4 -25.22,0 -44.98,25.3 -66.52,40.9 -10.52,7.6 -22.97,14.2 -35.27,14.2 -7.01,0 -13.96,-2.1 -20.48,-7.5 -19.08,-15.7 -25.55,-47.4 -31.8,-69.8 -9.95,-35.6 -21.17,-65.4 -46.78,-93.5 -26.54,-29.2 -60.69,-49 -93.61,-70 -10.75,-6.8 -21.17,-13.6 -31.02,-20.9 -34.33,-0.7 -74.45,-13 -117.48,-46.4 -4.36,-3.4 -5.16,-9.7 -1.78,-14.1 1.97,-2.5 4.93,-3.8 7.91,-3.8 2.14,0 4.3,0.6 6.12,2.1 28.63,22.1 54.83,33.8 78.31,38.9 -6.68,-6.9 -12.87,-14.5 -18.45,-22.9 -20.14,-30.6 -32.39,-65.5 -52.27,-96.2 -38.29,-59.1 -102.17,-76.7 -160.36,-109 -0.4,-0.2 -0.77,-0.5 -1.14,-0.7"
       style="fill:#f5b587;fill-opacity:1;fill-rule:nonzero;stroke:none"
       id="path71021" /><path
       d="m 7843.21,15263.2 c -2.14,0 -4.29,0.6 -6.11,2.1 -28.92,22.3 -55.36,34 -79.02,39 -6.82,4.9 -14.05,9.4 -21.7,13.9 -5.32,3.1 -10.69,6.1 -16.1,9.1 2.78,0.1 5.6,0.2 8.47,0.2 0.06,0 0.13,0 0.19,0 34.96,0 76.15,-12.1 120.4,-46.4 4.37,-3.4 5.17,-9.7 1.79,-14.1 -1.97,-2.5 -4.93,-3.8 -7.92,-3.8"
       style="fill:#1b2c2f;fill-opacity:1;fill-rule:nonzero;stroke:none"
       id="path71023" /><path
       d="m 6970.08,15263.2 c -2.98,0 -5.94,1.3 -7.91,3.8 -3.38,4.4 -2.58,10.7 1.78,14.1 43.03,33.4 83.15,45.7 117.48,46.4 -9.58,-7.1 -18.63,-14.7 -26.92,-23.3 -23.48,-5.1 -49.68,-16.8 -78.31,-38.9 -1.82,-1.5 -3.98,-2.1 -6.12,-2.1"
       style="fill:#1b2c2f;fill-opacity:1;fill-rule:nonzero;stroke:none"
       id="path71025" /><path
       d="m 7397.52,15987.5 c 363.76,0 658.65,-331.1 658.65,-694.9 0,-121.8 -77.82,-196.5 -77.82,-196.5 -129.96,62.7 -94.32,266.7 -229.07,290.9 -134.75,24.2 -131.49,142.2 -160.53,210 -29.05,67.7 -121.02,58.7 -142.82,27.2 -21.8,-31.5 -48.45,-43.6 -48.45,-43.6 0,0 -26.6,12.1 -48.39,43.6 -21.8,31.5 -113.78,40.5 -142.82,-27.2 -29.05,-67.8 -25.79,-185.8 -160.54,-210 -134.75,-24.2 -99.1,-228.2 -229.06,-290.9 0,0 -77.83,74.7 -77.83,196.5 0,363.8 294.92,694.9 658.68,694.9"
       style="fill:#181819;fill-opacity:1;fill-rule:nonzero;stroke:none"
       id="path71027" /><path
       d="m 7793.36,15913 c -8.61,6.8 -18.02,13.5 -28.36,20.1 -2.71,3.9 -6.08,7.2 -10.11,9.9 -0.9,0.7 -0.26,2 0.62,2.3 2.48,1 4.88,1.4 7.19,1.4 14.42,0 25.32,-16.9 30.66,-33.7"
       style="fill:#ffffff;fill-opacity:1;fill-rule:nonzero;stroke:none"
       id="path71029" /><path
       d="m 7774.17,15857.3 c -8.31,6.3 -16.8,12.4 -25.38,18.3 1.19,-0.1 2.33,-0.2 3.43,-0.2 16.55,0 22.39,16.2 17.51,48.5 -1.25,3.4 -2.83,6.4 -4.73,9.2 10.34,-6.6 19.75,-13.3 28.36,-20.1 2.82,-8.8 4.09,-17.7 3.52,-24 -1.69,-18.9 -11.41,-21.4 -22.71,-31.7"
       style="fill:#232425;fill-opacity:1;fill-rule:nonzero;stroke:none"
       id="path71031" /><path
       d="m 7675.72,15642.6 c -2.22,0 -4.52,0.1 -6.88,0.3 -14.93,1.5 -12.79,21.4 0.74,21.4 0.68,0 1.39,-0.1 2.13,-0.2 4.24,-0.6 8.06,-0.9 11.51,-0.9 61.53,0 5.18,91.6 19.63,115.3 17.76,29.1 26.03,-16.2 26.45,54.8 0.08,13.2 -10.89,26 1.32,37.7 3.42,3.2 10.03,3.1 13.18,5.6 1.75,-0.4 3.41,-0.8 4.99,-1 8.58,-5.9 17.07,-12 25.38,-18.3 -0.05,-0.1 -0.11,-0.1 -0.16,-0.2 -3.21,-2.9 -6.07,-3.9 -8.59,-3.9 -2.7,0 -5,1.1 -6.9,2.3 -1.91,1.1 -3.41,2.3 -4.5,2.3 -2.39,0 -2.85,-5.5 -1.33,-28.2 0.41,-6.1 5.67,-11.8 5.61,-18.2 -0.14,-16 -1.64,-25.4 -13.32,-37.3 -3.14,-3.2 -11.61,-2.5 -14.03,-5.2 -13.95,-15.2 -2.42,-24.9 0.65,-43.2 6.82,-40.7 -12.31,-83.1 -55.88,-83.1"
       style="fill:#232425;fill-opacity:1;fill-rule:nonzero;stroke:none"
       id="path71033" /><path
       d="m 6989.45,15902.9 c 0.5,1.9 1.05,3.9 1.67,5.9 2.22,7.4 8.14,10.5 14.12,10.5 1.36,0 2.72,-0.1 4.05,-0.5 -7.12,-5.2 -13.71,-10.6 -19.84,-15.9"
       style="fill:#ffffff;fill-opacity:1;fill-rule:nonzero;stroke:none"
       id="path71035" /><path
       d="m 6995.79,15837.3 c -9.58,20.6 -12.68,40.5 -6.34,65.6 6.13,5.3 12.72,10.7 19.84,15.9 7.53,-1.8 13.77,-8.5 10.76,-17.9 -5.51,-17.3 -4.64,-31.6 -0.49,-44.6 -8.06,-6.2 -15.98,-12.5 -23.77,-19"
       style="fill:#232425;fill-opacity:1;fill-rule:nonzero;stroke:none"
       id="path71037" /><path
       d="m 7144.53,15647.7 c -10.87,0 -20.75,5.7 -29.51,16.6 -10.53,13 -9.62,27.1 -15.32,42 -9.69,25.3 -22.2,23.5 -41.11,35.7 -25.8,16.7 -33.62,46.5 -49.5,71.5 -5.23,8.2 -9.72,16 -13.3,23.8 7.79,6.5 15.71,12.8 23.77,19 5.89,-18.6 18.38,-34.8 28.6,-54.2 4.7,-9 8.92,-25.2 17.49,-31.5 7.34,-5.3 11.71,-6.1 15.47,-6.1 0.81,0 1.59,0 2.37,0 0.77,0.1 1.54,0.1 2.33,0.1 2.53,0 5.25,-0.4 8.94,-2.3 38.83,-20.8 16.53,-103 67.09,-104.6 2.45,-0.1 3.64,-3.6 1.3,-4.8 -6.49,-3.5 -12.71,-5.2 -18.62,-5.2"
       style="fill:#232425;fill-opacity:1;fill-rule:nonzero;stroke:none"
       id="path71039" /><path
       d="m 7664.55,14170 440.97,-166.2 466.75,-859.5 c -156.43,-65.6 -249.62,-92.9 -577.42,-174.3 -35.94,54.3 -81.48,346.8 -130.07,656 -6.24,-10.7 188.36,-1292.4 171.52,-1320.4 l -0.84,-212.6 c -474.39,3.4 -438.98,-13.1 -1252.17,4.4 l -0.83,185.3 c -16.82,27.4 177.54,1333.4 171.48,1343.3 -49.38,-308 -91.4,-598.2 -131.31,-656 -364.5,84.9 -541.65,134.5 -541.65,134.5 0,0 56,153.2 139.45,349.8 62.93,126.4 255.49,509.3 351.22,572.9 l 382.53,142.8 255.2,-400.6 255.17,400.6"
       style="fill:#152b42;fill-opacity:1;fill-rule:nonzero;stroke:none"
       id="path71041"
       color="152b42"
       name="chaqueta" /><path
       d="m 6849.09,13036.3 -542.01,137.8 5.81,14.7 540.54,-137 -4.34,-15.5"
       style="fill:#408a93;fill-opacity:1;fill-rule:nonzero;stroke:none"
       id="path71043"
       color="408a93"
       name="vivo" /><path
       d="m 7973.93,13021.7 570.24,170.7 -5.98,11 -568.35,-166.7 4.09,-15"
       style="fill:#408a93;fill-opacity:1;fill-rule:nonzero;stroke:none"
       id="path71045"
       color="408a93"
       name="vivos" /><path
       d="m 7667.14,14170 -38.45,15 -211.99,-363 19.97,-32.6 226.85,374.9"
       style="fill:#408a93;fill-opacity:1;fill-rule:nonzero;stroke:none"
       id="path71047"
       color="408a93"
       name="vivos" /><path
       d="m 7156.76,14170 38.38,13.2 256.8,-418.7 -32.1,-22.7 -263.08,428.2"
       style="fill:#408a93;fill-opacity:1;fill-rule:nonzero;stroke:none"
       id="path71049"
       name="vivo"
       color="408a93" /><path
       d="m 7257.48,12341.9 h -341.26 v 400.9 h 341.26 v -400.9"
       style="fill:#192a48;fill-opacity:1;fill-rule:nonzero;stroke:none"
       id="path71051" /><path
       d="m 7882.2,12341.9 h -341.26 v 400.9 h 341.26 v -400.9"
       style="fill:#192a48;fill-opacity:1;fill-rule:nonzero;stroke:none"
       id="path71053" /><path
       d="m 7257.48,12671.3 h -341.26 v 11.2 h 341.26 v -11.2"
       style="fill:#408a93;fill-opacity:1;fill-rule:nonzero;stroke:none"
       id="path71055"
       color="408a93"
       name="vivos" /><path
       d="m 7882.2,12671.3 h -341.26 v 11.2 h 341.26 v -11.2"
       style="fill:#408a93;fill-opacity:1;fill-rule:nonzero;stroke:none"
       id="path71057"
       name="vivos"
       color="408a93" /><path
       d="m 7779.11,13626.4 h -267.19 v 20.6 h 267.19 v -20.6"
       style="fill:#408a93;fill-opacity:1;fill-rule:nonzero;stroke:none"
       id="path71059"
       name="vivos" /><path
       d="m 7779.11,13380.3 v 3.8 h -263.44 v 306.3 h 259.69 v -310.1 h 3.75 v 3.8 -3.8 h 3.75 v 317.6 h -274.69 v -321.3 h 274.69 v 3.7 h -3.75"
       style="fill:#171717;fill-opacity:1;fill-rule:nonzero;stroke:none"
       id="path71329" /><path
       d="m 7779.11,13647 v 3.7 h -263.44 v 39.7 h 259.69 v -43.4 h 3.75 v 3.7 -3.7 h 3.75 v 50.9 h -274.69 v -54.7 h 274.69 v 3.8 h -3.75"
       style="fill:#171717;fill-opacity:1;fill-rule:nonzero;stroke:none"
       id="path71331" /></g></svg>
