<svg width="305.50542" height="982.51166" xmlns="http://www.w3.org/2000/svg" version="1.1">
 <defs id="defs36695">
  <clipPath id="clipPath37203" clipPathUnits="userSpaceOnUse">
   <path id="path37201" d="m7239.97,79.2305l527.59,0l0,35.9688l-527.59,0l0,-35.9688z"/>
  </clipPath>
  <clipPath id="clipPath37217" clipPathUnits="userSpaceOnUse">
   <path id="path37215" d="m6348.15,4878.15l1537.61,0l0,2074.39l-1537.61,0l0,-2074.39z"/>
  </clipPath>
  <clipPath id="clipPath37231" clipPathUnits="userSpaceOnUse">
   <path id="path37229" d="m7614.45,3001.45l492.879,0l0,2442.25l-492.879,0l0,-2442.25z"/>
  </clipPath>
  <clipPath id="clipPath37251" clipPathUnits="userSpaceOnUse">
   <path id="path37249" d="m6733.74,134.82l330.5,0l0,707.961l-330.5,0l0,-707.961z"/>
  </clipPath>
  <clipPath id="clipPath37263" clipPathUnits="userSpaceOnUse">
   <path id="path37261" d="m7230.6,134.82l386.699,0l0,707.961l-386.699,0l0,-707.961z"/>
  </clipPath>
  <clipPath id="clipPath37281" clipPathUnits="userSpaceOnUse">
   <path id="path37279" d="m6712.98,115.199l335.699,0l0,201.02l-335.699,0l0,-201.02z"/>
  </clipPath>
  <clipPath id="clipPath37295" clipPathUnits="userSpaceOnUse">
   <path id="path37293" d="m7246.16,115.199l400.922,0l0,201.02l-400.922,0l0,-201.02z"/>
  </clipPath>
  <clipPath id="clipPath37319" clipPathUnits="userSpaceOnUse">
   <path id="path37317" d="m6997.87,5799.13l299.18,0l0,174.313l-299.18,0l0,-174.313z"/>
  </clipPath>
  <clipPath id="clipPath37331" clipPathUnits="userSpaceOnUse">
   <path id="path37329" d="m6153.25,2762.22l151.961,0l0,424.352l-151.961,0l0,-424.352z"/>
  </clipPath>
  <clipPath id="clipPath37343" clipPathUnits="userSpaceOnUse">
   <path id="path37341" d="m6145.05,2681.03l125.461,0l0,426.84l-125.461,0l0,-426.84z"/>
  </clipPath>
  <clipPath id="clipPath37355" clipPathUnits="userSpaceOnUse">
   <path id="path37353" d="m6170.36,3001.45l492.91,0l0,2442.25l-492.91,0l0,-2442.25z"/>
  </clipPath>
  <clipPath id="clipPath37375" clipPathUnits="userSpaceOnUse">
   <path id="path37373" d="m7655.95,6271.81l144.883,0l0,345.441l-144.883,0l0,-345.441z"/>
  </clipPath>
  <clipPath id="clipPath37391" clipPathUnits="userSpaceOnUse">
   <path id="path37389" d="m6485.01,6271.84l153.918,0l0,345.41l-153.918,0l0,-345.41z"/>
  </clipPath>
  <clipPath id="clipPath37427" clipPathUnits="userSpaceOnUse">
   <path id="path37425" d="m6530.77,6534.68l1215.05,0l0,826.008l-1215.05,0l0,-826.008z"/>
  </clipPath>
  <clipPath id="clipPath37447" clipPathUnits="userSpaceOnUse">
   <path id="path37445" d="m7399.31,7103.18l138.496,0l0,304.078l-138.496,0l0,-304.078z"/>
  </clipPath>
  <clipPath id="clipPath37461" clipPathUnits="userSpaceOnUse">
   <path id="path37459" d="m6726.93,7108.27l178.281,0l0,271.609l-178.281,0l0,-271.609z"/>
  </clipPath>
 </defs>
 <g>
  <title>Layer 1</title>
  <path fill-rule="nonzero" fill="#2a2d4f" id="path37195" d="m268.90536,982.51166l-106.48,0l0,-4.14007c0,-0.36253 0.29467,-0.65573 0.65733,-0.65573l105.16533,0c0.364,0 0.65733,0.2932 0.65733,0.65573l0,4.14007"/>
  <g transform="matrix(0.133333 0 0 -0.133333 -802.904 993.076)" id="g37197">
   <g clip-path="url(#clipPath37203)" id="g37199">
    <path fill-rule="nonzero" fill="#292d4b" id="path37205" d="m7767.56,79.2305l-527.59,0l0,26.3205c0,5.32 4.32,9.648 9.66,9.648l397.45,0l0,0c31.42,-12.679 63.82,-23.0506 96.78,-31.0506c7.83,-1.8984 15.81,-3.2265 23.7,-4.9179"/>
   </g>
  </g>
  <path fill-rule="nonzero" fill="#2a2d4f" id="path37207" d="m31.26537,982.51166l106.48,0l0,-4.14007c0,-0.36253 -0.29333,-0.65573 -0.65733,-0.65573l-105.16666,0c-0.36133,0 -0.656,0.2932 -0.656,0.65573l0,4.14007"/>
  <path fill-rule="nonzero" fill="#211e23" id="path37209" d="m148.87336,342.65575c0,-0.09333 6.452,-13.46 19.684,-18.94667c4.05333,-1.68133 8.816,-1.43067 13.63067,-1.18133c8.076,0.42 16.29867,0.83867 21.57067,-7.85467c8.41467,-13.87733 32.48533,-10.06267 37.91733,-30.48933c6.39333,-24.05067 -14.38133,-39.54133 -10.25733,-56.28266c4.12667,-16.74133 22.88,-17.01867 29.632,-41.99333c6.584,-24.35867 -11.48933,-34.82667 -11.48933,-49.29466c0,-14.46933 13.232,-23.96267 11.29467,-39.45333c-1.936,-15.49067 -35.82267,-43.88933 -42.06,-55.184c-6.24,-11.296 -3.012,-26.464 -27.00267,-38.08133c-22.488,-10.89067 -42.92533,4.51733 -42.92533,4.51733c0,0 -20.43467,-15.408 -42.92133,-4.51733c-23.99067,11.61733 -20.764,26.78533 -27.00267,38.08133c-6.24,11.29467 -40.12533,39.69333 -42.06133,55.184c-1.936,15.49067 11.29467,24.984 11.29467,39.45333c0,14.468 -18.072,24.936 -11.48933,49.29466c6.75067,24.97467 25.50533,25.252 29.632,41.99333c4.12533,16.74133 -16.64933,32.232 -10.256,56.28266c5.43067,20.42667 29.50267,16.612 37.91466,30.48933c5.272,8.69333 13.496,8.27467 21.57333,7.85467c4.81467,-0.24933 9.576,-0.5 13.63067,1.18133c13.22933,5.48667 19.68267,18.85333 19.68267,18.94667l0.008,0"/>
  <g transform="matrix(0.133333 0 0 -0.133333 -802.904 993.076)" id="g37211">
   <g clip-path="url(#clipPath37217)" id="g37213">
    <path fill-rule="nonzero" fill="#706569" id="path37219" d="m7138.33,4878.15l-0.06,0c-0.04,0.27 -2.82,6.12 -8.35,15.45c5.58,-9.41 8.35,-15.28 8.35,-15.45l0.06,0c0,0.34 10.99,23.28 33.24,51.66l0,0c-22.15,-28.26 -33.14,-51.13 -33.24,-51.66m426.24,229.56l0,0c22.05,24.67 52.07,40.48 84.24,54.51l0,0c-32.18,-14.03 -62.19,-29.84 -84.24,-54.51m-889.41,30.34c-14.29,8.95 -29.88,16.5 -46.06,23.59l0,0.01c16.17,-7.09 31.77,-14.65 46.06,-23.6m-239.73,212.7c-0.12,0.84 -0.23,1.69 -0.33,2.53c0.1,-0.84 0.21,-1.69 0.33,-2.53l0,0m-0.34,2.59c-0.02,0.14 -0.04,0.27 -0.05,0.41c0.01,-0.13 0.03,-0.28 0.05,-0.41m-0.07,0.56c-0.02,0.11 -0.03,0.22 -0.04,0.34c0.01,-0.12 0.02,-0.23 0.04,-0.34m-0.08,0.62c-0.01,0.07 -0.02,0.15 -0.02,0.22c0,-0.07 0.01,-0.15 0.02,-0.22m-86.58,962.76c0,0.03 0,0.06 0,0.09c18.56,34.86 34.24,67.96 34.73,104.33c-0.49,-36.42 -16.14,-69.52 -34.73,-104.42m34.74,104.49c0,0.13 0,0.26 0,0.39c0,-0.13 0,-0.26 0,-0.39m0,0.4c0,0.13 0,0.27 0,0.4c0,-0.14 0,-0.26 0,-0.4m0,0.49c0,0.1 0.01,0.21 0.01,0.31c0,-0.1 -0.01,-0.2 -0.01,-0.31m0.01,0.42c0,0.13 0,0.26 0,0.39c0,-0.13 0,-0.26 0,-0.39m0,0.39c0,6.46 -0.4,12.76 -1.06,18.97c0.02,0.03 0.03,0.05 0.04,0.08c0.66,-6.23 1.02,-12.57 1.02,-19.05l0,0"/>
    <path fill-rule="nonzero" fill="#141315" id="path37221" d="m7138.33,4878.15l-0.06,0c0,0.17 -2.77,6.04 -8.35,15.45c-5.53,9.31 -13.81,22.09 -24.89,36.21l66.54,0c-22.25,-28.38 -33.24,-51.32 -33.24,-51.66m-408.01,204.08c-1.25,1.86 -2.48,3.8 -3.69,5.79c-12.95,21.36 -30.85,37.13 -51.47,50.03c-14.29,8.95 -29.89,16.51 -46.06,23.6l-98.26,282.06c-11.73,-6.19 -22.87,-13.64 -33.51,-22.29c-0.15,-0.13 -0.31,-0.25 -0.46,-0.38l-0.01,0c-22.32,-18.24 -42.49,-41.82 -61.43,-70.29c-0.12,0.84 -0.23,1.69 -0.33,2.53c-0.01,0.02 -0.01,0.04 -0.01,0.06c-0.02,0.13 -0.04,0.28 -0.05,0.41c-0.01,0.05 -0.02,0.1 -0.02,0.15c-0.02,0.11 -0.03,0.22 -0.04,0.34c-0.01,0.09 -0.03,0.18 -0.04,0.28c-0.01,0.07 -0.02,0.15 -0.02,0.22c-4.27,35.54 -0.99,68.55 6.36,99.69c56.23,8.11 111.18,21.94 161.89,39.86c61.27,21.67 121.16,51.61 170.03,95.03c46.7,41.49 97.77,110.71 80.64,176.97c-9.15,35.43 -42.34,56.82 -70.69,76.41c-39.17,27.07 -74.29,58.09 -106.24,93.44c-34.12,37.74 -63.11,78.36 -90.94,120.79c-21.47,32.73 -45.18,57.15 -80.3,75.02c-34.86,17.72 -72.22,33 -102.48,58.31c-35.57,29.74 -54.81,74.22 -55.04,120.34l0,1.72c0,0.61 0,1.22 0.01,1.84c0.02,1.03 0.16,2.08 0.2,3.12c18.59,34.9 34.24,68 34.73,104.42c0.01,0.02 0.01,0.04 0.01,0.07c0,0.13 0,0.26 0,0.39l0,0.01c0,0.14 0,0.26 0,0.4c0,0.03 0,0.06 0,0.09c0,0.11 0.01,0.21 0.01,0.31c0,0.04 0,0.07 0,0.11c0,0.13 0,0.26 0,0.39l0,0l0,0l0,0c0,6.48 -0.36,12.82 -1.02,19.05c3.76,8.03 7.62,15.94 11.65,23.49c8.88,16.63 20.86,30.95 33.29,44.92c-0.75,-38.79 10.03,-83.89 30.41,-127.71c35.31,-75.92 81.64,-111.58 128,-111.59c10.5,0 20.99,1.83 31.35,5.43c2.56,-9.98 5.02,-19.25 7.34,-27.81c14.19,-52.27 43.01,-99.15 83.3,-135.34c59.94,-53.81 162.6,-134.65 290.44,-196.98l0,-240.24l-267.55,-133.77l0,-460.69m834.25,25.48l0,435.22l-267.52,133.76l0,169.45l0,0l0,70.8c127.82,62.33 230.47,143.16 290.39,196.97c40.31,36.19 69.11,83.07 83.3,135.34c2.33,8.56 4.78,17.84 7.34,27.81c10.38,-3.6 20.87,-5.43 31.36,-5.43c46.36,0 92.69,35.67 128,111.59c21.47,46.15 32.28,93.71 30.2,133.84c13.36,-26.61 18.01,-60.61 18.12,-94.96l0,-2.57c-0.14,-43.17 -7.28,-86.63 -13.16,-116.46c-7.32,-37.21 -16.35,-75.93 -32.31,-110.54c-13.27,-28.76 -34.38,-50.99 -60.62,-68.28c-20.01,-13.18 -45.86,-22.81 -63.42,-39.18c-17.13,-15.96 -27.36,-42 -40.67,-61.08c-20.32,-29.16 -42.64,-56.87 -64.1,-85.19c-40.3,-53.13 -84.92,-114.24 -93.48,-182.4c-14.41,-114.94 93.77,-211.88 179.74,-270.74c34.86,-23.88 90.65,-59.67 144.51,-72.55c1.89,-19.51 1.84,-39.79 -0.9,-60.96c-27.85,41.52 -58.36,72.49 -94.48,91.56l-63.61,-182.59l-34.45,-98.9c-32.17,-14.03 -62.19,-29.84 -84.24,-54.51m-1075.32,1504.93c3.55,13.56 6.08,27.47 8.31,41.31c5.03,-13.54 10.74,-25.82 16.58,-36.74c-3.32,-0.11 -6.68,-0.44 -10.1,-1l0,0l0,0c-0.11,-0.02 -0.23,-0.04 -0.35,-0.06c-5.08,-0.86 -9.89,-2.03 -14.44,-3.51m1272.24,2.75c6.76,12.45 13.39,26.73 19.05,42.7c3.22,-13.84 6.26,-27.74 9.12,-41.7c-3.87,0.58 -7.67,0.86 -11.41,0.86c-5.75,0 -11.34,-0.65 -16.76,-1.86"/>
   </g>
  </g>
  <path fill-rule="nonzero" fill="#f5c3a2" id="path37223" d="m279.30002,537.35708c0,0 3.85333,22.03733 4.76133,30.43867c0.90933,8.4 0.34133,30.99467 0.90933,34.51333c0.56667,3.51867 0.34,23.048 -0.68133,26.33867c-1.02267,3.29467 -6.472,0.568 -7.60667,-3.064c-1.136,-3.632 -2.044,-19.07333 -1.93067,-21.004c0.11333,-1.93067 -2.49733,-15.21333 -4.2,-18.95867c-1.704,-3.748 -8.96933,-16.91867 -12.376,-15.1c-3.40533,1.816 -4.65333,11.012 -5.44933,14.304c-0.79467,3.29333 -6.35733,9.31067 -10.104,7.83333c-3.74667,-1.47467 -0.908,-8.40133 0.908,-14.53067c1.816,-6.132 1.136,-10.9 2.15867,-19.188c1.02,-8.288 9.36533,-21.58267 9.36533,-21.58267c0,0 -13.3,-50.13733 -15.044,-65.724c-1.744,-15.588 0.90533,-41.096 0.90533,-41.096c0,0 -16.13867,-76.30666 -28.56,-112.60266l17.656,-50.68666c11.776,6.21467 19.06667,21.91067 27.68267,44.47466c7.27067,19.03467 18.06533,80.45733 24.99467,114.11066c0.288,1.40133 0.412,2.796 0.37067,4.22533c-0.32,11.084 -1.84933,63.144 -3.76,107.29866"/>
  <g transform="matrix(0.133333 0 0 -0.133333 -802.904 993.076)" id="g37225">
   <g clip-path="url(#clipPath37231)" id="g37227">
    <path fill-rule="nonzero" fill="#fae0cd" id="path37233" d="m7827.71,3025.76c-1.14,22.08 11.42,55.56 20.55,86.36c3.13,10.58 5.28,20.63 6.81,30.57c-1.53,-9.95 -3.67,-19.99 -6.81,-30.58c-9.12,-30.8 -21.69,-64.27 -20.55,-86.35m31.74,167.84c0.97,18.27 2.02,38.37 4.98,62.42c2.37,19.15 9.95,41.87 19.3,64.13c-9.35,-22.26 -16.93,-44.98 -19.28,-64.13c-2.97,-24.05 -4.03,-44.15 -5,-62.42m75.24,224.29c0,0 -56.11,211.52 -89.68,366.6c33.57,-155.08 89.68,-366.6 89.68,-366.6l0,0m-117.29,589.21c-0.01,103.24 11.2,211.43 11.25,211.94l0,0c0,0 -11.26,-108.45 -11.25,-211.94m-20.33,355.95c-42.16,187.81 -118.91,514.29 -182.62,700.48l0,0.03c63.71,-186.17 140.46,-512.68 182.62,-700.51m310.26,65.53c-30.88,158.44 -66.26,342.62 -99.09,485.7c32.84,-143.08 68.21,-327.25 99.09,-485.7l0,0m-99.14,485.92c-0.04,0.17 -0.08,0.34 -0.12,0.51c0.04,-0.17 0.08,-0.35 0.12,-0.51m-393.74,149.06l0,0.03l34.36,98.63l0,0l-34.36,-98.66"/>
    <path fill-rule="nonzero" fill="#6f5c5a" id="path37235" d="m7648.81,5162.22l0,0l0,0l0,0l0,0"/>
    <path fill-rule="nonzero" fill="#141214" id="path37237" d="m7648.81,5162.22l34.45,98.9l-34.45,-98.9l0,0"/>
    <path fill-rule="nonzero" fill="#f1ad86" id="path37239" d="m7850.76,3001.45c-3.22,0 -6.34,0.51 -9.31,1.68l0,0l0,0c-9.28,3.65 -13.17,11.76 -13.74,22.63c-1.14,22.08 11.43,55.55 20.55,86.35c3.14,10.59 5.28,20.63 6.81,30.58c2.56,16.55 3.43,32.83 4.38,50.91c0.97,18.27 2.03,38.37 5,62.42c2.35,19.15 9.93,41.87 19.28,64.13c21,50.01 50.96,97.74 50.96,97.74l0,0l0,0c0,0 -56.11,211.52 -89.68,366.6c-11.19,51.69 -19.88,97.11 -23.15,126.34c-3.23,28.88 -4.45,62.31 -4.46,96.27c-0.01,103.49 11.25,211.94 11.25,211.94l0,0l0,0c0,0 -12.09,57.2 -31.58,144.01c-42.16,187.83 -118.91,514.34 -182.62,700.51l0,0l34.36,98.66l0,0l34.45,98.9l63.62,182.58c88.31,-46.6 142.97,-164.32 207.6,-333.54c16.05,-42.01 34.38,-111.52 53.59,-195.15c0.04,-0.17 0.08,-0.34 0.12,-0.51c0.02,-0.07 0.03,-0.15 0.05,-0.22c32.83,-143.08 68.21,-327.26 99.09,-485.7l0,-0.06c-61.4,-36.69 -121.77,-75.75 -191.93,-93.53c-1.97,-0.5 -3.77,-2.65 -3.6,-4.73c9.27,-116.15 25.23,-231.57 43.32,-346.63c16.42,-104.43 40.34,-209.65 49.25,-315.01c7.68,-90.67 -6.48,-180.93 -30.26,-268.28c-36.55,-134.3 -92.82,-263.03 -122.02,-398.86c-0.45,-0.02 -0.89,-0.03 -1.33,-0.03"/>
   </g>
  </g>
  <path fill-rule="nonzero" fill="#f5c3a2" id="path37241" d="m133.95336,975.09866l-99.86,0c-8.71733,-15.25893 20.05733,-21.6188 31.836,-28.33907c7.66933,-4.37293 34.88667,-10.13693 34.88667,-24.40933c0,-11.93333 -1.148,-26.20947 -2.816,-41.6464l40.99466,0c-2.15733,14.20107 -3.92133,27.77027 -4.168,41.6464c-0.70533,39.6724 -0.87333,52.7484 -0.87333,52.7484"/>
  <path fill-rule="nonzero" fill="#f5c3a2" id="path37243" d="m166.21736,975.09866l99.85866,0c8.72133,-15.25893 -20.056,-21.6188 -31.83467,-28.33907c-7.66933,-4.37293 -34.88667,-10.13693 -34.88667,-24.40933c0,-11.93333 1.148,-26.20947 2.816,-41.6464l-40.99333,0c2.15467,14.20107 3.92,27.77027 4.168,41.6464c0.704,39.6724 0.872,52.7484 0.872,52.7484"/>
  <g transform="matrix(0.133333 0 0 -0.133333 -802.904 993.076)" id="g37245">
   <g clip-path="url(#clipPath37251)" id="g37247">
    <path fill-rule="nonzero" fill="#fdebdd" id="path37253" d="m7029.26,315.512c0.93,55.828 2.15,126.578 3.72,214.929c1.85,104.059 15.08,205.84 31.26,312.34l0,0c-16.18,-106.5 -29.41,-208.269 -31.26,-312.34c-1.57,-88.351 -2.79,-159.101 -3.72,-214.929l0,0m-252.43,272.886c-0.03,0.024 -0.05,0.032 -0.07,0.043c-2.69,76.418 -10.07,162.559 -19.98,254.34l0,0c9.91,-91.73 17.38,-178 20.05,-254.383"/>
    <path fill-rule="nonzero" fill="#f3b48e" id="path37255" d="m6853.58,296.988c41.98,76.09 69.25,159.621 74.78,249.852c0.16,2.68 -2.38,4.879 -4.91,4.91c-50.67,0.578 -102.44,11.77 -146.62,36.648c-2.67,76.383 -10.14,162.653 -20.05,254.383l307.46,0c-16.18,-106.5 -29.41,-208.281 -31.26,-312.34c-1.57,-88.351 -2.79,-159.101 -3.72,-214.929c-8.1,-0.992 -16.46,-2.051 -25.03,-3.141c-43.19,-5.492 -92.01,-11.859 -142.87,-14.922c0,-0.008 -0.01,-0.008 -0.01,-0.019c-2.58,-0.16 -5.18,-0.301 -7.77,-0.442"/>
   </g>
  </g>
  <g transform="matrix(0.133333 0 0 -0.133333 -802.904 993.076)" id="g37257">
   <g clip-path="url(#clipPath37263)" id="g37259">
    <path fill-rule="nonzero" fill="#fdebdd" id="path37265" d="m7265.58,315.512l0,0c-0.94,55.828 -2.15,126.578 -3.72,214.929c-0.39,22.18 -1.3,44.25 -2.65,66.289c1.35,-22.039 2.26,-44.109 2.66,-66.289c1.57,-88.351 2.78,-159.101 3.71,-214.929m252.53,275.636c2.75,75.704 10.15,161 19.95,251.633l0.01,0c-9.81,-90.679 -17.14,-175.863 -19.89,-251.601c-0.03,-0.008 -0.05,-0.02 -0.07,-0.032m-277.14,180.43c-3.24,23.551 -6.73,47.254 -10.37,71.203l0.01,0c3.63,-23.949 7.12,-47.652 10.36,-71.203"/>
    <path fill-rule="nonzero" fill="#f3b48e" id="path37267" d="m7439.7,297.07c-6.84,0.371 -13.65,0.809 -20.41,1.301c-0.01,0.008 -0.03,0.027 -0.04,0.051c-45.07,3.25 -88.25,8.808 -126.97,13.726c-9.16,1.172 -18.07,2.301 -26.7,3.364c-0.93,55.828 -2.14,126.578 -3.71,214.929c-0.4,22.18 -1.31,44.25 -2.66,66.289c-3.55,58.122 -10.13,115.989 -18.24,174.848c-3.24,23.551 -6.73,47.254 -10.36,71.203l307.45,0c-9.8,-90.633 -17.2,-175.929 -19.95,-251.633c-31.59,-15.707 -64.99,-28.597 -99.13,-28.597c-7.74,0 -15.53,0.66 -23.35,2.109c-0.33,0.059 -0.68,0.09 -1.04,0.09c-2.16,0 -4.65,-1.121 -4.98,-3.531c-12.72,-92.047 4.82,-185.168 50.09,-264.149"/>
   </g>
  </g>
  <path fill-rule="nonzero" fill="#4d4d4d" color="4d4d4d" name="pantalon" id="path37269" d="m218.75203,461.16108c0,0 15.916,52.648 18.096,70.96c2.17867,18.312 -7.34933,128.19466 -13.99867,179.20666c0,0 -4.09733,83.048 -17.39467,193.57452c0,0 -6.96,5.66933 -19.184,5.66933c-23.76533,0 -27.03333,-5.88653 -27.03333,-5.88653c0,0 -9.15333,-100.49733 -2.612,-193.35732c0,0 -2.89467,-129.07199 -6.54,-168.30533c-3.64267,39.23333 -6.54,168.30533 -6.54,168.30533c6.54,92.86 -2.61333,193.35732 -2.61333,193.35732c0,0 -3.26533,5.88653 -27.03067,5.88653c-12.224,0 -19.184,-5.66933 -19.184,-5.66933c-13.3,-110.52653 -17.396,-193.57452 -17.396,-193.57452c-6.648,-51.012 -16.17867,-160.89466 -13.99867,-179.20666c2.18133,-18.312 18.09467,-70.96 18.09467,-70.96l137.33466,0"/>
  <path fill-rule="nonzero" fill="#ffffff" id="path37271" d="m32.57737,977.71586l-0.75333,-1.31773c-2.02667,-3.54533 -2.48933,-7.00787 -1.37733,-10.29173c2.692,-7.9588 14.084,-12.7572 24.132,-16.99213c3.82667,-1.612 7.44133,-3.13587 10.05467,-4.62493c2.86133,-1.6324 5.83067,-3.5188 8.696,-5.49747c5.84,0.97293 10.98933,2.84013 14.40533,4.30627c2.40667,1.03227 2.95333,4.264 0.96133,5.96307c-1.80267,1.54107 -3.35733,2.2932 -3.35733,2.2932c16.94933,4.25987 36.1,1 49.69333,-0.63173c1.00933,-0.1204 1.90533,0.7104 1.88667,1.72493c-0.268,16.1948 -0.34933,22.39747 -0.34933,22.48547l-0.03467,2.5828l-2.58133,0l-99.85866,0l-1.51733,0"/>
  <path fill-rule="nonzero" fill="#ffffff" id="path37273" d="m267.59336,977.71586l0.75467,-1.31773c2.024,-3.54533 2.488,-7.00787 1.376,-10.29173c-2.69333,-7.9588 -14.084,-12.7572 -24.13467,-16.99213c-3.82533,-1.612 -7.44,-3.13587 -10.052,-4.62493c-2.86,-1.6324 -5.83067,-3.5188 -8.69467,-5.49747c-5.84133,0.97293 -10.99067,2.84013 -14.40933,4.30627c-2.40533,1.03227 -2.952,4.264 -0.96,5.96307c1.804,1.54107 3.35867,2.2932 3.35867,2.2932c-16.95067,4.25987 -36.09867,1 -49.69466,-0.63173c-1.00667,-0.1204 -1.90267,0.7104 -1.88667,1.72493c0.26933,16.1948 0.34933,22.39747 0.35067,22.48547l0.03333,2.5828l2.58267,0l99.85866,0l1.51733,0"/>
  <g transform="matrix(0.133333 0 0 -0.133333 -802.904 993.076)" id="g37275">
   <g clip-path="url(#clipPath37281)" id="g37277">
    <path fill-rule="nonzero" fill="#d6e8e2" id="path37283" d="m7045.79,115.199l0,0l0.26,19.371c0,0.66 0.61,47.18 2.62,168.641c0,0.051 0,0.109 0,0.16c0,-0.062 0,-0.121 0,-0.172c-2.01,-121.449 -2.62,-167.969 -2.62,-168.64l-0.26,-19.36"/>
    <path fill-rule="nonzero" fill="#cea784" id="path37285" d="m6861.35,297.43c0,0.011 0.01,0.011 0.01,0.019c50.86,3.063 99.68,9.43 142.87,14.922c-43.19,-5.512 -92,-11.891 -142.88,-14.941"/>
    <path fill-rule="nonzero" fill="#d6e8e2" id="path37287" d="m7045.79,115.199l-332.81,0c15.2,12.449 30.1,25.34 44.45,38.949c42.6,40.383 85.69,86.411 103.92,143.282c50.88,3.05 99.69,9.429 142.88,14.941c10.45,1.32 20.56,2.598 30.29,3.758c0.47,0.062 0.93,0.09 1.39,0.09l0.14,0c6.86,-0.02 12.65,-5.828 12.62,-12.848c0,-0.051 0,-0.109 0,-0.16c-2.01,-121.461 -2.62,-167.981 -2.62,-168.641l-0.26,-19.371"/>
   </g>
  </g>
  <g transform="matrix(0.133333 0 0 -0.133333 -802.904 993.076)" id="g37289">
   <g clip-path="url(#clipPath37295)" id="g37291">
    <path fill-rule="nonzero" fill="#d6e8e2" id="path37297" d="m7249.04,115.199l0,0l-0.11,8.36l0.11,-8.36"/>
    <path fill-rule="nonzero" fill="#292d4b" id="path37299" d="m7249.63,115.199l-0.59,0l0,0l0.59,0l0,0"/>
    <path fill-rule="nonzero" fill="#d6e8e2" id="path37301" d="m7248.19,176.539c-0.41,26.981 -1.06,68.109 -2.03,126.672l0,0c0.98,-58.551 1.62,-99.691 2.03,-126.672m-2.02,127.109c0,0.024 0,0.043 0,0.051c0,-0.008 0,-0.027 0,-0.051m0,0.172c0,0.012 0,0.032 0,0.051c0,-0.019 0,-0.039 0,-0.051m0.01,0.168c0,0.012 0,0.032 0,0.043c0,-0.011 0,-0.031 0,-0.043"/>
    <path fill-rule="nonzero" fill="#cea784" id="path37303" d="m7419.29,298.371c-45.09,3.238 -88.28,8.848 -127.01,13.777c38.72,-4.918 81.9,-10.476 126.97,-13.726c0.01,-0.024 0.03,-0.043 0.04,-0.051"/>
    <path fill-rule="nonzero" fill="#d6e8e2" id="path37305" d="m7647.08,115.199l-398.04,0l-0.11,8.36l-0.13,11c-0.01,0.351 -0.17,13 -0.61,41.98c-0.41,26.981 -1.05,68.121 -2.03,126.672l0,0.41c0.01,0.008 0.01,0.02 0.01,0.027c0,0.024 0,0.043 0,0.051c0,0.039 0,0.082 0,0.121c0,0.012 0,0.032 0,0.051c0,0.039 0,0.078 0.01,0.117c0,0.012 0,0.032 0,0.043c0.32,6.719 5.96,12.168 12.61,12.188l0.14,0c0.46,0 0.92,-0.028 1.38,-0.09c10.26,-1.219 20.93,-2.57 31.97,-3.981c38.73,-4.929 81.92,-10.539 127.01,-13.777c32.55,-46.91 68.02,-91.172 116.13,-124.051c34.95,-23.898 72.54,-43.332 111.66,-59.121"/>
   </g>
  </g>
  <path fill-rule="nonzero" fill="#f5c3a2" id="path37307" d="m205.70536,254.01842l-35.66933,-17.83467l0,-39.56666l-39.89066,0l0,39.56666l-35.67333,17.836l0,81.748l111.23333,0l0,-81.74933"/>
  <path fill-rule="nonzero" fill="#e4b595" id="path37309" d="m157.18536,275.47709c0,-0.00133 2.324,-1.99333 4.97333,-4.34133c1.04667,-0.928 2.348,-1.50933 3.736,-1.656c4.972,-0.52667 16.87867,-1.91867 24.31333,-3.948c0.26667,-0.07333 0.424,-0.348 0.35067,-0.61467c-0.072,-0.26533 -0.348,-0.42267 -0.61333,-0.35067c-7.30267,1.99733 -19.21067,3.39733 -24.156,3.91867c-1.59867,0.168 -3.09467,0.83867 -4.29467,1.90267c-1.32133,1.17067 -2.56133,2.25333 -3.472,3.044c-0.90933,0.78933 -1.488,1.28533 -1.48933,1.28667c-0.20933,0.17867 -0.23333,0.49467 -0.05333,0.704c0.18,0.21067 0.49467,0.23467 0.70533,0.05467"/>
  <path fill-rule="nonzero" fill="#e4b595" id="path37311" d="m143.64403,274.71842c-0.00133,-0.00133 -0.57867,-0.49733 -1.48933,-1.28667c-0.90933,-0.79067 -2.15067,-1.87333 -3.472,-3.044c-1.2,-1.064 -2.696,-1.73467 -4.29467,-1.90267c-4.94667,-0.52133 -16.852,-1.92133 -24.15467,-3.91867c-0.26667,-0.072 -0.54133,0.08533 -0.61467,0.35067c-0.072,0.26667 0.084,0.54133 0.35067,0.61467c7.43467,2.02933 19.34133,3.42133 24.31467,3.948c1.388,0.14667 2.688,0.728 3.736,1.656c2.64933,2.348 4.972,4.34 4.97333,4.34133c0.20933,0.18 0.52533,0.156 0.70533,-0.05467c0.18,-0.20933 0.15467,-0.52533 -0.05467,-0.704"/>
  <g transform="matrix(0.133333 0 0 -0.133333 -802.904 993.076)" id="g37313">
   <g clip-path="url(#clipPath37319)" id="g37315">
    <path fill-rule="nonzero" fill="#f1ad86" id="path37321" d="m7136.62,5799.13c-15.19,0 -30.34,1.99 -45.15,6.69c-33.33,10.57 -62.36,30.64 -93.6,45.98l0,65.13c32.54,-15.87 66.72,-30.54 102.23,-43.25c15.27,-5.47 31.31,-8.21 47.35,-8.21c16.04,0 32.08,2.74 47.36,8.21c35.52,12.72 69.7,27.39 102.24,43.26l0,-70.8c-19.18,-8.74 -38.46,-17.19 -58.18,-24.55c-32.31,-12.04 -67.43,-22.46 -102.25,-22.46"/>
   </g>
  </g>
  <path fill-rule="nonzero" fill="#fbd8bd" id="path37323" d="m26.88004,568.19841c0,0 2.98533,21.50267 3.35867,25.57467c0.36933,4.06933 7.692,19.36133 7.55067,24.04933c-0.14533,4.688 -3.516,7.732 -5.65333,6.78667c-2.13733,-0.94533 -7.384,-15.972 -9.64667,-20.78267c-2.26133,-4.80933 -4.96,-24.40133 -4.96,-24.40133l9.35067,-11.22667"/>
  <g transform="matrix(0.133333 0 0 -0.133333 -802.904 993.076)" id="g37325">
   <g clip-path="url(#clipPath37331)" id="g37327">
    <path fill-rule="nonzero" fill="#f5b287" id="path37333" d="m6269.67,2762.22l-1.19,0c-0.45,0.02 -0.89,0.05 -1.33,0.1c-9.68,49.59 -36.95,128.2 -36.95,152.25c0,18.79 -2.88,87.17 -5.11,137.29c0.58,1.47 1.14,2.83 1.7,4.05c2.43,5.34 6.37,13.24 11.32,22.43c4.85,-36.42 9.31,-71.03 10.46,-83.57c2.73,-30.07 56.1,-141.89 56.64,-178.78l0,-1.1c0,-0.17 -0.01,-0.33 -0.01,-0.49c-0.94,-30.44 -20.03,-51.65 -35.53,-52.18"/>
   </g>
  </g>
  <path fill-rule="nonzero" fill="#fbd8bd" id="path37335" d="m26.7667,578.69574c0,0 1.02267,21.684 1.02267,25.77067c0,4.08667 5.90267,19.98133 5.336,24.636c-0.56667,4.656 -4.20133,7.38 -6.24533,6.24533c-2.04267,-1.136 -5.904,-16.576 -7.71867,-21.572c-1.816,-4.99467 -2.72667,-24.74933 -2.72667,-24.74933l10.332,-10.33067"/>
  <g transform="matrix(0.133333 0 0 -0.133333 -802.904 993.076)" id="g37337">
   <g clip-path="url(#clipPath37343)" id="g37339">
    <path fill-rule="nonzero" fill="#f9c8a5" id="path37345" d="m6231.13,2681.03c-2.78,0 -5.4,0.63 -7.75,1.93c-9.64,5.36 -24.68,53.22 -37.91,97.3c6.18,43.81 10.5,121.75 9.82,133.46c-0.82,13.85 17.06,105.6 29.8,138.14c2.23,-50.12 5.11,-118.5 5.11,-137.29c0,-29.21 40.22,-138.88 40.3,-179.33c0.01,-1.98 -0.08,-3.81 -0.28,-5.44c-3.6,-29.58 -23.71,-48.77 -39.09,-48.77"/>
   </g>
  </g>
  <path fill-rule="nonzero" fill="#f5c3a2" id="path37347" d="m18.5867,537.35708c0,0 -3.85333,22.03733 -4.76133,30.43867c-0.90933,8.4 -0.34133,30.99467 -0.90933,34.51333c-0.56667,3.51867 -0.34133,23.048 0.68133,26.33867c1.02267,3.29467 6.472,0.568 7.60667,-3.064c1.136,-3.632 2.04267,-19.07333 1.93067,-21.004c-0.11333,-1.93067 2.49733,-15.21333 4.2,-18.95867c1.704,-3.748 8.968,-16.91867 12.376,-15.1c3.40533,1.816 4.65467,11.012 5.44933,14.304c0.79467,3.29333 6.35733,9.31067 10.104,7.83333c3.74667,-1.47467 0.908,-8.40133 -0.908,-14.53067c-1.816,-6.132 -1.136,-10.9 -2.15733,-19.188c-1.02133,-8.288 -9.36533,-21.58267 -9.36533,-21.58267c0,0 13.29867,-50.13733 15.04267,-65.724c1.744,-15.588 -0.90533,-41.096 -0.90533,-41.096c0,0 16.13867,-76.30666 28.56133,-112.60266l-17.65733,-50.68666c-11.776,6.21467 -19.064,21.91067 -27.684,44.47466c-7.26933,19.03467 -18.064,80.45733 -24.992,114.11066c-0.28933,1.40133 -0.41333,2.796 -0.372,4.22533c0.31867,11.084 1.84933,63.144 3.76,107.29866"/>
  <g transform="matrix(0.133333 0 0 -0.133333 -802.904 993.076)" id="g37349">
   <g clip-path="url(#clipPath37355)" id="g37351">
    <path fill-rule="nonzero" fill="#fae0cd" id="path37357" d="m6449.97,3025.38c1.31,22.07 -11.35,55.76 -20.52,86.73c-3.06,10.33 -5.18,20.14 -6.7,29.85c1.53,-9.71 3.64,-19.51 6.7,-29.84c9.18,-30.98 21.84,-64.67 20.52,-86.74m-57.96,584.86c26.21,106.66 54.75,230.16 62.94,293.17c-8.18,-63.02 -36.72,-186.51 -62.94,-293.17m68.3,397.26c-0.02,103.37 -11.25,211.54 -11.25,211.54l0,0c0.05,-0.51 11.23,-108.42 11.25,-211.54m-289.94,421.02c-0.01,0.01 0,0.01 -0.01,0.01c38.2,195.99 83.29,431.39 121.93,579.63c-38.64,-148.24 -83.72,-383.65 -121.92,-579.64m365.26,170.96c39.34,162.92 86.24,343.12 127.64,464.08l0,0c-41.4,-120.96 -88.3,-301.16 -127.64,-464.08m-243.24,409.06c0,0.01 0.01,0.05 0.01,0.06c-0.01,-0.03 -0.01,-0.03 -0.01,-0.06m94.8,255.13c15.56,32.69 31.42,61.82 48.24,87.08l0,0c-16.82,-25.26 -32.68,-54.4 -48.24,-87.08"/>
    <path fill-rule="nonzero" fill="#6f5c5a" id="path37359" d="m6435.43,5350.75l0,0l0,0l0,0l0,0"/>
    <path fill-rule="nonzero" fill="#141214" id="path37361" d="m6435.43,5350.75l0,0c18.94,28.47 39.11,52.05 61.43,70.29c-22.32,-18.25 -42.48,-41.82 -61.43,-70.29m61.44,70.29c0.15,0.13 0.31,0.25 0.46,0.38c-0.16,-0.13 -0.31,-0.25 -0.46,-0.38"/>
    <path fill-rule="nonzero" fill="#f1ad86" id="path37363" d="m6426.95,3001.45c-0.44,0 -0.89,0.01 -1.33,0.03c-29.2,135.83 -85.47,264.56 -122.02,398.86c-23.77,87.35 -37.93,177.61 -30.26,268.28c8.91,105.36 32.82,210.58 49.25,315.01c18.09,115.06 34.05,230.48 43.32,346.63c0.18,2.08 -1.63,4.23 -3.59,4.73c-70.17,17.78 -130.55,56.84 -191.95,93.53c38.2,195.99 83.28,431.4 121.92,579.64c0.03,0.13 0.06,0.25 0.1,0.38c0,0.03 0,0.03 0.01,0.06c10.89,41.74 21.26,76.53 30.83,101.56c21.9,57.34 42.65,108.76 63.96,153.51c15.56,32.68 31.42,61.82 48.24,87.08l0,0c18.95,28.47 39.11,52.04 61.43,70.29c0.01,0 0,0 0.01,0c0.15,0.13 0.3,0.25 0.46,0.38c10.64,8.65 21.77,16.09 33.5,22.28l132.44,-380.14c-41.4,-120.96 -88.3,-301.16 -127.64,-464.08c-49.2,-203.74 -86.57,-380.44 -86.57,-380.44l0,0l0,0c0,0 11.23,-108.17 11.25,-211.54c0,-34.1 -1.22,-67.67 -4.46,-96.67c-0.26,-2.37 -0.56,-4.84 -0.9,-7.42c-8.19,-63.01 -36.73,-186.51 -62.94,-293.17c-25.61,-104.2 -48.99,-192.35 -48.99,-192.35c0,0 62.58,-99.71 70.25,-161.87c5.94,-48.2 4.2,-80.53 9.48,-114.06c1.52,-9.71 3.64,-19.52 6.7,-29.85c9.17,-30.97 21.83,-64.66 20.52,-86.73c-0.63,-10.68 -4.54,-18.64 -13.71,-22.25l0,0l0,0c-2.97,-1.17 -6.09,-1.68 -9.31,-1.68"/>
   </g>
  </g>
  <path fill-rule="nonzero" fill="#f5c3a2" id="path37365" d="m217.88936,125.30243c0,0 7.128,-16.18133 17.98533,-14.388c11.88133,1.96133 12.75333,17.004 6.21333,31.06533c-6.54,14.06133 -15.91467,17.76667 -24.19867,12.75333l0,-29.43067"/>
  <path fill-rule="nonzero" fill="#293642" id="path37367" d="m242.91603,123.5731c-0.02933,-0.07733 -0.56667,-1.70667 -1.82267,-3.41733c-0.63067,-0.85467 -1.44667,-1.73467 -2.50667,-2.424c-1.056,-0.688 -2.37733,-1.16933 -3.88533,-1.16667c-1.36133,-0.00133 -2.84267,0.384 -4.40933,1.22933c-2.604,1.408 -4.492,3.84133 -5.92533,6.59867c-2.14667,4.14667 -3.308,9.12 -3.96667,13.08533c-0.65467,3.96267 -0.78933,6.912 -0.79067,6.948c-0.03333,0.73467 0.536,1.35867 1.272,1.392c0.73467,0.03333 1.35867,-0.536 1.392,-1.27067c0,-0.00133 0.00267,-0.06933 0.012,-0.21467c0.064,-1.092 0.436,-6.21067 1.816,-11.53467c0.68933,-2.66133 1.632,-5.372 2.876,-7.63467c1.244,-2.27067 2.78133,-4.06 4.57867,-5.02133c1.25733,-0.676 2.28667,-0.90933 3.14533,-0.91067c0.94933,0.00267 1.72667,0.28267 2.43467,0.73733c1.05733,0.67867 1.90667,1.79733 2.456,2.76133c0.27733,0.48 0.48133,0.916 0.612,1.224c0.06667,0.15467 0.11467,0.27733 0.144,0.35733l0.032,0.088l0.00667,0.01733l0.12267,-0.04267l-0.12267,0.04133l0,0.00133l0.12267,-0.04267l-0.12267,0.04133c0.232,0.69867 0.98667,1.076 1.68533,0.844c0.69867,-0.23333 1.07733,-0.988 0.844,-1.68667"/>
  <g transform="matrix(0.133333 0 0 -0.133333 -802.904 993.076)" id="g37369">
   <g clip-path="url(#clipPath37375)" id="g37371">
    <path fill-rule="nonzero" fill="#f1ad86" id="path37377" d="m7709.58,6271.81l-0.77,0c-10.28,0.04 -20.56,1.81 -30.71,5.3c14.63,56.98 32.78,137 50.47,239.81c4.8,7.63 10.11,14.33 15.89,19.81c-0.47,-1.66 -0.88,-3.36 -1.24,-5.09c-6.38,-31.26 -4.65,-65 -8.07,-96.72c-3.84,-35.71 -13.84,-70.39 -17.23,-106.1c-1.66,-17.47 -1.3,-37.25 2.14,-56.37c-3.49,-0.41 -6.98,-0.63 -10.48,-0.64m25.34,283.21c1.33,8.19 2.64,16.5 3.96,24.96c6.88,9.24 14.84,21.12 22.6,35.41c5.43,1.2 11.02,1.86 16.77,1.86c4.11,0 8.32,-0.34 12.59,-1.04c3.53,-0.58 6.71,-1.57 9.99,-2.46l0,0c-11.04,-15.12 -25.54,-28.29 -37.41,-42.94c-4.69,-1.49 -9.51,-3.54 -14.45,-6.2c-5.03,-2.72 -9.7,-5.95 -14.05,-9.59"/>
    <path fill-rule="nonzero" fill="#2a333d" id="path37379" d="m7728.57,6516.92c2.12,12.36 4.25,25.08 6.35,38.1c4.35,3.64 9.02,6.87 14.05,9.59c4.94,2.66 9.76,4.71 14.45,6.2c-8.31,-10.24 -15.32,-21.21 -18.96,-34.08c-5.78,-5.48 -11.09,-12.18 -15.89,-19.81"/>
   </g>
  </g>
  <path fill-rule="nonzero" fill="#f5c3a2" id="path37381" d="m82.28803,125.30243c0,0 -7.12933,-16.18133 -17.98667,-14.388c-11.88133,1.96133 -12.75333,17.004 -6.21333,31.06533c6.54,14.06133 15.916,17.76667 24.2,12.75333l0,-29.43067"/>
  <path fill-rule="nonzero" fill="#293642" id="path37383" d="m59.7907,124.41576l0.00133,-0.00267c0.03067,-0.1 0.544,-1.512 1.532,-2.80133c0.49067,-0.64533 1.09467,-1.25467 1.78133,-1.684c0.692,-0.43067 1.44933,-0.69333 2.37067,-0.696c0.85733,0.00133 1.88667,0.23467 3.14533,0.91067c1.916,1.024 3.53733,2.996 4.82133,5.48c1.93333,3.71467 3.07733,8.48133 3.70267,12.29067c0.31467,1.90533 0.50533,3.57333 0.616,4.76c0.056,0.59333 0.09067,1.06667 0.11333,1.38933c0.01067,0.16133 0.01733,0.284 0.02267,0.36667l0.00667,0.11867c0.03333,0.73467 0.656,1.304 1.392,1.27067c0.736,-0.03333 1.30533,-0.65733 1.272,-1.392c-0.004,-0.04933 -0.24,-5.27333 -1.636,-11.18133c-0.7,-2.956 -1.688,-6.08667 -3.12133,-8.852c-1.43467,-2.75733 -3.32267,-5.19067 -5.92667,-6.59867c-1.56667,-0.84533 -3.048,-1.23067 -4.408,-1.22933c-1.50933,-0.00267 -2.83067,0.47867 -3.88667,1.16667c-1.58933,1.036 -2.63467,2.48933 -3.31733,3.66933c-0.68,1.184 -0.99067,2.11467 -1.01067,2.172c-0.23333,0.69867 0.144,1.45333 0.84267,1.68667c0.69867,0.232 1.45333,-0.14533 1.68667,-0.844"/>
  <g transform="matrix(0.133333 0 0 -0.133333 -802.904 993.076)" id="g37385">
   <g clip-path="url(#clipPath37391)" id="g37387">
    <path fill-rule="nonzero" fill="#141214" id="path37393" d="m6503.69,6616.15c0.12,0.02 0.24,0.04 0.35,0.06c-0.12,-0.02 -0.23,-0.04 -0.35,-0.06m0.35,0.06c3.42,0.56 6.78,0.89 10.1,1l0,0c-3.32,-0.11 -6.68,-0.44 -10.1,-1"/>
    <path fill-rule="nonzero" fill="#f1ad86" id="path37395" d="m6585.49,6271.84l-0.14,0c-14.27,49.86 -22.87,101.67 -29.65,152.64c-4.74,35.61 -7.84,75.28 -24.76,107.62c-4.11,7.85 -9.54,14.78 -15.11,21.6c5.8,-0.48 12.59,-2.4 20.61,-6.7c11.41,-6.09 21.42,-16.67 29.88,-30.09c17.68,-102.78 35.83,-182.81 50.45,-239.78c-10.34,-3.53 -20.81,-5.29 -31.28,-5.29m-29.41,286.25c-3.22,2.41 -6.6,4.6 -10.17,6.52c-11.73,6.33 -22.83,9.22 -33.02,9.22c-0.02,0 -0.03,0 -0.04,0c-0.04,0 -0.07,0 -0.11,0c-4.02,0 -7.86,-0.46 -11.49,-1.28c-2.31,3.45 -4.41,7.05 -6.18,10.87c-4.12,8.88 -7.01,18.19 -10.06,27.46l0,0.02c5.82,2.22 11.94,4.11 18.68,5.25c0.12,0.02 0.23,0.04 0.35,0.06l0,0l0,0c3.42,0.56 6.78,0.89 10.1,1c17.75,-33.19 36.74,-53.78 41.94,-59.12"/>
    <path fill-rule="nonzero" fill="#2a333d" id="path37397" d="m6566.32,6516.91c-8.46,13.42 -18.47,24 -29.88,30.09c-8.02,4.3 -14.81,6.22 -20.61,6.7c-5.03,6.17 -10.18,12.25 -14.58,18.85c3.63,0.82 7.47,1.28 11.49,1.28c0.04,0 0.07,0 0.11,0c0.01,0 0.02,0 0.04,0c10.19,0 21.29,-2.89 33.02,-9.22c3.57,-1.92 6.95,-4.11 10.17,-6.52c0.9,-0.91 1.38,-1.38 1.38,-1.38c0.01,0 0.02,0.01 0.03,0.01c1.19,-7.45 2.39,-14.8 3.6,-22.04l0,0c0.7,0.41 1.34,0.87 2,1.3c1.08,-6.44 2.15,-12.8 3.23,-19.07"/>
   </g>
  </g>
  <path fill-rule="nonzero" fill="#f5c3a2" id="path37399" d="m156.40403,209.91843c-4.07333,1.45867 -8.55467,1.45867 -12.628,0c-23.33733,-8.356 -42.32933,-23.02933 -52.356,-32.03067c-5.372,-4.82533 -9.21467,-11.076 -11.10667,-18.04533c-3.29333,-12.13333 -8.53867,-34.94933 -12.30267,-68.19466c0,-45.32933 36.748,-82.07733 82.07733,-82.07733c45.33066,0 82.07866,36.748 82.07866,82.07733c-3.76267,33.24533 -9.01067,56.06133 -12.30533,68.19466c-1.892,6.96933 -5.732,13.22 -11.10667,18.04533c-10.024,9.00133 -29.01333,23.67467 -52.35066,32.03067"/>
  <path fill-rule="nonzero" fill="#293642" id="path37401" d="m179.8427,96.14776l-0.29733,-0.27467l0.296,0.27733l0.00133,-0.00267l-0.29733,-0.27467l0.296,0.27733c0.02267,-0.02533 1.33467,-1.42 3.63467,-2.784c2.30267,-1.36667 5.56933,-2.7 9.56,-2.69867c4.05467,0.00533 8.91067,1.352 14.44667,5.63067c0.58267,0.45067 1.42,0.34533 1.87067,-0.23733c0.45067,-0.58267 0.34533,-1.42 -0.23733,-1.87067c-5.912,-4.58667 -11.41333,-6.196 -16.08,-6.18933c-4.668,0 -8.44667,1.58 -11.04533,3.14667c-2.60133,1.568 -4.04667,3.128 -4.108,3.19333c-0.49867,0.54133 -0.46533,1.384 0.076,1.884c0.54267,0.49867 1.38533,0.46533 1.884,-0.07733"/>
  <path fill-rule="nonzero" fill="#293642" id="path37403" d="m122.29336,94.3411c-0.06,-0.06533 -1.50533,-1.62533 -4.108,-3.19333c-2.59867,-1.56667 -6.37733,-3.14667 -11.044,-3.14667c-4.66667,-0.00667 -10.168,1.60267 -16.07867,6.18933c-0.58267,0.45067 -0.68933,1.288 -0.23733,1.87067c0.45067,0.58267 1.288,0.688 1.87067,0.23733c5.53467,-4.28 10.38933,-5.62533 14.44533,-5.63067c4.05333,-0.00133 7.36133,1.37467 9.668,2.764c1.152,0.69333 2.048,1.388 2.64933,1.90267c0.3,0.256 0.52667,0.468 0.67333,0.612l0.16133,0.16l0.036,0.03733l0.00533,0.00667l0.29333,-0.27467l-0.29467,0.272l0.00133,0.00267l0.29333,-0.27467l-0.29467,0.272c0.5,0.54267 1.34267,0.576 1.884,0.07733c0.54133,-0.5 0.576,-1.34267 0.076,-1.884"/>
  <path fill-rule="nonzero" fill="#e7aaa6" id="path37405" d="m219.86003,142.83043c0,6.14267 -4.98,11.12133 -11.12267,11.12133c-6.144,0 -11.124,-4.97867 -11.124,-11.12133c0,-6.14267 4.98,-11.12267 11.124,-11.12267c6.14267,0 11.12267,4.98 11.12267,11.12267"/>
  <path fill-rule="nonzero" fill="#293642" id="path37407" d="m200.99603,116.77576c0,6.44267 -3.32,11.66667 -7.41733,11.66667c-4.09333,0 -7.41333,-5.224 -7.41333,-11.66667c0,-6.444 3.32,-11.66667 7.41333,-11.66667c4.09733,0 7.41733,5.22267 7.41733,11.66667"/>
  <path fill-rule="nonzero" fill="#293642" id="path37409" d="m198.04269,111.66776l6.97733,-5.88533c0.28133,-0.23733 0.316,-0.65733 0.07867,-0.93867c-0.23733,-0.28267 -0.65733,-0.31733 -0.93867,-0.08l-6.97733,5.88533c-0.28133,0.23733 -0.316,0.65733 -0.07867,0.94c0.23733,0.28133 0.65733,0.316 0.93867,0.07867"/>
  <path fill-rule="nonzero" fill="#e7aaa6" id="path37411" d="m80.31603,142.83043c0,6.14267 4.98133,11.12133 11.12267,11.12133c6.144,0 11.12533,-4.97867 11.12533,-11.12133c0,-6.14267 -4.98133,-11.12267 -11.12533,-11.12267c-6.14133,0 -11.12267,4.98 -11.12267,11.12267"/>
  <path fill-rule="nonzero" fill="#293642" id="path37413" d="m99.18137,116.77576c0,6.44267 3.32,11.66667 7.41467,11.66667c4.09467,0 7.416,-5.224 7.416,-11.66667c0,-6.444 -3.32133,-11.66667 -7.416,-11.66667c-4.09467,0 -7.41467,5.22267 -7.41467,11.66667"/>
  <path fill-rule="nonzero" fill="#293642" id="path37415" d="m95.15737,105.78243l6.976,5.88533c0.28133,0.23733 0.70267,0.20133 0.94,-0.08c0.23733,-0.28133 0.20133,-0.70267 -0.08,-0.93867l-6.976,-5.88667c-0.28133,-0.23733 -0.70267,-0.20133 -0.94,0.08c-0.23733,0.28133 -0.20133,0.70267 0.08,0.94"/>
  <path fill-rule="nonzero" fill="#293642" id="path37417" d="m126.99736,164.3131c0.064,0.052 2.364,1.92933 6.38533,3.80667c4.01867,1.87467 9.77067,3.75333 16.70533,3.75333c6.936,0 12.688,-1.87867 16.70667,-3.75333c4.02133,-1.87733 6.32133,-3.75467 6.38533,-3.80667c0.56933,-0.46667 0.652,-1.30667 0.18533,-1.876c-0.46667,-0.56933 -1.30667,-0.65333 -1.876,-0.18667l-0.01333,0.01067c-0.20133,0.16133 -2.42933,1.91067 -6.16533,3.60533c-3.73867,1.69733 -8.97467,3.34133 -15.22267,3.34c-6.448,0.00133 -11.82,-1.75067 -15.57733,-3.504c-1.87867,-0.876 -3.35067,-1.752 -4.344,-2.40267c-0.49733,-0.32533 -0.876,-0.59333 -1.12533,-0.77867c-0.124,-0.092 -0.21733,-0.16267 -0.276,-0.20933l-0.064,-0.05067l-0.01467,-0.01067c-0.56933,-0.46667 -1.40933,-0.38267 -1.876,0.18667c-0.46667,0.56933 -0.38267,1.40933 0.18667,1.876"/>
  <path fill-rule="nonzero" fill="#293642" id="path37419" d="m148.77603,111.17176l6.26667,35.88667l-4.95333,0c-0.736,0 -1.33333,0.59733 -1.33333,1.33333c0,0.736 0.59733,1.33333 1.33333,1.33333l6.54,0c0.39467,0 0.76533,-0.17333 1.02,-0.476c0.25467,-0.30267 0.36133,-0.69733 0.29333,-1.08667l-6.54,-37.44933c-0.12667,-0.72533 -0.81733,-1.21067 -1.54267,-1.084c-0.72533,0.12667 -1.21067,0.81733 -1.084,1.54267"/>
  <g transform="matrix(0.133333 0 0 -0.133333 -802.904 993.076)" id="g37421">
   <g clip-path="url(#clipPath37427)" id="g37423">
    <path fill-rule="nonzero" fill="#ed9a71" id="path37429" d="m6559.97,6555.01c-0.74,0.62 -1.49,1.23 -2.25,1.83c0.6,0.29 1.21,0.59 1.81,0.88c0.14,-0.9 0.29,-1.81 0.44,-2.71"/>
    <path fill-rule="nonzero" fill="#2a3139" id="path37431" d="m6561.09,6534.68l-0.01,0c-1.2,7.24 -2.4,14.59 -3.59,22.04c0.08,0.04 0.15,0.08 0.23,0.12c0.76,-0.6 1.51,-1.21 2.25,-1.83c1.04,-6.42 2.08,-12.77 3.12,-19.03c-0.66,-0.43 -1.3,-0.89 -2,-1.3"/>
    <path fill-rule="nonzero" fill="#f1ad86" id="path37433" d="m6563.09,6535.98c-1.04,6.26 -2.08,12.61 -3.12,19.03c-0.15,0.9 -0.3,1.81 -0.44,2.71c127.53,63.78 92.96,265.76 227,289.84c134.74,24.2 131.48,142.19 160.53,209.98c15.88,37.06 50.59,51.13 82.35,51.13c26.31,0 50.6,-9.66 60.48,-23.92c21.78,-31.46 48.38,-43.57 48.38,-43.57c0,0 26.65,12.11 48.45,43.57c9.88,14.26 34.16,23.92 60.48,23.92c31.75,0 66.46,-14.08 82.34,-51.13c29.04,-67.79 25.79,-185.78 160.53,-209.98c134.75,-24.21 99.11,-228.2 229.05,-290.84c-0.34,-2.1 -0.68,-4.19 -1.01,-6.27l-0.23,0.03c-8.66,-2.25 -16.82,-3.3 -24.52,-3.3c-55.44,0 -86.94,54.22 -111.82,101.85c-13.53,25.86 -26.07,52.57 -42.82,76.56c-11.4,16.34 -24.61,28.55 -39.86,39.32c23.67,-5.04 50.11,-16.72 79.04,-39.08c1.82,-1.42 3.98,-2.1 6.12,-2.1c2.99,0 5.94,1.34 7.91,3.88c3.38,4.37 2.59,10.65 -1.78,14.03c-44.26,34.33 -85.45,46.42 -120.41,46.42c-0.07,0 -0.13,0 -0.19,0c-2.88,0 -5.71,-0.08 -8.5,-0.23c-29.44,16.14 -59.73,30.96 -84.91,53.61c-27.58,24.83 -41.86,53.35 -54.77,87.19c-13.01,34.05 -31.41,113.64 -79.03,113.64c-0.49,0 -0.96,-0.01 -1.45,-0.03c-28.46,-0.95 -48.25,-28.02 -71.07,-41.15c-7.88,-4.54 -15.21,-6.44 -22.12,-6.44c-25.22,-0.01 -44.97,25.37 -66.52,40.92c-10.52,7.59 -22.98,14.22 -35.27,14.22c-7.01,0 -13.96,-2.15 -20.48,-7.5c-19.06,-15.68 -25.55,-47.4 -31.8,-69.8c-9.95,-35.65 -21.17,-65.43 -46.77,-93.56c-26.55,-29.15 -60.7,-48.97 -93.62,-69.94c-10.74,-6.85 -21.16,-13.65 -31.01,-20.95c-34.33,-0.66 -74.46,-13.02 -117.48,-46.4c-4.37,-3.38 -5.17,-9.66 -1.78,-14.03c1.97,-2.54 4.92,-3.88 7.91,-3.88c2.14,0 4.29,0.69 6.12,2.1c28.62,22.13 54.83,33.81 78.31,38.93c-6.68,-6.91 -12.87,-14.47 -18.45,-22.93c-20.15,-30.54 -32.39,-65.48 -52.28,-96.17c-38.29,-59.11 -102.17,-76.68 -160.36,-108.99c-0.39,-0.22 -0.76,-0.45 -1.13,-0.69"/>
    <path fill-rule="nonzero" fill="#2a333d" id="path37435" d="m7584.02,6723.73c-2.14,0 -4.3,0.68 -6.12,2.1c-28.93,22.36 -55.37,34.04 -79.04,39.08c-6.82,4.82 -14.05,9.35 -21.7,13.83c-5.32,3.11 -10.7,6.12 -16.11,9.09c2.79,0.15 5.62,0.23 8.5,0.23c0.06,0 0.12,0 0.19,0c34.96,0 76.15,-12.09 120.41,-46.42c4.37,-3.38 5.16,-9.66 1.78,-14.03c-1.97,-2.54 -4.92,-3.88 -7.91,-3.88"/>
    <path fill-rule="nonzero" fill="#2a333d" id="path37437" d="m6710.88,6723.73c-2.99,0 -5.94,1.34 -7.91,3.88c-3.39,4.37 -2.59,10.65 1.78,14.03c43.02,33.38 83.15,45.74 117.48,46.4c-9.59,-7.11 -18.63,-14.7 -26.92,-23.28c-23.48,-5.12 -49.69,-16.8 -78.31,-38.93c-1.83,-1.41 -3.98,-2.1 -6.12,-2.1"/>
   </g>
  </g>
  <path fill-rule="nonzero" fill="#211e23" id="path37439" d="m148.8707,0.0011c48.50133,0 87.82,44.15066 87.82,92.652c0,16.244 -10.376,26.19467 -10.376,26.19467c-17.328,-8.35067 -12.57467,-35.552 -30.54267,-38.78c-17.96533,-3.22667 -17.532,-18.95867 -21.404,-27.99733c-3.87333,-9.036 -16.136,-7.82267 -19.04267,-3.628c-2.90667,4.19467 -6.46,5.80933 -6.46,5.80933c0,0 -3.54667,-1.61467 -6.45067,-5.80933c-2.90667,-4.19467 -15.17067,-5.408 -19.044,3.628c-3.87333,9.03867 -3.43867,24.77067 -21.404,27.99733c-17.968,3.228 -13.21467,30.42933 -30.54267,38.78c0,0 -10.37733,-9.95067 -10.37733,-26.19467c0,-48.50133 39.32266,-92.652 87.824,-92.652"/>
  <g transform="matrix(0.133333 0 0 -0.133333 -802.904 993.076)" id="g37441">
   <g clip-path="url(#clipPath37447)" id="g37443">
    <path fill-rule="nonzero" fill="#ffffff" id="path37449" d="m7534.15,7373.57c-8.6,6.78 -18.02,13.47 -28.35,20.05c-2.71,3.9 -6.08,7.21 -10.12,9.92c-0.9,0.73 -0.26,2.01 0.62,2.34c2.48,0.94 4.89,1.37 7.2,1.37c14.42,0 25.31,-16.89 30.65,-33.68"/>
    <path fill-rule="nonzero" fill="#383440" id="path37451" d="m7514.96,7317.83c-8.33,6.33 -16.78,12.46 -25.38,18.39c1.19,-0.15 2.33,-0.22 3.43,-0.22c16.55,0 22.4,16.18 17.51,48.52c-1.25,3.32 -2.82,6.36 -4.72,9.1c10.33,-6.58 19.75,-13.27 28.35,-20.05c2.82,-8.85 4.09,-17.67 3.53,-23.97c-1.7,-18.9 -11.41,-21.4 -22.72,-31.77"/>
    <path fill-rule="nonzero" fill="#383440" id="path37453" d="m7417.49,7103.18l-1.94,0c-1.93,0.03 -3.9,0.14 -5.91,0.34c-14.93,1.44 -12.79,21.33 0.74,21.33c0.68,0 1.39,-0.05 2.12,-0.15c4.24,-0.61 8.06,-0.9 11.52,-0.9c61.52,0.01 5.17,91.52 19.63,115.24c17.75,29.12 26.02,-16.2 26.45,54.82c0.08,13.18 -10.89,25.99 1.32,37.66c3.41,3.28 10.02,3.09 13.17,5.64c1.75,-0.44 3.41,-0.75 4.99,-0.94c8.6,-5.93 17.05,-12.06 25.38,-18.39c-0.06,-0.05 -0.11,-0.1 -0.16,-0.15c-3.21,-2.95 -6.07,-3.96 -8.59,-3.96c-2.7,0 -5,1.16 -6.9,2.31c-1.9,1.15 -3.4,2.3 -4.5,2.3c-2.38,0 -2.84,-5.44 -1.32,-28.16c0.4,-6.06 5.66,-11.79 5.6,-18.15c-0.13,-16.09 -1.63,-25.45 -13.32,-37.39c-3.14,-3.2 -11.61,-2.49 -14.03,-5.13c-13.93,-15.2 -2.41,-24.95 0.65,-43.26c6.77,-40.37 -12.03,-82.43 -54.9,-83.06"/>
   </g>
  </g>
  <g transform="matrix(0.133333 0 0 -0.133333 -802.904 993.076)" id="g37455">
   <g clip-path="url(#clipPath37461)" id="g37457">
    <path fill-rule="nonzero" fill="#ffffff" id="path37463" d="m6730.25,7363.43c0.5,1.96 1.05,3.95 1.67,5.98c2.17,7.19 7.92,10.36 13.79,10.47l0.64,0c1.25,-0.02 2.51,-0.18 3.73,-0.48c-7.12,-5.27 -13.71,-10.6 -19.83,-15.97"/>
    <path fill-rule="nonzero" fill="#383440" id="path37465" d="m6736.59,7297.83c-6.1,13.15 -9.57,25.99 -9.66,40.04l0,1.07c0.05,7.71 1.11,15.79 3.32,24.49c6.12,5.37 12.71,10.7 19.83,15.97c7.54,-1.8 13.77,-8.52 10.76,-17.97c-5.51,-17.31 -4.64,-31.53 -0.49,-44.59c-8.05,-6.16 -15.98,-12.49 -23.76,-19.01"/>
    <path fill-rule="nonzero" fill="#383440" id="path37467" d="m6885.32,7108.27c-10.87,0 -20.74,5.72 -29.51,16.58c-10.53,13.05 -9.62,27.12 -15.32,42c-9.68,25.29 -22.2,23.47 -41.09,35.7c-25.82,16.71 -33.63,46.48 -49.52,71.49c-5.23,8.24 -9.71,16.07 -13.29,23.79c7.78,6.52 15.71,12.85 23.76,19.01c5.89,-18.54 18.39,-34.76 28.62,-54.21c4.68,-8.94 8.9,-25.2 17.48,-31.45c7.34,-5.36 11.71,-6.16 15.48,-6.16c0.8,0 1.58,0.04 2.35,0.08c0.78,0.03 1.55,0.07 2.34,0.07c2.52,0 5.25,-0.38 8.93,-2.34c38.84,-20.72 16.53,-102.94 67.09,-104.59c2.45,-0.08 3.64,-3.55 1.31,-4.8c-6.5,-3.48 -12.71,-5.17 -18.63,-5.17"/>
   </g>
  </g>
  <path fill-rule="nonzero" fill="#000080" color="80" name="chaqueta" id="path37469" d="m184.47469,242.33709l58.796,22.16l62.23466,114.59066c-20.85867,8.756 -33.28267,12.38667 -76.99066,23.24267c-4.79067,-7.24 -10.86533,-46.24266 -17.34133,-87.46533c-0.832,1.43067 25.11467,172.31866 22.86667,176.05066l-0.11067,28.35067c-63.252,-0.45333 -58.52933,1.74 -166.95599,-0.584l-0.11067,-24.70933c-2.24133,-3.64933 23.672,-177.78533 22.86533,-179.10799c-6.58533,41.07333 -12.188,79.76666 -17.508,87.46266c-48.6,-11.31333 -72.22,-17.928 -72.22,-17.928c0,0 7.46533,-20.42667 18.592,-46.644c8.39067,-16.852 34.06533,-67.904 46.82933,-76.37866l51.004,-19.03867l34.02667,53.408l34.02267,-53.40933"/>
  <path fill-rule="nonzero" fill="#2a2d4f" id="path37471" d="m75.36403,393.44908l0.08267,-0.32267l-71.17066,-18.14533l0.54533,-1.332l70.69733,17.98133l-0.476,1.73067l0.32133,0.088l0.08267,-0.32267l-0.08267,0.32267l0.32133,0.08933l0.65733,-2.38667l-71.91733,-18.29067l-1.05733,2.576l72.23066,18.416l0.08667,-0.31467l-0.32133,-0.08933"/>
  <path fill-rule="nonzero" fill="#2a2d4f" id="path37473" d="m226.12136,395.39708l0.096,0.31867l76.02933,-22.83467l-1.12133,-2.06533l-75.93866,22.356l0.7,2.644l0.33067,-0.1l-0.096,-0.31867l0.32133,-0.08533l-0.44533,-1.684l74.79866,-22.02l0.47333,0.87067l-75.244,22.59867l0.096,0.32l0.32133,-0.08533l-0.32133,0.08533"/>
  <path fill-rule="nonzero" fill="#3b8894" color="3b8894" name="vivo" id="path37475" d="m184.82003,242.33709l-5.12667,-2.00533l-28.62,48.69733l2.884,4.13867l30.38,-50.07333"/>
  <path fill-rule="nonzero" fill="#3b8894" color="3b8894" name="vivo" id="path37477" d="m111.00003,244.37709l7.10133,-2.68267l103.14266,146.91599l1.58,11.19467l-111.824,-155.42799"/>
  <path fill-rule="nonzero" fill="#d0d1e3" id="path37479" d="m130.1987,486.07575l0,-0.66667l-44.83466,0l0,-52.112l44.168,0l0,52.77866l0.66667,0l0,-0.66667l0,0.66667l0.66667,0l0,-54.112l-46.83466,0l0,54.77866l46.83466,0l0,-0.66667l-0.66667,0"/>
  <path fill-rule="nonzero" fill="#343434" id="path37481" d="m213.49469,486.07575l0,-0.66667l-44.83466,0l0,-52.112l44.168,0l0,52.77866l0.66667,0l0,-0.66667l0,0.66667l0.66667,0l0,-54.112l-46.83466,0l0,54.77866l46.83466,0l0,-0.66667l-0.66667,0"/>
  <path fill-rule="nonzero" fill-opacity="0.63319" fill="#f3b9c3" id="path37483" d="m130.1987,441.30908l0,-0.66667l-44.83466,0l0,-7.34533l44.168,0l0,8.012l0.66667,0l0,-0.66667l0,0.66667l0.66667,0l0,-9.34533l-46.83466,0l0,10.012l46.83466,0l0,-0.66667l-0.66667,0"/>
  <path fill-rule="nonzero" fill-opacity="0.69432" fill="#666666" id="path37485" d="m213.49469,441.11442l0,-0.66667l-44.83466,0l0,-7.144l44.168,0l0,7.81067l0.66667,0l0,-0.66667l0,0.66667l0.66667,0l0,-9.144l-46.83466,0l0,9.81067l46.83466,0l0,-0.66667l-0.66667,0"/>
 </g>
</svg>